G04 #@! TF.GenerationSoftware,KiCad,Pcbnew,(5.1.8)-1*
G04 #@! TF.CreationDate,2021-01-11T10:14:07+02:00*
G04 #@! TF.ProjectId,OsseyPad,4f737365-7950-4616-942e-6b696361645f,rev?*
G04 #@! TF.SameCoordinates,Original*
G04 #@! TF.FileFunction,Soldermask,Top*
G04 #@! TF.FilePolarity,Negative*
%FSLAX46Y46*%
G04 Gerber Fmt 4.6, Leading zero omitted, Abs format (unit mm)*
G04 Created by KiCad (PCBNEW (5.1.8)-1) date 2021-01-11 10:14:07*
%MOMM*%
%LPD*%
G01*
G04 APERTURE LIST*
%ADD10C,0.650000*%
%ADD11O,0.900000X2.100000*%
%ADD12O,1.000000X1.600000*%
%ADD13C,3.987800*%
%ADD14C,1.750000*%
%ADD15R,2.000000X2.000000*%
%ADD16C,2.000000*%
%ADD17C,3.200000*%
%ADD18C,3.048000*%
%ADD19C,0.900000*%
%ADD20C,8.600000*%
G04 APERTURE END LIST*
D10*
X54440000Y-27070000D03*
X48660000Y-27070000D03*
D11*
X55870000Y-27570000D03*
X47230000Y-27570000D03*
D12*
X55870000Y-23390000D03*
X47230000Y-23390000D03*
D13*
X66675000Y-40481250D03*
D14*
X61595000Y-40481250D03*
X71755000Y-40481250D03*
D13*
X38100000Y-88106250D03*
D14*
X33020000Y-88106250D03*
X43180000Y-88106250D03*
D15*
X144895000Y-37986250D03*
D16*
X144895000Y-40486250D03*
X144895000Y-42986250D03*
D17*
X152395000Y-34886250D03*
X152395000Y-46086250D03*
D16*
X159395000Y-37986250D03*
X159395000Y-42986250D03*
X28243750Y-47075000D03*
X32743750Y-47075000D03*
X28243750Y-40575000D03*
X32743750Y-40575000D03*
D13*
X38100000Y-69056250D03*
D14*
X33020000Y-69056250D03*
X43180000Y-69056250D03*
D13*
X76200000Y-145256250D03*
D14*
X71120000Y-145256250D03*
X81280000Y-145256250D03*
D18*
X64293750Y-138271250D03*
X88106250Y-138271250D03*
D13*
X64293750Y-153511250D03*
X88106250Y-153511250D03*
D19*
X167720419Y-156029581D03*
X165440000Y-155085000D03*
X163159581Y-156029581D03*
X162215000Y-158310000D03*
X163159581Y-160590419D03*
X165440000Y-161535000D03*
X167720419Y-160590419D03*
X168665000Y-158310000D03*
D20*
X165440000Y-158310000D03*
D19*
X27330419Y-156029581D03*
X25050000Y-155085000D03*
X22769581Y-156029581D03*
X21825000Y-158310000D03*
X22769581Y-160590419D03*
X25050000Y-161535000D03*
X27330419Y-160590419D03*
X28275000Y-158310000D03*
D20*
X25050000Y-158310000D03*
D19*
X167720419Y-25159581D03*
X165440000Y-24215000D03*
X163159581Y-25159581D03*
X162215000Y-27440000D03*
X163159581Y-29720419D03*
X165440000Y-30665000D03*
X167720419Y-29720419D03*
X168665000Y-27440000D03*
D20*
X165440000Y-27440000D03*
D19*
X27330419Y-25159581D03*
X25050000Y-24215000D03*
X22769581Y-25159581D03*
X21825000Y-27440000D03*
X22769581Y-29720419D03*
X25050000Y-30665000D03*
X27330419Y-29720419D03*
X28275000Y-27440000D03*
D20*
X25050000Y-27440000D03*
D13*
X152400000Y-145256250D03*
D14*
X147320000Y-145256250D03*
X157480000Y-145256250D03*
D13*
X123825000Y-135731250D03*
D14*
X123825000Y-130651250D03*
X123825000Y-140811250D03*
D18*
X130810000Y-123825000D03*
X130810000Y-147637500D03*
D13*
X115570000Y-123825000D03*
X115570000Y-147637500D03*
X104775000Y-145256250D03*
D14*
X99695000Y-145256250D03*
X109855000Y-145256250D03*
D13*
X38100000Y-145256250D03*
D14*
X33020000Y-145256250D03*
X43180000Y-145256250D03*
D13*
X152400000Y-126206250D03*
D14*
X147320000Y-126206250D03*
X157480000Y-126206250D03*
D13*
X104775000Y-126206250D03*
D14*
X99695000Y-126206250D03*
X109855000Y-126206250D03*
D13*
X85725000Y-126206250D03*
D14*
X80645000Y-126206250D03*
X90805000Y-126206250D03*
D13*
X66675000Y-126206250D03*
D14*
X61595000Y-126206250D03*
X71755000Y-126206250D03*
D13*
X38100000Y-126206250D03*
D14*
X33020000Y-126206250D03*
X43180000Y-126206250D03*
D13*
X152400000Y-107156250D03*
D14*
X147320000Y-107156250D03*
X157480000Y-107156250D03*
D13*
X123825000Y-97631250D03*
D14*
X123825000Y-92551250D03*
X123825000Y-102711250D03*
D18*
X130810000Y-85725000D03*
X130810000Y-109537500D03*
D13*
X115570000Y-85725000D03*
X115570000Y-109537500D03*
X104775000Y-107156250D03*
D14*
X99695000Y-107156250D03*
X109855000Y-107156250D03*
D13*
X85725000Y-107156250D03*
D14*
X80645000Y-107156250D03*
X90805000Y-107156250D03*
D13*
X66675000Y-107156250D03*
D14*
X61595000Y-107156250D03*
X71755000Y-107156250D03*
D13*
X38100000Y-107156250D03*
D14*
X33020000Y-107156250D03*
X43180000Y-107156250D03*
D13*
X152400000Y-88106250D03*
D14*
X147320000Y-88106250D03*
X157480000Y-88106250D03*
D13*
X104775000Y-88106250D03*
D14*
X99695000Y-88106250D03*
X109855000Y-88106250D03*
D13*
X85725000Y-88106250D03*
D14*
X80645000Y-88106250D03*
X90805000Y-88106250D03*
D13*
X66675000Y-88106250D03*
D14*
X61595000Y-88106250D03*
X71755000Y-88106250D03*
D13*
X152400000Y-69056250D03*
D14*
X147320000Y-69056250D03*
X157480000Y-69056250D03*
D13*
X123825000Y-69056250D03*
D14*
X118745000Y-69056250D03*
X128905000Y-69056250D03*
D13*
X104775000Y-69056250D03*
D14*
X99695000Y-69056250D03*
X109855000Y-69056250D03*
D13*
X85725000Y-69056250D03*
D14*
X80645000Y-69056250D03*
X90805000Y-69056250D03*
D13*
X66675000Y-69056250D03*
D14*
X61595000Y-69056250D03*
X71755000Y-69056250D03*
D13*
X123825000Y-40481250D03*
D14*
X118745000Y-40481250D03*
X128905000Y-40481250D03*
D13*
X104775000Y-40481250D03*
D14*
X99695000Y-40481250D03*
X109855000Y-40481250D03*
D13*
X85725000Y-40481250D03*
D14*
X80645000Y-40481250D03*
X90805000Y-40481250D03*
M02*
