M48
; DRILL file {KiCad (5.1.8)-1} date 01/11/21 10:13:28
; FORMAT={-:-/ absolute / metric / decimal}
; #@! TF.CreationDate,2021-01-11T10:13:28+02:00
; #@! TF.GenerationSoftware,Kicad,Pcbnew,(5.1.8)-1
FMAT,2
METRIC
T1C0.400
T2C0.500
T3C0.600
T4C1.000
T5C1.100
T6C1.470
T7C2.600
T8C4.300
T9C0.650
T10C1.750
T11C3.048
T12C3.988
%
G90
G05
T1
X29.194Y-44.025
X32.75Y-51.75
X34.7Y-53.7
X38.957Y-39.484
X39.399Y-42.295
X39.824Y-38.618
X41.475Y-36.606
X42.275Y-54.756
X42.375Y-56.656
X42.725Y-42.356
X42.725Y-44.606
X43.875Y-58.256
X45.575Y-44.156
X45.975Y-54.756
X46.54Y-32.56
X47.175Y-45.756
X47.35Y-30.32
X48.075Y-59.056
X48.272Y-57.531
X49.525Y-61.05
X49.875Y-54.756
X50.65Y-62.125
X51.175Y-53.506
X51.175Y-55.756
X52.075Y-54.756
X52.175Y-52.256
X52.275Y-57.006
X53.425Y-53.506
X53.425Y-55.756
X53.425Y-63.14
X53.815Y-47.596
X54.425Y-54.506
X54.47Y-30.95
X54.975Y-48.556
X55.35Y-61.375
X55.52Y-30.32
X56.5Y-60.5
X58.0Y-60.5
X58.88Y-56.94
X59.375Y-60.5
X59.79Y-56.13
X61.0Y-56.5
X61.0Y-58.0
X61.0Y-59.5
X61.175Y-55.256
X140.675Y-36.256
X140.675Y-44.756
X142.945Y-40.486
X144.175Y-32.256
X144.175Y-48.756
T3
X21.825Y-158.31
X22.77Y-156.03
X22.77Y-160.59
X25.05Y-155.085
X25.05Y-161.535
X27.33Y-156.03
X27.33Y-160.59
X28.275Y-158.31
X21.825Y-27.44
X22.77Y-25.16
X22.77Y-29.72
X25.05Y-24.215
X25.05Y-30.665
X27.33Y-25.16
X27.33Y-29.72
X28.275Y-27.44
X162.215Y-158.31
X163.16Y-156.03
X163.16Y-160.59
X165.44Y-155.085
X165.44Y-161.535
X167.72Y-156.03
X167.72Y-160.59
X168.665Y-158.31
X162.215Y-27.44
X163.16Y-25.16
X163.16Y-29.72
X165.44Y-24.215
X165.44Y-30.665
X167.72Y-25.16
X167.72Y-29.72
X168.665Y-27.44
T4
X144.895Y-37.986
X144.895Y-40.486
X144.895Y-42.986
X159.395Y-37.986
X159.395Y-42.986
T5
X28.244Y-40.575
X28.244Y-47.075
X32.744Y-40.575
X32.744Y-47.075
T6
X148.59Y-104.616
X154.94Y-102.076
X148.59Y-142.716
X154.94Y-140.176
X34.29Y-66.516
X40.64Y-63.976
X100.965Y-104.616
X107.315Y-102.076
X34.29Y-123.666
X40.64Y-121.126
X62.865Y-123.666
X69.215Y-121.126
X100.965Y-66.516
X107.315Y-63.976
X81.915Y-37.941
X88.265Y-35.401
X148.59Y-85.566
X154.94Y-83.026
X72.39Y-142.716
X78.74Y-140.176
X126.365Y-93.821
X128.905Y-100.171
X120.015Y-66.516
X126.365Y-63.976
X62.865Y-104.616
X69.215Y-102.076
X34.29Y-85.566
X40.64Y-83.026
X81.915Y-123.666
X88.265Y-121.126
X81.915Y-104.616
X88.265Y-102.076
X62.865Y-66.516
X69.215Y-63.976
X120.015Y-37.941
X126.365Y-35.401
X148.59Y-123.666
X154.94Y-121.126
X81.915Y-85.566
X88.265Y-83.026
X62.865Y-85.566
X69.215Y-83.026
X148.59Y-66.516
X154.94Y-63.976
X100.965Y-142.716
X107.315Y-140.176
X100.965Y-37.941
X107.315Y-35.401
X100.965Y-85.566
X107.315Y-83.026
X100.965Y-123.666
X107.315Y-121.126
X62.865Y-37.941
X69.215Y-35.401
X34.29Y-142.716
X40.64Y-140.176
X126.365Y-131.921
X128.905Y-138.271
X81.915Y-66.516
X88.265Y-63.976
X34.29Y-104.616
X40.64Y-102.076
T7
X152.395Y-34.886
X152.395Y-46.086
T8
X25.05Y-158.31
X25.05Y-27.44
X165.44Y-158.31
X165.44Y-27.44
T9
X48.66Y-27.07
X54.44Y-27.07
T10
X61.595Y-107.156
X71.755Y-107.156
X33.02Y-88.106
X43.18Y-88.106
X80.645Y-126.206
X90.805Y-126.206
X80.645Y-107.156
X90.805Y-107.156
X61.595Y-69.056
X71.755Y-69.056
X118.745Y-40.481
X128.905Y-40.481
X147.32Y-126.206
X157.48Y-126.206
X80.645Y-88.106
X90.805Y-88.106
X61.595Y-88.106
X71.755Y-88.106
X147.32Y-69.056
X157.48Y-69.056
X99.695Y-145.256
X109.855Y-145.256
X99.695Y-40.481
X109.855Y-40.481
X99.695Y-88.106
X109.855Y-88.106
X99.695Y-126.206
X109.855Y-126.206
X61.595Y-40.481
X71.755Y-40.481
X33.02Y-145.256
X43.18Y-145.256
X123.825Y-130.651
X123.825Y-140.811
X80.645Y-69.056
X90.805Y-69.056
X33.02Y-107.156
X43.18Y-107.156
X147.32Y-107.156
X157.48Y-107.156
X147.32Y-145.256
X157.48Y-145.256
X33.02Y-69.056
X43.18Y-69.056
X99.695Y-107.156
X109.855Y-107.156
X33.02Y-126.206
X43.18Y-126.206
X61.595Y-126.206
X71.755Y-126.206
X99.695Y-69.056
X109.855Y-69.056
X80.645Y-40.481
X90.805Y-40.481
X147.32Y-88.106
X157.48Y-88.106
X71.12Y-145.256
X81.28Y-145.256
X123.825Y-92.551
X123.825Y-102.711
X118.745Y-69.056
X128.905Y-69.056
T11
X130.81Y-123.825
X130.81Y-147.637
X64.294Y-138.271
X88.106Y-138.271
X130.81Y-85.725
X130.81Y-109.537
T12
X152.4Y-107.156
X152.4Y-145.256
X38.1Y-69.056
X104.775Y-107.156
X38.1Y-126.206
X66.675Y-126.206
X104.775Y-69.056
X85.725Y-40.481
X152.4Y-88.106
X64.294Y-153.511
X76.2Y-145.256
X88.106Y-153.511
X115.57Y-85.725
X115.57Y-109.537
X123.825Y-97.631
X123.825Y-69.056
X66.675Y-107.156
X38.1Y-88.106
X85.725Y-126.206
X85.725Y-107.156
X66.675Y-69.056
X123.825Y-40.481
X152.4Y-126.206
X85.725Y-88.106
X66.675Y-88.106
X152.4Y-69.056
X104.775Y-145.256
X104.775Y-40.481
X104.775Y-88.106
X104.775Y-126.206
X66.675Y-40.481
X38.1Y-145.256
X115.57Y-123.825
X115.57Y-147.637
X123.825Y-135.731
X85.725Y-69.056
X38.1Y-107.156
T2
G00X47.23Y-26.97
M15
G01X47.23Y-28.17
M16
G05
G00X55.87Y-26.97
M15
G01X55.87Y-28.17
M16
G05
T3
G00X47.23Y-23.09
M15
G01X47.23Y-23.69
M16
G05
G00X55.87Y-23.09
M15
G01X55.87Y-23.69
M16
G05
T0
M30
