G04 #@! TF.GenerationSoftware,KiCad,Pcbnew,(5.1.8)-1*
G04 #@! TF.CreationDate,2021-01-11T10:14:07+02:00*
G04 #@! TF.ProjectId,OsseyPad,4f737365-7950-4616-942e-6b696361645f,rev?*
G04 #@! TF.SameCoordinates,Original*
G04 #@! TF.FileFunction,Paste,Bot*
G04 #@! TF.FilePolarity,Positive*
%FSLAX46Y46*%
G04 Gerber Fmt 4.6, Leading zero omitted, Abs format (unit mm)*
G04 Created by KiCad (PCBNEW (5.1.8)-1) date 2021-01-11 10:14:07*
%MOMM*%
%LPD*%
G01*
G04 APERTURE LIST*
%ADD10R,0.300000X1.750000*%
%ADD11O,0.900000X2.100000*%
%ADD12O,1.000000X1.600000*%
%ADD13R,0.900000X1.200000*%
%ADD14C,0.100000*%
%ADD15R,1.200000X0.900000*%
G04 APERTURE END LIST*
D10*
X54900000Y-28410000D03*
X54600000Y-28410000D03*
X53800000Y-28410000D03*
X54100000Y-28410000D03*
X49300000Y-28410000D03*
X49000000Y-28410000D03*
X48500000Y-28410000D03*
X48200000Y-28410000D03*
X51300000Y-28410000D03*
X50300000Y-28410000D03*
X49800000Y-28410000D03*
X50800000Y-28410000D03*
X53300000Y-28410000D03*
X52800000Y-28410000D03*
X52300000Y-28410000D03*
X51800000Y-28410000D03*
D11*
X55870000Y-27570000D03*
X47230000Y-27570000D03*
D12*
X55870000Y-23390000D03*
X47230000Y-23390000D03*
D13*
X153825000Y-49756250D03*
X150525000Y-49756250D03*
G36*
G01*
X44469975Y-43250184D02*
X44081066Y-42861275D01*
G75*
G02*
X44081066Y-42578433I141421J141421D01*
G01*
X44363909Y-42295590D01*
G75*
G02*
X44646751Y-42295590I141421J-141421D01*
G01*
X45035660Y-42684499D01*
G75*
G02*
X45035660Y-42967341I-141421J-141421D01*
G01*
X44752817Y-43250184D01*
G75*
G02*
X44469975Y-43250184I-141421J141421D01*
G01*
G37*
G36*
G01*
X43303249Y-44416910D02*
X42914340Y-44028001D01*
G75*
G02*
X42914340Y-43745159I141421J141421D01*
G01*
X43197183Y-43462316D01*
G75*
G02*
X43480025Y-43462316I141421J-141421D01*
G01*
X43868934Y-43851225D01*
G75*
G02*
X43868934Y-44134067I-141421J-141421D01*
G01*
X43586091Y-44416910D01*
G75*
G02*
X43303249Y-44416910I-141421J141421D01*
G01*
G37*
G36*
G01*
X42950000Y-35331250D02*
X42400000Y-35331250D01*
G75*
G02*
X42200000Y-35131250I0J200000D01*
G01*
X42200000Y-34731250D01*
G75*
G02*
X42400000Y-34531250I200000J0D01*
G01*
X42950000Y-34531250D01*
G75*
G02*
X43150000Y-34731250I0J-200000D01*
G01*
X43150000Y-35131250D01*
G75*
G02*
X42950000Y-35331250I-200000J0D01*
G01*
G37*
G36*
G01*
X42950000Y-36981250D02*
X42400000Y-36981250D01*
G75*
G02*
X42200000Y-36781250I0J200000D01*
G01*
X42200000Y-36381250D01*
G75*
G02*
X42400000Y-36181250I200000J0D01*
G01*
X42950000Y-36181250D01*
G75*
G02*
X43150000Y-36381250I0J-200000D01*
G01*
X43150000Y-36781250D01*
G75*
G02*
X42950000Y-36981250I-200000J0D01*
G01*
G37*
G36*
G01*
X37600561Y-36704165D02*
X37061392Y-37243334D01*
G75*
G02*
X36752032Y-37243334I-154680J154680D01*
G01*
X36442673Y-36933975D01*
G75*
G02*
X36442673Y-36624615I154680J154680D01*
G01*
X36981842Y-36085446D01*
G75*
G02*
X37291202Y-36085446I154680J-154680D01*
G01*
X37600561Y-36394805D01*
G75*
G02*
X37600561Y-36704165I-154680J-154680D01*
G01*
G37*
G36*
G01*
X39103163Y-38206767D02*
X38563994Y-38745936D01*
G75*
G02*
X38254634Y-38745936I-154680J154680D01*
G01*
X37945275Y-38436577D01*
G75*
G02*
X37945275Y-38127217I154680J154680D01*
G01*
X38484444Y-37588048D01*
G75*
G02*
X38793804Y-37588048I154680J-154680D01*
G01*
X39103163Y-37897407D01*
G75*
G02*
X39103163Y-38206767I-154680J-154680D01*
G01*
G37*
G36*
G01*
X39325000Y-33000000D02*
X39325000Y-33512500D01*
G75*
G02*
X39106250Y-33731250I-218750J0D01*
G01*
X38668750Y-33731250D01*
G75*
G02*
X38450000Y-33512500I0J218750D01*
G01*
X38450000Y-33000000D01*
G75*
G02*
X38668750Y-32781250I218750J0D01*
G01*
X39106250Y-32781250D01*
G75*
G02*
X39325000Y-33000000I0J-218750D01*
G01*
G37*
G36*
G01*
X40900000Y-33000000D02*
X40900000Y-33512500D01*
G75*
G02*
X40681250Y-33731250I-218750J0D01*
G01*
X40243750Y-33731250D01*
G75*
G02*
X40025000Y-33512500I0J218750D01*
G01*
X40025000Y-33000000D01*
G75*
G02*
X40243750Y-32781250I218750J0D01*
G01*
X40681250Y-32781250D01*
G75*
G02*
X40900000Y-33000000I0J-218750D01*
G01*
G37*
G36*
G01*
X142150000Y-47181250D02*
X142700000Y-47181250D01*
G75*
G02*
X142900000Y-47381250I0J-200000D01*
G01*
X142900000Y-47781250D01*
G75*
G02*
X142700000Y-47981250I-200000J0D01*
G01*
X142150000Y-47981250D01*
G75*
G02*
X141950000Y-47781250I0J200000D01*
G01*
X141950000Y-47381250D01*
G75*
G02*
X142150000Y-47181250I200000J0D01*
G01*
G37*
G36*
G01*
X142150000Y-45531250D02*
X142700000Y-45531250D01*
G75*
G02*
X142900000Y-45731250I0J-200000D01*
G01*
X142900000Y-46131250D01*
G75*
G02*
X142700000Y-46331250I-200000J0D01*
G01*
X142150000Y-46331250D01*
G75*
G02*
X141950000Y-46131250I0J200000D01*
G01*
X141950000Y-45731250D01*
G75*
G02*
X142150000Y-45531250I200000J0D01*
G01*
G37*
G36*
G01*
X142700000Y-33831250D02*
X142150000Y-33831250D01*
G75*
G02*
X141950000Y-33631250I0J200000D01*
G01*
X141950000Y-33231250D01*
G75*
G02*
X142150000Y-33031250I200000J0D01*
G01*
X142700000Y-33031250D01*
G75*
G02*
X142900000Y-33231250I0J-200000D01*
G01*
X142900000Y-33631250D01*
G75*
G02*
X142700000Y-33831250I-200000J0D01*
G01*
G37*
G36*
G01*
X142700000Y-35481250D02*
X142150000Y-35481250D01*
G75*
G02*
X141950000Y-35281250I0J200000D01*
G01*
X141950000Y-34881250D01*
G75*
G02*
X142150000Y-34681250I200000J0D01*
G01*
X142700000Y-34681250D01*
G75*
G02*
X142900000Y-34881250I0J-200000D01*
G01*
X142900000Y-35281250D01*
G75*
G02*
X142700000Y-35481250I-200000J0D01*
G01*
G37*
G36*
G01*
X144450000Y-46331250D02*
X143900000Y-46331250D01*
G75*
G02*
X143700000Y-46131250I0J200000D01*
G01*
X143700000Y-45731250D01*
G75*
G02*
X143900000Y-45531250I200000J0D01*
G01*
X144450000Y-45531250D01*
G75*
G02*
X144650000Y-45731250I0J-200000D01*
G01*
X144650000Y-46131250D01*
G75*
G02*
X144450000Y-46331250I-200000J0D01*
G01*
G37*
G36*
G01*
X144450000Y-47981250D02*
X143900000Y-47981250D01*
G75*
G02*
X143700000Y-47781250I0J200000D01*
G01*
X143700000Y-47381250D01*
G75*
G02*
X143900000Y-47181250I200000J0D01*
G01*
X144450000Y-47181250D01*
G75*
G02*
X144650000Y-47381250I0J-200000D01*
G01*
X144650000Y-47781250D01*
G75*
G02*
X144450000Y-47981250I-200000J0D01*
G01*
G37*
G36*
G01*
X143900000Y-34681250D02*
X144450000Y-34681250D01*
G75*
G02*
X144650000Y-34881250I0J-200000D01*
G01*
X144650000Y-35281250D01*
G75*
G02*
X144450000Y-35481250I-200000J0D01*
G01*
X143900000Y-35481250D01*
G75*
G02*
X143700000Y-35281250I0J200000D01*
G01*
X143700000Y-34881250D01*
G75*
G02*
X143900000Y-34681250I200000J0D01*
G01*
G37*
G36*
G01*
X143900000Y-33031250D02*
X144450000Y-33031250D01*
G75*
G02*
X144650000Y-33231250I0J-200000D01*
G01*
X144650000Y-33631250D01*
G75*
G02*
X144450000Y-33831250I-200000J0D01*
G01*
X143900000Y-33831250D01*
G75*
G02*
X143700000Y-33631250I0J200000D01*
G01*
X143700000Y-33231250D01*
G75*
G02*
X143900000Y-33031250I200000J0D01*
G01*
G37*
G36*
G01*
X140425000Y-34581250D02*
X140925000Y-34581250D01*
G75*
G02*
X141150000Y-34806250I0J-225000D01*
G01*
X141150000Y-35256250D01*
G75*
G02*
X140925000Y-35481250I-225000J0D01*
G01*
X140425000Y-35481250D01*
G75*
G02*
X140200000Y-35256250I0J225000D01*
G01*
X140200000Y-34806250D01*
G75*
G02*
X140425000Y-34581250I225000J0D01*
G01*
G37*
G36*
G01*
X140425000Y-33031250D02*
X140925000Y-33031250D01*
G75*
G02*
X141150000Y-33256250I0J-225000D01*
G01*
X141150000Y-33706250D01*
G75*
G02*
X140925000Y-33931250I-225000J0D01*
G01*
X140425000Y-33931250D01*
G75*
G02*
X140200000Y-33706250I0J225000D01*
G01*
X140200000Y-33256250D01*
G75*
G02*
X140425000Y-33031250I225000J0D01*
G01*
G37*
G36*
G01*
X140925000Y-46431250D02*
X140425000Y-46431250D01*
G75*
G02*
X140200000Y-46206250I0J225000D01*
G01*
X140200000Y-45756250D01*
G75*
G02*
X140425000Y-45531250I225000J0D01*
G01*
X140925000Y-45531250D01*
G75*
G02*
X141150000Y-45756250I0J-225000D01*
G01*
X141150000Y-46206250D01*
G75*
G02*
X140925000Y-46431250I-225000J0D01*
G01*
G37*
G36*
G01*
X140925000Y-47981250D02*
X140425000Y-47981250D01*
G75*
G02*
X140200000Y-47756250I0J225000D01*
G01*
X140200000Y-47306250D01*
G75*
G02*
X140425000Y-47081250I225000J0D01*
G01*
X140925000Y-47081250D01*
G75*
G02*
X141150000Y-47306250I0J-225000D01*
G01*
X141150000Y-47756250D01*
G75*
G02*
X140925000Y-47981250I-225000J0D01*
G01*
G37*
G36*
G01*
X50978033Y-61162837D02*
X51331587Y-60809283D01*
G75*
G02*
X51649785Y-60809283I159099J-159099D01*
G01*
X51967983Y-61127481D01*
G75*
G02*
X51967983Y-61445679I-159099J-159099D01*
G01*
X51614429Y-61799233D01*
G75*
G02*
X51296231Y-61799233I-159099J159099D01*
G01*
X50978033Y-61481035D01*
G75*
G02*
X50978033Y-61162837I159099J159099D01*
G01*
G37*
G36*
G01*
X49882017Y-60066821D02*
X50235571Y-59713267D01*
G75*
G02*
X50553769Y-59713267I159099J-159099D01*
G01*
X50871967Y-60031465D01*
G75*
G02*
X50871967Y-60349663I-159099J-159099D01*
G01*
X50518413Y-60703217D01*
G75*
G02*
X50200215Y-60703217I-159099J159099D01*
G01*
X49882017Y-60385019D01*
G75*
G02*
X49882017Y-60066821I159099J159099D01*
G01*
G37*
D14*
G36*
X46245711Y-46958332D02*
G01*
X47094239Y-47806860D01*
X46104289Y-48796810D01*
X45255761Y-47948282D01*
X46245711Y-46958332D01*
G37*
G36*
X44690076Y-48513967D02*
G01*
X45538604Y-49362495D01*
X44548654Y-50352445D01*
X43700126Y-49503917D01*
X44690076Y-48513967D01*
G37*
G36*
X45892157Y-49716048D02*
G01*
X46740685Y-50564576D01*
X45750735Y-51554526D01*
X44902207Y-50705998D01*
X45892157Y-49716048D01*
G37*
G36*
X47447792Y-48160413D02*
G01*
X48296320Y-49008941D01*
X47306370Y-49998891D01*
X46457842Y-49150363D01*
X47447792Y-48160413D01*
G37*
G36*
X41707967Y-40445644D02*
G01*
X41248348Y-39986025D01*
X41997881Y-39236492D01*
X42457500Y-39696111D01*
X41707967Y-40445644D01*
G37*
G36*
X42379719Y-41117395D02*
G01*
X41920100Y-40657776D01*
X42669633Y-39908243D01*
X43129252Y-40367862D01*
X42379719Y-41117395D01*
G37*
G36*
X41036216Y-39773892D02*
G01*
X40576597Y-39314273D01*
X41326130Y-38564740D01*
X41785749Y-39024359D01*
X41036216Y-39773892D01*
G37*
G36*
X39480581Y-41329527D02*
G01*
X39020962Y-40869908D01*
X39770495Y-40120375D01*
X40230114Y-40579994D01*
X39480581Y-41329527D01*
G37*
G36*
X40152333Y-42001278D02*
G01*
X39692714Y-41541659D01*
X40442247Y-40792126D01*
X40901866Y-41251745D01*
X40152333Y-42001278D01*
G37*
G36*
X40824084Y-42673030D02*
G01*
X40364465Y-42213411D01*
X41113998Y-41463878D01*
X41573617Y-41923497D01*
X40824084Y-42673030D01*
G37*
G36*
G01*
X51998224Y-52483459D02*
X51609314Y-52094549D01*
G75*
G02*
X51609314Y-51740997I176776J176776D01*
G01*
X51998224Y-51352087D01*
G75*
G02*
X52351776Y-51352087I176776J-176776D01*
G01*
X52740686Y-51740997D01*
G75*
G02*
X52740686Y-52094549I-176776J-176776D01*
G01*
X52351776Y-52483459D01*
G75*
G02*
X51998224Y-52483459I-176776J176776D01*
G01*
G37*
G36*
G01*
X52917463Y-53402697D02*
X52528553Y-53013787D01*
G75*
G02*
X52528553Y-52660235I176776J176776D01*
G01*
X52917463Y-52271325D01*
G75*
G02*
X53271015Y-52271325I176776J-176776D01*
G01*
X53659925Y-52660235D01*
G75*
G02*
X53659925Y-53013787I-176776J-176776D01*
G01*
X53271015Y-53402697D01*
G75*
G02*
X52917463Y-53402697I-176776J176776D01*
G01*
G37*
G36*
G01*
X53836702Y-54321936D02*
X53447792Y-53933026D01*
G75*
G02*
X53447792Y-53579474I176776J176776D01*
G01*
X53836702Y-53190564D01*
G75*
G02*
X54190254Y-53190564I176776J-176776D01*
G01*
X54579164Y-53579474D01*
G75*
G02*
X54579164Y-53933026I-176776J-176776D01*
G01*
X54190254Y-54321936D01*
G75*
G02*
X53836702Y-54321936I-176776J176776D01*
G01*
G37*
G36*
G01*
X54755940Y-55241175D02*
X54367030Y-54852265D01*
G75*
G02*
X54367030Y-54498713I176776J176776D01*
G01*
X54755940Y-54109803D01*
G75*
G02*
X55109492Y-54109803I176776J-176776D01*
G01*
X55498402Y-54498713D01*
G75*
G02*
X55498402Y-54852265I-176776J-176776D01*
G01*
X55109492Y-55241175D01*
G75*
G02*
X54755940Y-55241175I-176776J176776D01*
G01*
G37*
G36*
G01*
X51078985Y-53402697D02*
X50690075Y-53013787D01*
G75*
G02*
X50690075Y-52660235I176776J176776D01*
G01*
X51078985Y-52271325D01*
G75*
G02*
X51432537Y-52271325I176776J-176776D01*
G01*
X51821447Y-52660235D01*
G75*
G02*
X51821447Y-53013787I-176776J-176776D01*
G01*
X51432537Y-53402697D01*
G75*
G02*
X51078985Y-53402697I-176776J176776D01*
G01*
G37*
G36*
G01*
X51998224Y-54321936D02*
X51609314Y-53933026D01*
G75*
G02*
X51609314Y-53579474I176776J176776D01*
G01*
X51998224Y-53190564D01*
G75*
G02*
X52351776Y-53190564I176776J-176776D01*
G01*
X52740686Y-53579474D01*
G75*
G02*
X52740686Y-53933026I-176776J-176776D01*
G01*
X52351776Y-54321936D01*
G75*
G02*
X51998224Y-54321936I-176776J176776D01*
G01*
G37*
G36*
G01*
X52917463Y-55241175D02*
X52528553Y-54852265D01*
G75*
G02*
X52528553Y-54498713I176776J176776D01*
G01*
X52917463Y-54109803D01*
G75*
G02*
X53271015Y-54109803I176776J-176776D01*
G01*
X53659925Y-54498713D01*
G75*
G02*
X53659925Y-54852265I-176776J-176776D01*
G01*
X53271015Y-55241175D01*
G75*
G02*
X52917463Y-55241175I-176776J176776D01*
G01*
G37*
G36*
G01*
X53836702Y-56160414D02*
X53447792Y-55771504D01*
G75*
G02*
X53447792Y-55417952I176776J176776D01*
G01*
X53836702Y-55029042D01*
G75*
G02*
X54190254Y-55029042I176776J-176776D01*
G01*
X54579164Y-55417952D01*
G75*
G02*
X54579164Y-55771504I-176776J-176776D01*
G01*
X54190254Y-56160414D01*
G75*
G02*
X53836702Y-56160414I-176776J176776D01*
G01*
G37*
G36*
G01*
X50159746Y-54321936D02*
X49770836Y-53933026D01*
G75*
G02*
X49770836Y-53579474I176776J176776D01*
G01*
X50159746Y-53190564D01*
G75*
G02*
X50513298Y-53190564I176776J-176776D01*
G01*
X50902208Y-53579474D01*
G75*
G02*
X50902208Y-53933026I-176776J-176776D01*
G01*
X50513298Y-54321936D01*
G75*
G02*
X50159746Y-54321936I-176776J176776D01*
G01*
G37*
G36*
G01*
X51078985Y-55241175D02*
X50690075Y-54852265D01*
G75*
G02*
X50690075Y-54498713I176776J176776D01*
G01*
X51078985Y-54109803D01*
G75*
G02*
X51432537Y-54109803I176776J-176776D01*
G01*
X51821447Y-54498713D01*
G75*
G02*
X51821447Y-54852265I-176776J-176776D01*
G01*
X51432537Y-55241175D01*
G75*
G02*
X51078985Y-55241175I-176776J176776D01*
G01*
G37*
G36*
G01*
X51998224Y-56160414D02*
X51609314Y-55771504D01*
G75*
G02*
X51609314Y-55417952I176776J176776D01*
G01*
X51998224Y-55029042D01*
G75*
G02*
X52351776Y-55029042I176776J-176776D01*
G01*
X52740686Y-55417952D01*
G75*
G02*
X52740686Y-55771504I-176776J-176776D01*
G01*
X52351776Y-56160414D01*
G75*
G02*
X51998224Y-56160414I-176776J176776D01*
G01*
G37*
G36*
G01*
X52917463Y-57079653D02*
X52528553Y-56690743D01*
G75*
G02*
X52528553Y-56337191I176776J176776D01*
G01*
X52917463Y-55948281D01*
G75*
G02*
X53271015Y-55948281I176776J-176776D01*
G01*
X53659925Y-56337191D01*
G75*
G02*
X53659925Y-56690743I-176776J-176776D01*
G01*
X53271015Y-57079653D01*
G75*
G02*
X52917463Y-57079653I-176776J176776D01*
G01*
G37*
G36*
G01*
X49240508Y-55241175D02*
X48851598Y-54852265D01*
G75*
G02*
X48851598Y-54498713I176776J176776D01*
G01*
X49240508Y-54109803D01*
G75*
G02*
X49594060Y-54109803I176776J-176776D01*
G01*
X49982970Y-54498713D01*
G75*
G02*
X49982970Y-54852265I-176776J-176776D01*
G01*
X49594060Y-55241175D01*
G75*
G02*
X49240508Y-55241175I-176776J176776D01*
G01*
G37*
G36*
G01*
X50159746Y-56160414D02*
X49770836Y-55771504D01*
G75*
G02*
X49770836Y-55417952I176776J176776D01*
G01*
X50159746Y-55029042D01*
G75*
G02*
X50513298Y-55029042I176776J-176776D01*
G01*
X50902208Y-55417952D01*
G75*
G02*
X50902208Y-55771504I-176776J-176776D01*
G01*
X50513298Y-56160414D01*
G75*
G02*
X50159746Y-56160414I-176776J176776D01*
G01*
G37*
G36*
G01*
X51078985Y-57079653D02*
X50690075Y-56690743D01*
G75*
G02*
X50690075Y-56337191I176776J176776D01*
G01*
X51078985Y-55948281D01*
G75*
G02*
X51432537Y-55948281I176776J-176776D01*
G01*
X51821447Y-56337191D01*
G75*
G02*
X51821447Y-56690743I-176776J-176776D01*
G01*
X51432537Y-57079653D01*
G75*
G02*
X51078985Y-57079653I-176776J176776D01*
G01*
G37*
G36*
G01*
X51998224Y-57998891D02*
X51609314Y-57609981D01*
G75*
G02*
X51609314Y-57256429I176776J176776D01*
G01*
X51998224Y-56867519D01*
G75*
G02*
X52351776Y-56867519I176776J-176776D01*
G01*
X52740686Y-57256429D01*
G75*
G02*
X52740686Y-57609981I-176776J-176776D01*
G01*
X52351776Y-57998891D01*
G75*
G02*
X51998224Y-57998891I-176776J176776D01*
G01*
G37*
G36*
G01*
X53014690Y-59227489D02*
X52342938Y-58555737D01*
G75*
G02*
X52342938Y-58467349I44194J44194D01*
G01*
X52431326Y-58378961D01*
G75*
G02*
X52519714Y-58378961I44194J-44194D01*
G01*
X53191466Y-59050713D01*
G75*
G02*
X53191466Y-59139101I-44194J-44194D01*
G01*
X53103078Y-59227489D01*
G75*
G02*
X53014690Y-59227489I-44194J44194D01*
G01*
G37*
G36*
G01*
X53368243Y-58873935D02*
X52696491Y-58202183D01*
G75*
G02*
X52696491Y-58113795I44194J44194D01*
G01*
X52784879Y-58025407D01*
G75*
G02*
X52873267Y-58025407I44194J-44194D01*
G01*
X53545019Y-58697159D01*
G75*
G02*
X53545019Y-58785547I-44194J-44194D01*
G01*
X53456631Y-58873935D01*
G75*
G02*
X53368243Y-58873935I-44194J44194D01*
G01*
G37*
G36*
G01*
X53721797Y-58520382D02*
X53050045Y-57848630D01*
G75*
G02*
X53050045Y-57760242I44194J44194D01*
G01*
X53138433Y-57671854D01*
G75*
G02*
X53226821Y-57671854I44194J-44194D01*
G01*
X53898573Y-58343606D01*
G75*
G02*
X53898573Y-58431994I-44194J-44194D01*
G01*
X53810185Y-58520382D01*
G75*
G02*
X53721797Y-58520382I-44194J44194D01*
G01*
G37*
G36*
G01*
X54075350Y-58166829D02*
X53403598Y-57495077D01*
G75*
G02*
X53403598Y-57406689I44194J44194D01*
G01*
X53491986Y-57318301D01*
G75*
G02*
X53580374Y-57318301I44194J-44194D01*
G01*
X54252126Y-57990053D01*
G75*
G02*
X54252126Y-58078441I-44194J-44194D01*
G01*
X54163738Y-58166829D01*
G75*
G02*
X54075350Y-58166829I-44194J44194D01*
G01*
G37*
G36*
G01*
X54428903Y-57813275D02*
X53757151Y-57141523D01*
G75*
G02*
X53757151Y-57053135I44194J44194D01*
G01*
X53845539Y-56964747D01*
G75*
G02*
X53933927Y-56964747I44194J-44194D01*
G01*
X54605679Y-57636499D01*
G75*
G02*
X54605679Y-57724887I-44194J-44194D01*
G01*
X54517291Y-57813275D01*
G75*
G02*
X54428903Y-57813275I-44194J44194D01*
G01*
G37*
G36*
G01*
X54782457Y-57459722D02*
X54110705Y-56787970D01*
G75*
G02*
X54110705Y-56699582I44194J44194D01*
G01*
X54199093Y-56611194D01*
G75*
G02*
X54287481Y-56611194I44194J-44194D01*
G01*
X54959233Y-57282946D01*
G75*
G02*
X54959233Y-57371334I-44194J-44194D01*
G01*
X54870845Y-57459722D01*
G75*
G02*
X54782457Y-57459722I-44194J44194D01*
G01*
G37*
G36*
G01*
X55136010Y-57106168D02*
X54464258Y-56434416D01*
G75*
G02*
X54464258Y-56346028I44194J44194D01*
G01*
X54552646Y-56257640D01*
G75*
G02*
X54641034Y-56257640I44194J-44194D01*
G01*
X55312786Y-56929392D01*
G75*
G02*
X55312786Y-57017780I-44194J-44194D01*
G01*
X55224398Y-57106168D01*
G75*
G02*
X55136010Y-57106168I-44194J44194D01*
G01*
G37*
G36*
G01*
X55489564Y-56752615D02*
X54817812Y-56080863D01*
G75*
G02*
X54817812Y-55992475I44194J44194D01*
G01*
X54906200Y-55904087D01*
G75*
G02*
X54994588Y-55904087I44194J-44194D01*
G01*
X55666340Y-56575839D01*
G75*
G02*
X55666340Y-56664227I-44194J-44194D01*
G01*
X55577952Y-56752615D01*
G75*
G02*
X55489564Y-56752615I-44194J44194D01*
G01*
G37*
G36*
G01*
X55843117Y-56399062D02*
X55171365Y-55727310D01*
G75*
G02*
X55171365Y-55638922I44194J44194D01*
G01*
X55259753Y-55550534D01*
G75*
G02*
X55348141Y-55550534I44194J-44194D01*
G01*
X56019893Y-56222286D01*
G75*
G02*
X56019893Y-56310674I-44194J-44194D01*
G01*
X55931505Y-56399062D01*
G75*
G02*
X55843117Y-56399062I-44194J44194D01*
G01*
G37*
G36*
G01*
X56196670Y-56045508D02*
X55524918Y-55373756D01*
G75*
G02*
X55524918Y-55285368I44194J44194D01*
G01*
X55613306Y-55196980D01*
G75*
G02*
X55701694Y-55196980I44194J-44194D01*
G01*
X56373446Y-55868732D01*
G75*
G02*
X56373446Y-55957120I-44194J-44194D01*
G01*
X56285058Y-56045508D01*
G75*
G02*
X56196670Y-56045508I-44194J44194D01*
G01*
G37*
G36*
G01*
X56550224Y-55691955D02*
X55878472Y-55020203D01*
G75*
G02*
X55878472Y-54931815I44194J44194D01*
G01*
X55966860Y-54843427D01*
G75*
G02*
X56055248Y-54843427I44194J-44194D01*
G01*
X56727000Y-55515179D01*
G75*
G02*
X56727000Y-55603567I-44194J-44194D01*
G01*
X56638612Y-55691955D01*
G75*
G02*
X56550224Y-55691955I-44194J44194D01*
G01*
G37*
G36*
G01*
X55966860Y-54507551D02*
X55878472Y-54419163D01*
G75*
G02*
X55878472Y-54330775I44194J44194D01*
G01*
X56550224Y-53659023D01*
G75*
G02*
X56638612Y-53659023I44194J-44194D01*
G01*
X56727000Y-53747411D01*
G75*
G02*
X56727000Y-53835799I-44194J-44194D01*
G01*
X56055248Y-54507551D01*
G75*
G02*
X55966860Y-54507551I-44194J44194D01*
G01*
G37*
G36*
G01*
X55613306Y-54153998D02*
X55524918Y-54065610D01*
G75*
G02*
X55524918Y-53977222I44194J44194D01*
G01*
X56196670Y-53305470D01*
G75*
G02*
X56285058Y-53305470I44194J-44194D01*
G01*
X56373446Y-53393858D01*
G75*
G02*
X56373446Y-53482246I-44194J-44194D01*
G01*
X55701694Y-54153998D01*
G75*
G02*
X55613306Y-54153998I-44194J44194D01*
G01*
G37*
G36*
G01*
X55259753Y-53800444D02*
X55171365Y-53712056D01*
G75*
G02*
X55171365Y-53623668I44194J44194D01*
G01*
X55843117Y-52951916D01*
G75*
G02*
X55931505Y-52951916I44194J-44194D01*
G01*
X56019893Y-53040304D01*
G75*
G02*
X56019893Y-53128692I-44194J-44194D01*
G01*
X55348141Y-53800444D01*
G75*
G02*
X55259753Y-53800444I-44194J44194D01*
G01*
G37*
G36*
G01*
X54906200Y-53446891D02*
X54817812Y-53358503D01*
G75*
G02*
X54817812Y-53270115I44194J44194D01*
G01*
X55489564Y-52598363D01*
G75*
G02*
X55577952Y-52598363I44194J-44194D01*
G01*
X55666340Y-52686751D01*
G75*
G02*
X55666340Y-52775139I-44194J-44194D01*
G01*
X54994588Y-53446891D01*
G75*
G02*
X54906200Y-53446891I-44194J44194D01*
G01*
G37*
G36*
G01*
X54552646Y-53093338D02*
X54464258Y-53004950D01*
G75*
G02*
X54464258Y-52916562I44194J44194D01*
G01*
X55136010Y-52244810D01*
G75*
G02*
X55224398Y-52244810I44194J-44194D01*
G01*
X55312786Y-52333198D01*
G75*
G02*
X55312786Y-52421586I-44194J-44194D01*
G01*
X54641034Y-53093338D01*
G75*
G02*
X54552646Y-53093338I-44194J44194D01*
G01*
G37*
G36*
G01*
X54199093Y-52739784D02*
X54110705Y-52651396D01*
G75*
G02*
X54110705Y-52563008I44194J44194D01*
G01*
X54782457Y-51891256D01*
G75*
G02*
X54870845Y-51891256I44194J-44194D01*
G01*
X54959233Y-51979644D01*
G75*
G02*
X54959233Y-52068032I-44194J-44194D01*
G01*
X54287481Y-52739784D01*
G75*
G02*
X54199093Y-52739784I-44194J44194D01*
G01*
G37*
G36*
G01*
X53845539Y-52386231D02*
X53757151Y-52297843D01*
G75*
G02*
X53757151Y-52209455I44194J44194D01*
G01*
X54428903Y-51537703D01*
G75*
G02*
X54517291Y-51537703I44194J-44194D01*
G01*
X54605679Y-51626091D01*
G75*
G02*
X54605679Y-51714479I-44194J-44194D01*
G01*
X53933927Y-52386231D01*
G75*
G02*
X53845539Y-52386231I-44194J44194D01*
G01*
G37*
G36*
G01*
X53491986Y-52032677D02*
X53403598Y-51944289D01*
G75*
G02*
X53403598Y-51855901I44194J44194D01*
G01*
X54075350Y-51184149D01*
G75*
G02*
X54163738Y-51184149I44194J-44194D01*
G01*
X54252126Y-51272537D01*
G75*
G02*
X54252126Y-51360925I-44194J-44194D01*
G01*
X53580374Y-52032677D01*
G75*
G02*
X53491986Y-52032677I-44194J44194D01*
G01*
G37*
G36*
G01*
X53138433Y-51679124D02*
X53050045Y-51590736D01*
G75*
G02*
X53050045Y-51502348I44194J44194D01*
G01*
X53721797Y-50830596D01*
G75*
G02*
X53810185Y-50830596I44194J-44194D01*
G01*
X53898573Y-50918984D01*
G75*
G02*
X53898573Y-51007372I-44194J-44194D01*
G01*
X53226821Y-51679124D01*
G75*
G02*
X53138433Y-51679124I-44194J44194D01*
G01*
G37*
G36*
G01*
X52784879Y-51325571D02*
X52696491Y-51237183D01*
G75*
G02*
X52696491Y-51148795I44194J44194D01*
G01*
X53368243Y-50477043D01*
G75*
G02*
X53456631Y-50477043I44194J-44194D01*
G01*
X53545019Y-50565431D01*
G75*
G02*
X53545019Y-50653819I-44194J-44194D01*
G01*
X52873267Y-51325571D01*
G75*
G02*
X52784879Y-51325571I-44194J44194D01*
G01*
G37*
G36*
G01*
X52431326Y-50972017D02*
X52342938Y-50883629D01*
G75*
G02*
X52342938Y-50795241I44194J44194D01*
G01*
X53014690Y-50123489D01*
G75*
G02*
X53103078Y-50123489I44194J-44194D01*
G01*
X53191466Y-50211877D01*
G75*
G02*
X53191466Y-50300265I-44194J-44194D01*
G01*
X52519714Y-50972017D01*
G75*
G02*
X52431326Y-50972017I-44194J44194D01*
G01*
G37*
G36*
G01*
X51830286Y-50972017D02*
X51158534Y-50300265D01*
G75*
G02*
X51158534Y-50211877I44194J44194D01*
G01*
X51246922Y-50123489D01*
G75*
G02*
X51335310Y-50123489I44194J-44194D01*
G01*
X52007062Y-50795241D01*
G75*
G02*
X52007062Y-50883629I-44194J-44194D01*
G01*
X51918674Y-50972017D01*
G75*
G02*
X51830286Y-50972017I-44194J44194D01*
G01*
G37*
G36*
G01*
X51476733Y-51325571D02*
X50804981Y-50653819D01*
G75*
G02*
X50804981Y-50565431I44194J44194D01*
G01*
X50893369Y-50477043D01*
G75*
G02*
X50981757Y-50477043I44194J-44194D01*
G01*
X51653509Y-51148795D01*
G75*
G02*
X51653509Y-51237183I-44194J-44194D01*
G01*
X51565121Y-51325571D01*
G75*
G02*
X51476733Y-51325571I-44194J44194D01*
G01*
G37*
G36*
G01*
X51123179Y-51679124D02*
X50451427Y-51007372D01*
G75*
G02*
X50451427Y-50918984I44194J44194D01*
G01*
X50539815Y-50830596D01*
G75*
G02*
X50628203Y-50830596I44194J-44194D01*
G01*
X51299955Y-51502348D01*
G75*
G02*
X51299955Y-51590736I-44194J-44194D01*
G01*
X51211567Y-51679124D01*
G75*
G02*
X51123179Y-51679124I-44194J44194D01*
G01*
G37*
G36*
G01*
X50769626Y-52032677D02*
X50097874Y-51360925D01*
G75*
G02*
X50097874Y-51272537I44194J44194D01*
G01*
X50186262Y-51184149D01*
G75*
G02*
X50274650Y-51184149I44194J-44194D01*
G01*
X50946402Y-51855901D01*
G75*
G02*
X50946402Y-51944289I-44194J-44194D01*
G01*
X50858014Y-52032677D01*
G75*
G02*
X50769626Y-52032677I-44194J44194D01*
G01*
G37*
G36*
G01*
X50416073Y-52386231D02*
X49744321Y-51714479D01*
G75*
G02*
X49744321Y-51626091I44194J44194D01*
G01*
X49832709Y-51537703D01*
G75*
G02*
X49921097Y-51537703I44194J-44194D01*
G01*
X50592849Y-52209455D01*
G75*
G02*
X50592849Y-52297843I-44194J-44194D01*
G01*
X50504461Y-52386231D01*
G75*
G02*
X50416073Y-52386231I-44194J44194D01*
G01*
G37*
G36*
G01*
X50062519Y-52739784D02*
X49390767Y-52068032D01*
G75*
G02*
X49390767Y-51979644I44194J44194D01*
G01*
X49479155Y-51891256D01*
G75*
G02*
X49567543Y-51891256I44194J-44194D01*
G01*
X50239295Y-52563008D01*
G75*
G02*
X50239295Y-52651396I-44194J-44194D01*
G01*
X50150907Y-52739784D01*
G75*
G02*
X50062519Y-52739784I-44194J44194D01*
G01*
G37*
G36*
G01*
X49708966Y-53093338D02*
X49037214Y-52421586D01*
G75*
G02*
X49037214Y-52333198I44194J44194D01*
G01*
X49125602Y-52244810D01*
G75*
G02*
X49213990Y-52244810I44194J-44194D01*
G01*
X49885742Y-52916562D01*
G75*
G02*
X49885742Y-53004950I-44194J-44194D01*
G01*
X49797354Y-53093338D01*
G75*
G02*
X49708966Y-53093338I-44194J44194D01*
G01*
G37*
G36*
G01*
X49355412Y-53446891D02*
X48683660Y-52775139D01*
G75*
G02*
X48683660Y-52686751I44194J44194D01*
G01*
X48772048Y-52598363D01*
G75*
G02*
X48860436Y-52598363I44194J-44194D01*
G01*
X49532188Y-53270115D01*
G75*
G02*
X49532188Y-53358503I-44194J-44194D01*
G01*
X49443800Y-53446891D01*
G75*
G02*
X49355412Y-53446891I-44194J44194D01*
G01*
G37*
G36*
G01*
X49001859Y-53800444D02*
X48330107Y-53128692D01*
G75*
G02*
X48330107Y-53040304I44194J44194D01*
G01*
X48418495Y-52951916D01*
G75*
G02*
X48506883Y-52951916I44194J-44194D01*
G01*
X49178635Y-53623668D01*
G75*
G02*
X49178635Y-53712056I-44194J-44194D01*
G01*
X49090247Y-53800444D01*
G75*
G02*
X49001859Y-53800444I-44194J44194D01*
G01*
G37*
G36*
G01*
X48648306Y-54153998D02*
X47976554Y-53482246D01*
G75*
G02*
X47976554Y-53393858I44194J44194D01*
G01*
X48064942Y-53305470D01*
G75*
G02*
X48153330Y-53305470I44194J-44194D01*
G01*
X48825082Y-53977222D01*
G75*
G02*
X48825082Y-54065610I-44194J-44194D01*
G01*
X48736694Y-54153998D01*
G75*
G02*
X48648306Y-54153998I-44194J44194D01*
G01*
G37*
G36*
G01*
X48294752Y-54507551D02*
X47623000Y-53835799D01*
G75*
G02*
X47623000Y-53747411I44194J44194D01*
G01*
X47711388Y-53659023D01*
G75*
G02*
X47799776Y-53659023I44194J-44194D01*
G01*
X48471528Y-54330775D01*
G75*
G02*
X48471528Y-54419163I-44194J-44194D01*
G01*
X48383140Y-54507551D01*
G75*
G02*
X48294752Y-54507551I-44194J44194D01*
G01*
G37*
G36*
G01*
X47711388Y-55691955D02*
X47623000Y-55603567D01*
G75*
G02*
X47623000Y-55515179I44194J44194D01*
G01*
X48294752Y-54843427D01*
G75*
G02*
X48383140Y-54843427I44194J-44194D01*
G01*
X48471528Y-54931815D01*
G75*
G02*
X48471528Y-55020203I-44194J-44194D01*
G01*
X47799776Y-55691955D01*
G75*
G02*
X47711388Y-55691955I-44194J44194D01*
G01*
G37*
G36*
G01*
X48064942Y-56045508D02*
X47976554Y-55957120D01*
G75*
G02*
X47976554Y-55868732I44194J44194D01*
G01*
X48648306Y-55196980D01*
G75*
G02*
X48736694Y-55196980I44194J-44194D01*
G01*
X48825082Y-55285368D01*
G75*
G02*
X48825082Y-55373756I-44194J-44194D01*
G01*
X48153330Y-56045508D01*
G75*
G02*
X48064942Y-56045508I-44194J44194D01*
G01*
G37*
G36*
G01*
X48418495Y-56399062D02*
X48330107Y-56310674D01*
G75*
G02*
X48330107Y-56222286I44194J44194D01*
G01*
X49001859Y-55550534D01*
G75*
G02*
X49090247Y-55550534I44194J-44194D01*
G01*
X49178635Y-55638922D01*
G75*
G02*
X49178635Y-55727310I-44194J-44194D01*
G01*
X48506883Y-56399062D01*
G75*
G02*
X48418495Y-56399062I-44194J44194D01*
G01*
G37*
G36*
G01*
X48772048Y-56752615D02*
X48683660Y-56664227D01*
G75*
G02*
X48683660Y-56575839I44194J44194D01*
G01*
X49355412Y-55904087D01*
G75*
G02*
X49443800Y-55904087I44194J-44194D01*
G01*
X49532188Y-55992475D01*
G75*
G02*
X49532188Y-56080863I-44194J-44194D01*
G01*
X48860436Y-56752615D01*
G75*
G02*
X48772048Y-56752615I-44194J44194D01*
G01*
G37*
G36*
G01*
X49125602Y-57106168D02*
X49037214Y-57017780D01*
G75*
G02*
X49037214Y-56929392I44194J44194D01*
G01*
X49708966Y-56257640D01*
G75*
G02*
X49797354Y-56257640I44194J-44194D01*
G01*
X49885742Y-56346028D01*
G75*
G02*
X49885742Y-56434416I-44194J-44194D01*
G01*
X49213990Y-57106168D01*
G75*
G02*
X49125602Y-57106168I-44194J44194D01*
G01*
G37*
G36*
G01*
X49479155Y-57459722D02*
X49390767Y-57371334D01*
G75*
G02*
X49390767Y-57282946I44194J44194D01*
G01*
X50062519Y-56611194D01*
G75*
G02*
X50150907Y-56611194I44194J-44194D01*
G01*
X50239295Y-56699582D01*
G75*
G02*
X50239295Y-56787970I-44194J-44194D01*
G01*
X49567543Y-57459722D01*
G75*
G02*
X49479155Y-57459722I-44194J44194D01*
G01*
G37*
G36*
G01*
X49832709Y-57813275D02*
X49744321Y-57724887D01*
G75*
G02*
X49744321Y-57636499I44194J44194D01*
G01*
X50416073Y-56964747D01*
G75*
G02*
X50504461Y-56964747I44194J-44194D01*
G01*
X50592849Y-57053135D01*
G75*
G02*
X50592849Y-57141523I-44194J-44194D01*
G01*
X49921097Y-57813275D01*
G75*
G02*
X49832709Y-57813275I-44194J44194D01*
G01*
G37*
G36*
G01*
X50186262Y-58166829D02*
X50097874Y-58078441D01*
G75*
G02*
X50097874Y-57990053I44194J44194D01*
G01*
X50769626Y-57318301D01*
G75*
G02*
X50858014Y-57318301I44194J-44194D01*
G01*
X50946402Y-57406689D01*
G75*
G02*
X50946402Y-57495077I-44194J-44194D01*
G01*
X50274650Y-58166829D01*
G75*
G02*
X50186262Y-58166829I-44194J44194D01*
G01*
G37*
G36*
G01*
X50539815Y-58520382D02*
X50451427Y-58431994D01*
G75*
G02*
X50451427Y-58343606I44194J44194D01*
G01*
X51123179Y-57671854D01*
G75*
G02*
X51211567Y-57671854I44194J-44194D01*
G01*
X51299955Y-57760242D01*
G75*
G02*
X51299955Y-57848630I-44194J-44194D01*
G01*
X50628203Y-58520382D01*
G75*
G02*
X50539815Y-58520382I-44194J44194D01*
G01*
G37*
G36*
G01*
X50893369Y-58873935D02*
X50804981Y-58785547D01*
G75*
G02*
X50804981Y-58697159I44194J44194D01*
G01*
X51476733Y-58025407D01*
G75*
G02*
X51565121Y-58025407I44194J-44194D01*
G01*
X51653509Y-58113795D01*
G75*
G02*
X51653509Y-58202183I-44194J-44194D01*
G01*
X50981757Y-58873935D01*
G75*
G02*
X50893369Y-58873935I-44194J44194D01*
G01*
G37*
G36*
G01*
X51246922Y-59227489D02*
X51158534Y-59139101D01*
G75*
G02*
X51158534Y-59050713I44194J44194D01*
G01*
X51830286Y-58378961D01*
G75*
G02*
X51918674Y-58378961I44194J-44194D01*
G01*
X52007062Y-58467349D01*
G75*
G02*
X52007062Y-58555737I-44194J-44194D01*
G01*
X51335310Y-59227489D01*
G75*
G02*
X51246922Y-59227489I-44194J44194D01*
G01*
G37*
G36*
G01*
X59568934Y-53261275D02*
X59180025Y-53650184D01*
G75*
G02*
X58897183Y-53650184I-141421J141421D01*
G01*
X58614340Y-53367341D01*
G75*
G02*
X58614340Y-53084499I141421J141421D01*
G01*
X59003249Y-52695590D01*
G75*
G02*
X59286091Y-52695590I141421J-141421D01*
G01*
X59568934Y-52978433D01*
G75*
G02*
X59568934Y-53261275I-141421J-141421D01*
G01*
G37*
G36*
G01*
X60735660Y-54428001D02*
X60346751Y-54816910D01*
G75*
G02*
X60063909Y-54816910I-141421J141421D01*
G01*
X59781066Y-54534067D01*
G75*
G02*
X59781066Y-54251225I141421J141421D01*
G01*
X60169975Y-53862316D01*
G75*
G02*
X60452817Y-53862316I141421J-141421D01*
G01*
X60735660Y-54145159D01*
G75*
G02*
X60735660Y-54428001I-141421J-141421D01*
G01*
G37*
G36*
G01*
X43750000Y-56381250D02*
X43750000Y-56931250D01*
G75*
G02*
X43550000Y-57131250I-200000J0D01*
G01*
X43150000Y-57131250D01*
G75*
G02*
X42950000Y-56931250I0J200000D01*
G01*
X42950000Y-56381250D01*
G75*
G02*
X43150000Y-56181250I200000J0D01*
G01*
X43550000Y-56181250D01*
G75*
G02*
X43750000Y-56381250I0J-200000D01*
G01*
G37*
G36*
G01*
X45400000Y-56381250D02*
X45400000Y-56931250D01*
G75*
G02*
X45200000Y-57131250I-200000J0D01*
G01*
X44800000Y-57131250D01*
G75*
G02*
X44600000Y-56931250I0J200000D01*
G01*
X44600000Y-56381250D01*
G75*
G02*
X44800000Y-56181250I200000J0D01*
G01*
X45200000Y-56181250D01*
G75*
G02*
X45400000Y-56381250I0J-200000D01*
G01*
G37*
G36*
G01*
X38246680Y-42139164D02*
X37857771Y-41750255D01*
G75*
G02*
X37857771Y-41467413I141421J141421D01*
G01*
X38140614Y-41184570D01*
G75*
G02*
X38423456Y-41184570I141421J-141421D01*
G01*
X38812365Y-41573479D01*
G75*
G02*
X38812365Y-41856321I-141421J-141421D01*
G01*
X38529522Y-42139164D01*
G75*
G02*
X38246680Y-42139164I-141421J141421D01*
G01*
G37*
G36*
G01*
X37079954Y-43305890D02*
X36691045Y-42916981D01*
G75*
G02*
X36691045Y-42634139I141421J141421D01*
G01*
X36973888Y-42351296D01*
G75*
G02*
X37256730Y-42351296I141421J-141421D01*
G01*
X37645639Y-42740205D01*
G75*
G02*
X37645639Y-43023047I-141421J-141421D01*
G01*
X37362796Y-43305890D01*
G75*
G02*
X37079954Y-43305890I-141421J141421D01*
G01*
G37*
G36*
G01*
X39943737Y-43836220D02*
X39554828Y-43447311D01*
G75*
G02*
X39554828Y-43164469I141421J141421D01*
G01*
X39837671Y-42881626D01*
G75*
G02*
X40120513Y-42881626I141421J-141421D01*
G01*
X40509422Y-43270535D01*
G75*
G02*
X40509422Y-43553377I-141421J-141421D01*
G01*
X40226579Y-43836220D01*
G75*
G02*
X39943737Y-43836220I-141421J141421D01*
G01*
G37*
G36*
G01*
X38777011Y-45002946D02*
X38388102Y-44614037D01*
G75*
G02*
X38388102Y-44331195I141421J141421D01*
G01*
X38670945Y-44048352D01*
G75*
G02*
X38953787Y-44048352I141421J-141421D01*
G01*
X39342696Y-44437261D01*
G75*
G02*
X39342696Y-44720103I-141421J-141421D01*
G01*
X39059853Y-45002946D01*
G75*
G02*
X38777011Y-45002946I-141421J141421D01*
G01*
G37*
G36*
G01*
X45350000Y-58006250D02*
X45350000Y-58506250D01*
G75*
G02*
X45125000Y-58731250I-225000J0D01*
G01*
X44675000Y-58731250D01*
G75*
G02*
X44450000Y-58506250I0J225000D01*
G01*
X44450000Y-58006250D01*
G75*
G02*
X44675000Y-57781250I225000J0D01*
G01*
X45125000Y-57781250D01*
G75*
G02*
X45350000Y-58006250I0J-225000D01*
G01*
G37*
G36*
G01*
X46900000Y-58006250D02*
X46900000Y-58506250D01*
G75*
G02*
X46675000Y-58731250I-225000J0D01*
G01*
X46225000Y-58731250D01*
G75*
G02*
X46000000Y-58506250I0J225000D01*
G01*
X46000000Y-58006250D01*
G75*
G02*
X46225000Y-57781250I225000J0D01*
G01*
X46675000Y-57781250D01*
G75*
G02*
X46900000Y-58006250I0J-225000D01*
G01*
G37*
G36*
G01*
X44028033Y-51762837D02*
X44381587Y-51409283D01*
G75*
G02*
X44699785Y-51409283I159099J-159099D01*
G01*
X45017983Y-51727481D01*
G75*
G02*
X45017983Y-52045679I-159099J-159099D01*
G01*
X44664429Y-52399233D01*
G75*
G02*
X44346231Y-52399233I-159099J159099D01*
G01*
X44028033Y-52081035D01*
G75*
G02*
X44028033Y-51762837I159099J159099D01*
G01*
G37*
G36*
G01*
X42932017Y-50666821D02*
X43285571Y-50313267D01*
G75*
G02*
X43603769Y-50313267I159099J-159099D01*
G01*
X43921967Y-50631465D01*
G75*
G02*
X43921967Y-50949663I-159099J-159099D01*
G01*
X43568413Y-51303217D01*
G75*
G02*
X43250215Y-51303217I-159099J159099D01*
G01*
X42932017Y-50985019D01*
G75*
G02*
X42932017Y-50666821I159099J159099D01*
G01*
G37*
G36*
G01*
X48021967Y-46799663D02*
X47668413Y-47153217D01*
G75*
G02*
X47350215Y-47153217I-159099J159099D01*
G01*
X47032017Y-46835019D01*
G75*
G02*
X47032017Y-46516821I159099J159099D01*
G01*
X47385571Y-46163267D01*
G75*
G02*
X47703769Y-46163267I159099J-159099D01*
G01*
X48021967Y-46481465D01*
G75*
G02*
X48021967Y-46799663I-159099J-159099D01*
G01*
G37*
G36*
G01*
X49117983Y-47895679D02*
X48764429Y-48249233D01*
G75*
G02*
X48446231Y-48249233I-159099J159099D01*
G01*
X48128033Y-47931035D01*
G75*
G02*
X48128033Y-47612837I159099J159099D01*
G01*
X48481587Y-47259283D01*
G75*
G02*
X48799785Y-47259283I159099J-159099D01*
G01*
X49117983Y-47577481D01*
G75*
G02*
X49117983Y-47895679I-159099J-159099D01*
G01*
G37*
G36*
G01*
X54381587Y-61053217D02*
X54028033Y-60699663D01*
G75*
G02*
X54028033Y-60381465I159099J159099D01*
G01*
X54346231Y-60063267D01*
G75*
G02*
X54664429Y-60063267I159099J-159099D01*
G01*
X55017983Y-60416821D01*
G75*
G02*
X55017983Y-60735019I-159099J-159099D01*
G01*
X54699785Y-61053217D01*
G75*
G02*
X54381587Y-61053217I-159099J159099D01*
G01*
G37*
G36*
G01*
X53285571Y-62149233D02*
X52932017Y-61795679D01*
G75*
G02*
X52932017Y-61477481I159099J159099D01*
G01*
X53250215Y-61159283D01*
G75*
G02*
X53568413Y-61159283I159099J-159099D01*
G01*
X53921967Y-61512837D01*
G75*
G02*
X53921967Y-61831035I-159099J-159099D01*
G01*
X53603769Y-62149233D01*
G75*
G02*
X53285571Y-62149233I-159099J159099D01*
G01*
G37*
G36*
G01*
X54717983Y-49445679D02*
X54364429Y-49799233D01*
G75*
G02*
X54046231Y-49799233I-159099J159099D01*
G01*
X53728033Y-49481035D01*
G75*
G02*
X53728033Y-49162837I159099J159099D01*
G01*
X54081587Y-48809283D01*
G75*
G02*
X54399785Y-48809283I159099J-159099D01*
G01*
X54717983Y-49127481D01*
G75*
G02*
X54717983Y-49445679I-159099J-159099D01*
G01*
G37*
G36*
G01*
X53621967Y-48349663D02*
X53268413Y-48703217D01*
G75*
G02*
X52950215Y-48703217I-159099J159099D01*
G01*
X52632017Y-48385019D01*
G75*
G02*
X52632017Y-48066821I159099J159099D01*
G01*
X52985571Y-47713267D01*
G75*
G02*
X53303769Y-47713267I159099J-159099D01*
G01*
X53621967Y-48031465D01*
G75*
G02*
X53621967Y-48349663I-159099J-159099D01*
G01*
G37*
G36*
G01*
X43850000Y-54506250D02*
X43850000Y-55006250D01*
G75*
G02*
X43625000Y-55231250I-225000J0D01*
G01*
X43175000Y-55231250D01*
G75*
G02*
X42950000Y-55006250I0J225000D01*
G01*
X42950000Y-54506250D01*
G75*
G02*
X43175000Y-54281250I225000J0D01*
G01*
X43625000Y-54281250D01*
G75*
G02*
X43850000Y-54506250I0J-225000D01*
G01*
G37*
G36*
G01*
X45400000Y-54506250D02*
X45400000Y-55006250D01*
G75*
G02*
X45175000Y-55231250I-225000J0D01*
G01*
X44725000Y-55231250D01*
G75*
G02*
X44500000Y-55006250I0J225000D01*
G01*
X44500000Y-54506250D01*
G75*
G02*
X44725000Y-54281250I225000J0D01*
G01*
X45175000Y-54281250D01*
G75*
G02*
X45400000Y-54506250I0J-225000D01*
G01*
G37*
G36*
G01*
X57983413Y-55883033D02*
X58336967Y-56236587D01*
G75*
G02*
X58336967Y-56554785I-159099J-159099D01*
G01*
X58018769Y-56872983D01*
G75*
G02*
X57700571Y-56872983I-159099J159099D01*
G01*
X57347017Y-56519429D01*
G75*
G02*
X57347017Y-56201231I159099J159099D01*
G01*
X57665215Y-55883033D01*
G75*
G02*
X57983413Y-55883033I159099J-159099D01*
G01*
G37*
G36*
G01*
X59079429Y-54787017D02*
X59432983Y-55140571D01*
G75*
G02*
X59432983Y-55458769I-159099J-159099D01*
G01*
X59114785Y-55776967D01*
G75*
G02*
X58796587Y-55776967I-159099J159099D01*
G01*
X58443033Y-55423413D01*
G75*
G02*
X58443033Y-55105215I159099J159099D01*
G01*
X58761231Y-54787017D01*
G75*
G02*
X59079429Y-54787017I159099J-159099D01*
G01*
G37*
D15*
X145256250Y-139762500D03*
X145256250Y-136462500D03*
X128587500Y-141225000D03*
X128587500Y-144525000D03*
X111918750Y-139762500D03*
X111918750Y-136462500D03*
X83343750Y-139762500D03*
X83343750Y-136462500D03*
X45243750Y-140493750D03*
X45243750Y-137193750D03*
X145256250Y-120712500D03*
X145256250Y-117412500D03*
X111918750Y-120712500D03*
X111918750Y-117412500D03*
X92868750Y-120712500D03*
X92868750Y-117412500D03*
X73818750Y-120712500D03*
X73818750Y-117412500D03*
X45243750Y-120712500D03*
X45243750Y-117412500D03*
X145256250Y-101662500D03*
X145256250Y-98362500D03*
X128587500Y-103125000D03*
X128587500Y-106425000D03*
X111918750Y-101662500D03*
X111918750Y-98362500D03*
X92868750Y-101662500D03*
X92868750Y-98362500D03*
X73818750Y-101662500D03*
X73818750Y-98362500D03*
X45243750Y-101662500D03*
X45243750Y-98362500D03*
X145256250Y-82612500D03*
X145256250Y-79312500D03*
X111918750Y-82612500D03*
X111918750Y-79312500D03*
X92718750Y-82612500D03*
X92718750Y-79312500D03*
X73818750Y-82612500D03*
X73818750Y-79312500D03*
X45243750Y-82612500D03*
X45243750Y-79312500D03*
X145256250Y-63562500D03*
X145256250Y-60262500D03*
X130968750Y-63562500D03*
X130968750Y-60262500D03*
X111918750Y-63562500D03*
X111918750Y-60262500D03*
X92868750Y-63562500D03*
X92868750Y-60262500D03*
X73818750Y-63562500D03*
X73818750Y-60262500D03*
X45243750Y-62643750D03*
X45243750Y-65943750D03*
X130968750Y-34987500D03*
X130968750Y-31687500D03*
X111918750Y-34987500D03*
X111918750Y-31687500D03*
X92868750Y-34987500D03*
X92868750Y-31687500D03*
X73818750Y-34987500D03*
X73818750Y-31687500D03*
M02*
