M48
; DRILL file {KiCad (5.1.8)-1} date 01/10/21 14:28:18
; FORMAT={3:3/ absolute / metric / suppress leading zeros}
; #@! TF.CreationDate,2021-01-10T14:28:18+02:00
; #@! TF.GenerationSoftware,Kicad,Pcbnew,(5.1.8)-1
FMAT,2
METRIC,TZ
T1C0.400
T2C0.600
T3C0.650
T4C1.000
T5C1.100
T6C1.470
T7C2.600
T8C4.300
T9C0.600
T10C0.630
T11C1.750
T12C3.048
T13C3.988
%
G90
G05
T1
X29194Y-44025
X32750Y-51750
X34700Y-53700
X38957Y-39484
X39399Y-42295
X39824Y-38618
X41475Y-36606
X42275Y-54756
X42375Y-56656
X42725Y-42356
X42725Y-44606
X43875Y-58256
X45575Y-44156
X45975Y-54756
X47175Y-45756
X48075Y-59056
X48130Y-29500
X48272Y-57531
X48640Y-31200
X49525Y-61050
X49875Y-54756
X50650Y-62125
X51175Y-53506
X51175Y-55756
X52075Y-54756
X52175Y-52256
X52275Y-57006
X53425Y-53506
X53425Y-55756
X53425Y-63140
X53815Y-47596
X54425Y-54506
X54820Y-30300
X54975Y-48556
X55350Y-61375
X55430Y-29440
X56500Y-60500
X58000Y-60500
X58880Y-56940
X59375Y-60500
X59790Y-56130
X61000Y-56500
X61000Y-58000
X61000Y-59500
X61175Y-55256
X140675Y-36256
X140675Y-44756
X142945Y-40486
X144175Y-32256
X144175Y-48756
T2
X21825Y-158310
X22770Y-156030
X22770Y-160590
X25050Y-155085
X25050Y-161535
X27330Y-156030
X27330Y-160590
X28275Y-158310
X162215Y-27440
X163160Y-25160
X163160Y-29720
X165440Y-24215
X165440Y-30665
X167720Y-25160
X167720Y-29720
X168665Y-27440
X162215Y-158310
X163160Y-156030
X163160Y-160590
X165440Y-155085
X165440Y-161535
X167720Y-156030
X167720Y-160590
X168665Y-158310
X21825Y-27440
X22770Y-25160
X22770Y-29720
X25050Y-24215
X25050Y-30665
X27330Y-25160
X27330Y-29720
X28275Y-27440
T4
X144895Y-37986
X144895Y-40486
X144895Y-42986
X159395Y-37986
X159395Y-42986
T5
X28244Y-40575
X28244Y-47075
X32744Y-40575
X32744Y-47075
T6
X34290Y-104616
X40640Y-102076
X62865Y-104616
X69215Y-102076
X100965Y-123666
X107315Y-121126
X34290Y-123666
X40640Y-121126
X100965Y-104616
X107315Y-102076
X81915Y-66516
X88265Y-63976
X100965Y-66516
X107315Y-63976
X34290Y-142716
X40640Y-140176
X126365Y-93821
X128905Y-100171
X81915Y-104616
X88265Y-102076
X81915Y-85566
X88265Y-83026
X81915Y-37941
X88265Y-35401
X81915Y-123666
X88265Y-121126
X148590Y-123666
X154940Y-121126
X62865Y-37941
X69215Y-35401
X148590Y-85566
X154940Y-83026
X120015Y-66516
X126365Y-63976
X120015Y-37941
X126365Y-35401
X100965Y-142716
X107315Y-140176
X126365Y-131921
X128905Y-138271
X100965Y-85566
X107315Y-83026
X148590Y-142716
X154940Y-140176
X100965Y-37941
X107315Y-35401
X62865Y-85566
X69215Y-83026
X34290Y-66516
X40640Y-63976
X62865Y-123666
X69215Y-121126
X72390Y-142716
X78740Y-140176
X34290Y-85566
X40640Y-83026
X62865Y-66516
X69215Y-63976
X148590Y-66516
X154940Y-63976
X148590Y-104616
X154940Y-102076
T7
X152395Y-34886
X152395Y-46086
T8
X25050Y-158310
X165440Y-27440
X165440Y-158310
X25050Y-27440
T9
X54810Y-26680
T10
X48810Y-26680
X54810Y-26680
T11
X33020Y-88106
X43180Y-88106
X61595Y-69056
X71755Y-69056
X147320Y-69056
X157480Y-69056
X147320Y-107156
X157480Y-107156
X33020Y-107156
X43180Y-107156
X61595Y-107156
X71755Y-107156
X99695Y-126206
X109855Y-126206
X33020Y-126206
X43180Y-126206
X99695Y-107156
X109855Y-107156
X80645Y-69056
X90805Y-69056
X99695Y-69056
X109855Y-69056
X33020Y-145256
X43180Y-145256
X123825Y-92551
X123825Y-102711
X80645Y-107156
X90805Y-107156
X80645Y-88106
X90805Y-88106
X80645Y-40481
X90805Y-40481
X80645Y-126206
X90805Y-126206
X147320Y-126206
X157480Y-126206
X61595Y-40481
X71755Y-40481
X147320Y-88106
X157480Y-88106
X118745Y-69056
X128905Y-69056
X118745Y-40481
X128905Y-40481
X99695Y-145256
X109855Y-145256
X123825Y-130651
X123825Y-140811
X99695Y-88106
X109855Y-88106
X147320Y-145256
X157480Y-145256
X99695Y-40481
X109855Y-40481
X61595Y-88106
X71755Y-88106
X33020Y-69056
X43180Y-69056
X61595Y-126206
X71755Y-126206
X71120Y-145256
X81280Y-145256
T12
X130810Y-123825
X64294Y-138271
X130810Y-85725
X130810Y-109538
X130810Y-147638
X88106Y-138271
T13
X85725Y-107156
X85725Y-88106
X85725Y-40481
X85725Y-126206
X152400Y-126206
X66675Y-40481
X152400Y-88106
X123825Y-69056
X123825Y-40481
X104775Y-145256
X115570Y-123825
X115570Y-147638
X123825Y-135731
X104775Y-88106
X152400Y-145256
X104775Y-40481
X66675Y-88106
X38100Y-69056
X66675Y-126206
X64294Y-153511
X76200Y-145256
X88106Y-153511
X38100Y-88106
X66675Y-69056
X152400Y-69056
X152400Y-107156
X38100Y-107156
X66675Y-107156
X104775Y-126206
X38100Y-126206
X104775Y-107156
X85725Y-69056
X104775Y-69056
X38100Y-145256
X115570Y-85725
X115570Y-109538
X123825Y-97631
T3
G00X47490Y-22930
M15
G01X47490Y-24230
M16
G05
G00X47490Y-26905
M15
G01X47490Y-27905
M16
G05
G00X56130Y-22930
M15
G01X56130Y-24230
M16
G05
G00X56130Y-26905
M15
G01X56130Y-27905
M16
G05
T0
M30
