  0
SECTION
  2
HEADER
  9
$ACADVER
  1
AC1009
  9
$EXTMIN
 10
0.0
 20
0.0
 30
0.0
  9
$EXTMAX
 10
1000.0
 20
1000.0
 30
0.0
  9
$FILLMODE
 70
 0
  9
$SPLFRAME
 70
 1
  0
ENDSEC
  0
SECTION
  2
TABLES
  0
TABLE
  2
LAYER
 70
1
  0
LAYER
  2
0
 70
     0
 62
     7
  6
CONTINUOUS
  0
ENDTAB
  0
ENDSEC
  0
SECTION
  2
ENTITIES
  0
LINE
  8
0
 62
     0
 10
151.095
 20
148.424
 30
0.0
 11
151.565
 21
148.407
 31
0.0
  0
LINE
  8
0
 62
     0
 10
151.565
 20
148.407
 30
0.0
 11
152.032
 21
148.351
 31
0.0
  0
LINE
  8
0
 62
     0
 10
152.032
 20
148.351
 30
0.0
 11
152.495
 21
148.259
 31
0.0
  0
LINE
  8
0
 62
     0
 10
152.495
 20
148.259
 30
0.0
 11
152.949
 21
148.131
 31
0.0
  0
LINE
  8
0
 62
     0
 10
152.949
 20
148.131
 30
0.0
 11
153.391
 21
147.968
 31
0.0
  0
LINE
  8
0
 62
     0
 10
153.391
 20
147.968
 30
0.0
 11
153.818
 21
147.771
 31
0.0
  0
LINE
  8
0
 62
     0
 10
153.818
 20
147.771
 30
0.0
 11
154.229
 21
147.54
 31
0.0
  0
LINE
  8
0
 62
     0
 10
154.229
 20
147.54
 30
0.0
 11
154.62
 21
147.279
 31
0.0
  0
LINE
  8
0
 62
     0
 10
154.62
 20
147.279
 30
0.0
 11
154.991
 21
146.987
 31
0.0
  0
LINE
  8
0
 62
     0
 10
154.991
 20
146.987
 30
0.0
 11
155.337
 21
146.667
 31
0.0
  0
LINE
  8
0
 62
     0
 10
155.337
 20
146.667
 30
0.0
 11
155.656
 21
146.322
 31
0.0
  0
LINE
  8
0
 62
     0
 10
155.656
 20
146.322
 30
0.0
 11
155.949
 21
145.951
 31
0.0
  0
LINE
  8
0
 62
     0
 10
155.949
 20
145.951
 30
0.0
 11
156.209
 21
145.559
 31
0.0
  0
LINE
  8
0
 62
     0
 10
156.209
 20
145.559
 30
0.0
 11
156.44
 21
145.147
 31
0.0
  0
LINE
  8
0
 62
     0
 10
156.44
 20
145.147
 30
0.0
 11
156.638
 21
144.721
 31
0.0
  0
LINE
  8
0
 62
     0
 10
156.638
 20
144.721
 30
0.0
 11
156.8
 21
144.279
 31
0.0
  0
LINE
  8
0
 62
     0
 10
156.8
 20
144.279
 30
0.0
 11
156.928
 21
143.824
 31
0.0
  0
LINE
  8
0
 62
     0
 10
156.928
 20
143.824
 30
0.0
 11
157.021
 21
143.363
 31
0.0
  0
LINE
  8
0
 62
     0
 10
157.021
 20
143.363
 30
0.0
 11
157.076
 21
142.894
 31
0.0
  0
LINE
  8
0
 62
     0
 10
157.076
 20
142.894
 30
0.0
 11
157.095
 21
142.425
 31
0.0
  0
LINE
  8
0
 62
     0
 10
157.095
 20
142.425
 30
0.0
 11
157.095
 21
6.4244
 31
0.0
  0
LINE
  8
0
 62
     0
 10
157.095
 20
6.4244
 30
0.0
 11
157.076
 21
5.9545
 31
0.0
  0
LINE
  8
0
 62
     0
 10
157.076
 20
5.9545
 30
0.0
 11
157.021
 21
5.48735
 31
0.0
  0
LINE
  8
0
 62
     0
 10
157.021
 20
5.48735
 30
0.0
 11
156.928
 21
5.02433
 31
0.0
  0
LINE
  8
0
 62
     0
 10
156.928
 20
5.02433
 30
0.0
 11
156.8
 21
4.57094
 31
0.0
  0
LINE
  8
0
 62
     0
 10
156.8
 20
4.57094
 30
0.0
 11
156.638
 21
4.12859
 31
0.0
  0
LINE
  8
0
 62
     0
 10
156.638
 20
4.12859
 30
0.0
 11
156.44
 21
3.70141
 31
0.0
  0
LINE
  8
0
 62
     0
 10
156.44
 20
3.70141
 30
0.0
 11
156.209
 21
3.29076
 31
0.0
  0
LINE
  8
0
 62
     0
 10
156.209
 20
3.29076
 30
0.0
 11
155.949
 21
2.89939
 31
0.0
  0
LINE
  8
0
 62
     0
 10
155.949
 20
2.89939
 30
0.0
 11
155.656
 21
2.5287
 31
0.0
  0
LINE
  8
0
 62
     0
 10
155.656
 20
2.5287
 30
0.0
 11
155.337
 21
2.18281
 31
0.0
  0
LINE
  8
0
 62
     0
 10
155.337
 20
2.18281
 30
0.0
 11
154.991
 21
1.86311
 31
0.0
  0
LINE
  8
0
 62
     0
 10
154.991
 20
1.86311
 30
0.0
 11
154.62
 21
1.57097
 31
0.0
  0
LINE
  8
0
 62
     0
 10
154.62
 20
1.57097
 30
0.0
 11
154.229
 21
1.31051
 31
0.0
  0
LINE
  8
0
 62
     0
 10
154.229
 20
1.31051
 30
0.0
 11
153.818
 21
1.079
 31
0.0
  0
LINE
  8
0
 62
     0
 10
153.818
 20
1.079
 30
0.0
 11
153.391
 21
0.881944
 31
0.0
  0
LINE
  8
0
 62
     0
 10
153.391
 20
0.881944
 30
0.0
 11
152.949
 21
0.719335
 31
0.0
  0
LINE
  8
0
 62
     0
 10
152.949
 20
0.719335
 30
0.0
 11
152.495
 21
0.591178
 31
0.0
  0
LINE
  8
0
 62
     0
 10
152.495
 20
0.591178
 30
0.0
 11
152.032
 21
0.498849
 31
0.0
  0
LINE
  8
0
 62
     0
 10
152.032
 20
0.498849
 30
0.0
 11
151.565
 21
0.443727
 31
0.0
  0
LINE
  8
0
 62
     0
 10
151.565
 20
0.443727
 30
0.0
 11
151.095
 21
0.424438
 31
0.0
  0
LINE
  8
0
 62
     0
 10
151.095
 20
0.424438
 30
0.0
 11
6.09505
 21
0.424438
 31
0.0
  0
LINE
  8
0
 62
     0
 10
6.09505
 20
0.424438
 30
0.0
 11
5.62515
 21
0.443727
 31
0.0
  0
LINE
  8
0
 62
     0
 10
5.62515
 20
0.443727
 30
0.0
 11
5.15662
 21
0.498849
 31
0.0
  0
LINE
  8
0
 62
     0
 10
5.15662
 20
0.498849
 30
0.0
 11
4.69498
 21
0.591178
 31
0.0
  0
LINE
  8
0
 62
     0
 10
4.69498
 20
0.591178
 30
0.0
 11
4.24021
 21
0.719335
 31
0.0
  0
LINE
  8
0
 62
     0
 10
4.24021
 20
0.719335
 30
0.0
 11
3.79786
 21
0.881944
 31
0.0
  0
LINE
  8
0
 62
     0
 10
3.79786
 20
0.881944
 30
0.0
 11
3.37206
 21
1.079
 31
0.0
  0
LINE
  8
0
 62
     0
 10
3.37206
 20
1.079
 30
0.0
 11
2.96003
 21
1.31051
 31
0.0
  0
LINE
  8
0
 62
     0
 10
2.96003
 20
1.31051
 30
0.0
 11
2.56866
 21
1.57097
 31
0.0
  0
LINE
  8
0
 62
     0
 10
2.56866
 20
1.57097
 30
0.0
 11
2.19797
 21
1.86311
 31
0.0
  0
LINE
  8
0
 62
     0
 10
2.19797
 20
1.86311
 30
0.0
 11
1.85208
 21
2.18281
 31
0.0
  0
LINE
  8
0
 62
     0
 10
1.85208
 20
2.18281
 30
0.0
 11
1.53238
 21
2.5287
 31
0.0
  0
LINE
  8
0
 62
     0
 10
1.53238
 20
2.5287
 30
0.0
 11
1.24024
 21
2.89939
 31
0.0
  0
LINE
  8
0
 62
     0
 10
1.24024
 20
2.89939
 30
0.0
 11
0.979784
 21
3.29076
 31
0.0
  0
LINE
  8
0
 62
     0
 10
0.979784
 20
3.29076
 30
0.0
 11
0.748273
 21
3.70141
 31
0.0
  0
LINE
  8
0
 62
     0
 10
0.748273
 20
3.70141
 30
0.0
 11
0.551215
 21
4.12859
 31
0.0
  0
LINE
  8
0
 62
     0
 10
0.551215
 20
4.12859
 30
0.0
 11
0.388606
 21
4.57094
 31
0.0
  0
LINE
  8
0
 62
     0
 10
0.388606
 20
4.57094
 30
0.0
 11
0.260449
 21
5.02433
 31
0.0
  0
LINE
  8
0
 62
     0
 10
0.260449
 20
5.02433
 30
0.0
 11
0.168121
 21
5.48735
 31
0.0
  0
LINE
  8
0
 62
     0
 10
0.168121
 20
5.48735
 30
0.0
 11
0.112999
 21
5.9545
 31
0.0
  0
LINE
  8
0
 62
     0
 10
0.112999
 20
5.9545
 30
0.0
 11
0.0950846
 21
6.4244
 31
0.0
  0
LINE
  8
0
 62
     0
 10
0.0950846
 20
6.4244
 30
0.0
 11
0.0950846
 21
142.425
 31
0.0
  0
LINE
  8
0
 62
     0
 10
0.0950846
 20
142.425
 30
0.0
 11
0.112999
 21
142.894
 31
0.0
  0
LINE
  8
0
 62
     0
 10
0.112999
 20
142.894
 30
0.0
 11
0.168121
 21
143.363
 31
0.0
  0
LINE
  8
0
 62
     0
 10
0.168121
 20
143.363
 30
0.0
 11
0.260449
 21
143.824
 31
0.0
  0
LINE
  8
0
 62
     0
 10
0.260449
 20
143.824
 30
0.0
 11
0.388606
 21
144.279
 31
0.0
  0
LINE
  8
0
 62
     0
 10
0.388606
 20
144.279
 30
0.0
 11
0.551215
 21
144.721
 31
0.0
  0
LINE
  8
0
 62
     0
 10
0.551215
 20
144.721
 30
0.0
 11
0.748273
 21
145.147
 31
0.0
  0
LINE
  8
0
 62
     0
 10
0.748273
 20
145.147
 30
0.0
 11
0.979784
 21
145.559
 31
0.0
  0
LINE
  8
0
 62
     0
 10
0.979784
 20
145.559
 30
0.0
 11
1.24024
 21
145.951
 31
0.0
  0
LINE
  8
0
 62
     0
 10
1.24024
 20
145.951
 30
0.0
 11
1.53238
 21
146.322
 31
0.0
  0
LINE
  8
0
 62
     0
 10
1.53238
 20
146.322
 30
0.0
 11
1.85208
 21
146.667
 31
0.0
  0
LINE
  8
0
 62
     0
 10
1.85208
 20
146.667
 30
0.0
 11
2.19797
 21
146.987
 31
0.0
  0
LINE
  8
0
 62
     0
 10
2.19797
 20
146.987
 30
0.0
 11
2.56866
 21
147.279
 31
0.0
  0
LINE
  8
0
 62
     0
 10
2.56866
 20
147.279
 30
0.0
 11
2.96003
 21
147.54
 31
0.0
  0
LINE
  8
0
 62
     0
 10
2.96003
 20
147.54
 30
0.0
 11
3.37206
 21
147.771
 31
0.0
  0
LINE
  8
0
 62
     0
 10
3.37206
 20
147.771
 30
0.0
 11
3.79786
 21
147.968
 31
0.0
  0
LINE
  8
0
 62
     0
 10
3.79786
 20
147.968
 30
0.0
 11
4.24021
 21
148.131
 31
0.0
  0
LINE
  8
0
 62
     0
 10
4.24021
 20
148.131
 30
0.0
 11
4.69498
 21
148.259
 31
0.0
  0
LINE
  8
0
 62
     0
 10
4.69498
 20
148.259
 30
0.0
 11
5.15662
 21
148.351
 31
0.0
  0
LINE
  8
0
 62
     0
 10
5.15662
 20
148.351
 30
0.0
 11
5.62515
 21
148.407
 31
0.0
  0
LINE
  8
0
 62
     0
 10
5.62515
 20
148.407
 30
0.0
 11
6.09505
 21
148.424
 31
0.0
  0
LINE
  8
0
 62
     0
 10
6.09505
 20
148.424
 30
0.0
 11
151.095
 21
148.424
 31
0.0
  0
LINE
  8
0
 62
     0
 10
43.0195
 20
29.038
 30
0.0
 11
43.0195
 21
28.0376
 31
0.0
  0
LINE
  8
0
 62
     0
 10
43.0195
 20
28.0376
 30
0.0
 11
42.219
 21
28.0376
 31
0.0
  0
LINE
  8
0
 62
     0
 10
42.219
 20
28.0376
 30
0.0
 11
42.219
 21
24.9384
 31
0.0
  0
LINE
  8
0
 62
     0
 10
42.219
 20
24.9384
 30
0.0
 11
43.0195
 21
24.9384
 31
0.0
  0
LINE
  8
0
 62
     0
 10
43.0195
 20
24.9384
 30
0.0
 11
43.0195
 21
19.1382
 31
0.0
  0
LINE
  8
0
 62
     0
 10
43.0195
 20
19.1382
 30
0.0
 11
42.219
 21
19.1382
 31
0.0
  0
LINE
  8
0
 62
     0
 10
42.219
 20
19.1382
 30
0.0
 11
42.219
 21
16.0376
 31
0.0
  0
LINE
  8
0
 62
     0
 10
42.219
 20
16.0376
 30
0.0
 11
43.0195
 21
16.0376
 31
0.0
  0
LINE
  8
0
 62
     0
 10
43.0195
 20
16.0376
 30
0.0
 11
43.0195
 21
15.0385
 31
0.0
  0
LINE
  8
0
 62
     0
 10
43.0195
 20
15.0385
 30
0.0
 11
45.9948
 21
15.0385
 31
0.0
  0
LINE
  8
0
 62
     0
 10
45.9948
 20
15.0385
 30
0.0
 11
45.9948
 21
14.0684
 31
0.0
  0
LINE
  8
0
 62
     0
 10
45.9948
 20
14.0684
 30
0.0
 11
49.2936
 21
14.0684
 31
0.0
  0
LINE
  8
0
 62
     0
 10
49.2936
 20
14.0684
 30
0.0
 11
49.2936
 21
15.0385
 31
0.0
  0
LINE
  8
0
 62
     0
 10
49.2936
 20
15.0385
 30
0.0
 11
69.795
 21
15.0385
 31
0.0
  0
LINE
  8
0
 62
     0
 10
69.795
 20
15.0385
 30
0.0
 11
69.795
 21
14.0684
 31
0.0
  0
LINE
  8
0
 62
     0
 10
69.795
 20
14.0684
 30
0.0
 11
73.0938
 21
14.0684
 31
0.0
  0
LINE
  8
0
 62
     0
 10
73.0938
 20
14.0684
 30
0.0
 11
73.0938
 21
15.0385
 31
0.0
  0
LINE
  8
0
 62
     0
 10
73.0938
 20
15.0385
 30
0.0
 11
76.0691
 21
15.0385
 31
0.0
  0
LINE
  8
0
 62
     0
 10
76.0691
 20
15.0385
 30
0.0
 11
76.0691
 21
16.0376
 31
0.0
  0
LINE
  8
0
 62
     0
 10
76.0691
 20
16.0376
 30
0.0
 11
76.8696
 21
16.0376
 31
0.0
  0
LINE
  8
0
 62
     0
 10
76.8696
 20
16.0376
 30
0.0
 11
76.8696
 21
19.1382
 31
0.0
  0
LINE
  8
0
 62
     0
 10
76.8696
 20
19.1382
 30
0.0
 11
76.0691
 21
19.1382
 31
0.0
  0
LINE
  8
0
 62
     0
 10
76.0691
 20
19.1382
 30
0.0
 11
76.0691
 21
24.9384
 31
0.0
  0
LINE
  8
0
 62
     0
 10
76.0691
 20
24.9384
 30
0.0
 11
76.8696
 21
24.9384
 31
0.0
  0
LINE
  8
0
 62
     0
 10
76.8696
 20
24.9384
 30
0.0
 11
76.8696
 21
28.0376
 31
0.0
  0
LINE
  8
0
 62
     0
 10
76.8696
 20
28.0376
 30
0.0
 11
76.0691
 21
28.0376
 31
0.0
  0
LINE
  8
0
 62
     0
 10
76.0691
 20
28.0376
 30
0.0
 11
76.0691
 21
29.038
 31
0.0
  0
LINE
  8
0
 62
     0
 10
76.0691
 20
29.038
 30
0.0
 11
43.0195
 21
29.038
 31
0.0
  0
LINE
  8
0
 62
     0
 10
128.744
 20
29.038
 30
0.0
 11
128.744
 21
28.0376
 31
0.0
  0
LINE
  8
0
 62
     0
 10
128.744
 20
28.0376
 30
0.0
 11
127.944
 21
28.0376
 31
0.0
  0
LINE
  8
0
 62
     0
 10
127.944
 20
28.0376
 30
0.0
 11
127.944
 21
24.9384
 31
0.0
  0
LINE
  8
0
 62
     0
 10
127.944
 20
24.9384
 30
0.0
 11
128.744
 21
24.9384
 31
0.0
  0
LINE
  8
0
 62
     0
 10
128.744
 20
24.9384
 30
0.0
 11
128.744
 21
19.1382
 31
0.0
  0
LINE
  8
0
 62
     0
 10
128.744
 20
19.1382
 30
0.0
 11
127.944
 21
19.1382
 31
0.0
  0
LINE
  8
0
 62
     0
 10
127.944
 20
19.1382
 30
0.0
 11
127.944
 21
16.0376
 31
0.0
  0
LINE
  8
0
 62
     0
 10
127.944
 20
16.0376
 30
0.0
 11
128.744
 21
16.0376
 31
0.0
  0
LINE
  8
0
 62
     0
 10
128.744
 20
16.0376
 30
0.0
 11
128.744
 21
15.0385
 31
0.0
  0
LINE
  8
0
 62
     0
 10
128.744
 20
15.0385
 30
0.0
 11
142.744
 21
15.0385
 31
0.0
  0
LINE
  8
0
 62
     0
 10
142.744
 20
15.0385
 30
0.0
 11
142.744
 21
16.0376
 31
0.0
  0
LINE
  8
0
 62
     0
 10
142.744
 20
16.0376
 30
0.0
 11
143.545
 21
16.0376
 31
0.0
  0
LINE
  8
0
 62
     0
 10
143.545
 20
16.0376
 30
0.0
 11
143.545
 21
19.1382
 31
0.0
  0
LINE
  8
0
 62
     0
 10
143.545
 20
19.1382
 30
0.0
 11
142.744
 21
19.1382
 31
0.0
  0
LINE
  8
0
 62
     0
 10
142.744
 20
19.1382
 30
0.0
 11
142.744
 21
24.9384
 31
0.0
  0
LINE
  8
0
 62
     0
 10
142.744
 20
24.9384
 30
0.0
 11
143.545
 21
24.9384
 31
0.0
  0
LINE
  8
0
 62
     0
 10
143.545
 20
24.9384
 30
0.0
 11
143.545
 21
28.0376
 31
0.0
  0
LINE
  8
0
 62
     0
 10
143.545
 20
28.0376
 30
0.0
 11
142.744
 21
28.0376
 31
0.0
  0
LINE
  8
0
 62
     0
 10
142.744
 20
28.0376
 30
0.0
 11
142.744
 21
29.038
 31
0.0
  0
LINE
  8
0
 62
     0
 10
142.744
 20
29.038
 30
0.0
 11
128.744
 21
29.038
 31
0.0
  0
LINE
  8
0
 62
     0
 10
100.169
 20
48.0882
 30
0.0
 11
100.169
 21
47.0877
 31
0.0
  0
LINE
  8
0
 62
     0
 10
100.169
 20
47.0877
 30
0.0
 11
99.369
 21
47.0877
 31
0.0
  0
LINE
  8
0
 62
     0
 10
99.369
 20
47.0877
 30
0.0
 11
99.369
 21
45.1129
 31
0.0
  0
LINE
  8
0
 62
     0
 10
99.369
 20
45.1129
 30
0.0
 11
99.1994
 21
45.1129
 31
0.0
  0
LINE
  8
0
 62
     0
 10
99.1994
 20
45.1129
 30
0.0
 11
99.1994
 21
41.8123
 31
0.0
  0
LINE
  8
0
 62
     0
 10
99.1994
 20
41.8123
 30
0.0
 11
100.169
 21
41.8123
 31
0.0
  0
LINE
  8
0
 62
     0
 10
100.169
 20
41.8123
 30
0.0
 11
100.169
 21
38.1882
 31
0.0
  0
LINE
  8
0
 62
     0
 10
100.169
 20
38.1882
 30
0.0
 11
99.369
 21
38.1882
 31
0.0
  0
LINE
  8
0
 62
     0
 10
99.369
 20
38.1882
 30
0.0
 11
99.369
 21
35.0876
 31
0.0
  0
LINE
  8
0
 62
     0
 10
99.369
 20
35.0876
 30
0.0
 11
100.169
 21
35.0876
 31
0.0
  0
LINE
  8
0
 62
     0
 10
100.169
 20
35.0876
 30
0.0
 11
100.169
 21
28.0376
 31
0.0
  0
LINE
  8
0
 62
     0
 10
100.169
 20
28.0376
 30
0.0
 11
99.369
 21
28.0376
 31
0.0
  0
LINE
  8
0
 62
     0
 10
99.369
 20
28.0376
 30
0.0
 11
99.369
 21
24.9384
 31
0.0
  0
LINE
  8
0
 62
     0
 10
99.369
 20
24.9384
 30
0.0
 11
100.169
 21
24.9384
 31
0.0
  0
LINE
  8
0
 62
     0
 10
100.169
 20
24.9384
 30
0.0
 11
100.169
 21
21.3128
 31
0.0
  0
LINE
  8
0
 62
     0
 10
100.169
 20
21.3128
 30
0.0
 11
99.1994
 21
21.3128
 31
0.0
  0
LINE
  8
0
 62
     0
 10
99.1994
 20
21.3128
 30
0.0
 11
99.1994
 21
18.0123
 31
0.0
  0
LINE
  8
0
 62
     0
 10
99.1994
 20
18.0123
 30
0.0
 11
99.369
 21
18.0123
 31
0.0
  0
LINE
  8
0
 62
     0
 10
99.369
 20
18.0123
 30
0.0
 11
99.369
 21
16.0376
 31
0.0
  0
LINE
  8
0
 62
     0
 10
99.369
 20
16.0376
 30
0.0
 11
100.169
 21
16.0376
 31
0.0
  0
LINE
  8
0
 62
     0
 10
100.169
 20
16.0376
 30
0.0
 11
100.169
 21
15.0385
 31
0.0
  0
LINE
  8
0
 62
     0
 10
100.169
 20
15.0385
 30
0.0
 11
114.169
 21
15.0385
 31
0.0
  0
LINE
  8
0
 62
     0
 10
114.169
 20
15.0385
 30
0.0
 11
114.169
 21
16.0376
 31
0.0
  0
LINE
  8
0
 62
     0
 10
114.169
 20
16.0376
 30
0.0
 11
114.97
 21
16.0376
 31
0.0
  0
LINE
  8
0
 62
     0
 10
114.97
 20
16.0376
 30
0.0
 11
114.97
 21
19.1382
 31
0.0
  0
LINE
  8
0
 62
     0
 10
114.97
 20
19.1382
 30
0.0
 11
114.169
 21
19.1382
 31
0.0
  0
LINE
  8
0
 62
     0
 10
114.169
 20
19.1382
 30
0.0
 11
114.169
 21
24.9384
 31
0.0
  0
LINE
  8
0
 62
     0
 10
114.169
 20
24.9384
 30
0.0
 11
114.97
 21
24.9384
 31
0.0
  0
LINE
  8
0
 62
     0
 10
114.97
 20
24.9384
 30
0.0
 11
114.97
 21
28.0376
 31
0.0
  0
LINE
  8
0
 62
     0
 10
114.97
 20
28.0376
 30
0.0
 11
114.169
 21
28.0376
 31
0.0
  0
LINE
  8
0
 62
     0
 10
114.169
 20
28.0376
 30
0.0
 11
114.169
 21
35.0876
 31
0.0
  0
LINE
  8
0
 62
     0
 10
114.169
 20
35.0876
 30
0.0
 11
114.97
 21
35.0876
 31
0.0
  0
LINE
  8
0
 62
     0
 10
114.97
 20
35.0876
 30
0.0
 11
114.97
 21
38.1882
 31
0.0
  0
LINE
  8
0
 62
     0
 10
114.97
 20
38.1882
 30
0.0
 11
114.169
 21
38.1882
 31
0.0
  0
LINE
  8
0
 62
     0
 10
114.169
 20
38.1882
 30
0.0
 11
114.169
 21
43.9882
 31
0.0
  0
LINE
  8
0
 62
     0
 10
114.169
 20
43.9882
 30
0.0
 11
114.97
 21
43.9882
 31
0.0
  0
LINE
  8
0
 62
     0
 10
114.97
 20
43.9882
 30
0.0
 11
114.97
 21
47.0877
 31
0.0
  0
LINE
  8
0
 62
     0
 10
114.97
 20
47.0877
 30
0.0
 11
114.169
 21
47.0877
 31
0.0
  0
LINE
  8
0
 62
     0
 10
114.169
 20
47.0877
 30
0.0
 11
114.169
 21
48.0882
 31
0.0
  0
LINE
  8
0
 62
     0
 10
114.169
 20
48.0882
 30
0.0
 11
100.169
 21
48.0882
 31
0.0
  0
LINE
  8
0
 62
     0
 10
81.1195
 20
29.038
 30
0.0
 11
81.1195
 21
28.0376
 31
0.0
  0
LINE
  8
0
 62
     0
 10
81.1195
 20
28.0376
 30
0.0
 11
80.319
 21
28.0376
 31
0.0
  0
LINE
  8
0
 62
     0
 10
80.319
 20
28.0376
 30
0.0
 11
80.319
 21
24.9384
 31
0.0
  0
LINE
  8
0
 62
     0
 10
80.319
 20
24.9384
 30
0.0
 11
81.1195
 21
24.9384
 31
0.0
  0
LINE
  8
0
 62
     0
 10
81.1195
 20
24.9384
 30
0.0
 11
81.1195
 21
19.1382
 31
0.0
  0
LINE
  8
0
 62
     0
 10
81.1195
 20
19.1382
 30
0.0
 11
80.319
 21
19.1382
 31
0.0
  0
LINE
  8
0
 62
     0
 10
80.319
 20
19.1382
 30
0.0
 11
80.319
 21
16.0376
 31
0.0
  0
LINE
  8
0
 62
     0
 10
80.319
 20
16.0376
 30
0.0
 11
81.1195
 21
16.0376
 31
0.0
  0
LINE
  8
0
 62
     0
 10
81.1195
 20
16.0376
 30
0.0
 11
81.1195
 21
15.0385
 31
0.0
  0
LINE
  8
0
 62
     0
 10
81.1195
 20
15.0385
 30
0.0
 11
95.1191
 21
15.0385
 31
0.0
  0
LINE
  8
0
 62
     0
 10
95.1191
 20
15.0385
 30
0.0
 11
95.1191
 21
16.0376
 31
0.0
  0
LINE
  8
0
 62
     0
 10
95.1191
 20
16.0376
 30
0.0
 11
95.9196
 21
16.0376
 31
0.0
  0
LINE
  8
0
 62
     0
 10
95.9196
 20
16.0376
 30
0.0
 11
95.9196
 21
19.1382
 31
0.0
  0
LINE
  8
0
 62
     0
 10
95.9196
 20
19.1382
 30
0.0
 11
95.1191
 21
19.1382
 31
0.0
  0
LINE
  8
0
 62
     0
 10
95.1191
 20
19.1382
 30
0.0
 11
95.1191
 21
24.9384
 31
0.0
  0
LINE
  8
0
 62
     0
 10
95.1191
 20
24.9384
 30
0.0
 11
95.9196
 21
24.9384
 31
0.0
  0
LINE
  8
0
 62
     0
 10
95.9196
 20
24.9384
 30
0.0
 11
95.9196
 21
28.0376
 31
0.0
  0
LINE
  8
0
 62
     0
 10
95.9196
 20
28.0376
 30
0.0
 11
95.1191
 21
28.0376
 31
0.0
  0
LINE
  8
0
 62
     0
 10
95.1191
 20
28.0376
 30
0.0
 11
95.1191
 21
29.038
 31
0.0
  0
LINE
  8
0
 62
     0
 10
95.1191
 20
29.038
 30
0.0
 11
81.1195
 21
29.038
 31
0.0
  0
LINE
  8
0
 62
     0
 10
14.4432
 20
29.038
 30
0.0
 11
14.4432
 21
28.0376
 31
0.0
  0
LINE
  8
0
 62
     0
 10
14.4432
 20
28.0376
 30
0.0
 11
13.644
 21
28.0376
 31
0.0
  0
LINE
  8
0
 62
     0
 10
13.644
 20
28.0376
 30
0.0
 11
13.644
 21
24.9384
 31
0.0
  0
LINE
  8
0
 62
     0
 10
13.644
 20
24.9384
 30
0.0
 11
14.4432
 21
24.9384
 31
0.0
  0
LINE
  8
0
 62
     0
 10
14.4432
 20
24.9384
 30
0.0
 11
14.4432
 21
19.1382
 31
0.0
  0
LINE
  8
0
 62
     0
 10
14.4432
 20
19.1382
 30
0.0
 11
13.644
 21
19.1382
 31
0.0
  0
LINE
  8
0
 62
     0
 10
13.644
 20
19.1382
 30
0.0
 11
13.644
 21
16.0376
 31
0.0
  0
LINE
  8
0
 62
     0
 10
13.644
 20
16.0376
 30
0.0
 11
14.4432
 21
16.0376
 31
0.0
  0
LINE
  8
0
 62
     0
 10
14.4432
 20
16.0376
 30
0.0
 11
14.4432
 21
15.0385
 31
0.0
  0
LINE
  8
0
 62
     0
 10
14.4432
 20
15.0385
 30
0.0
 11
28.4441
 21
15.0385
 31
0.0
  0
LINE
  8
0
 62
     0
 10
28.4441
 20
15.0385
 30
0.0
 11
28.4441
 21
16.0376
 31
0.0
  0
LINE
  8
0
 62
     0
 10
28.4441
 20
16.0376
 30
0.0
 11
29.2433
 21
16.0376
 31
0.0
  0
LINE
  8
0
 62
     0
 10
29.2433
 20
16.0376
 30
0.0
 11
29.2433
 21
19.1382
 31
0.0
  0
LINE
  8
0
 62
     0
 10
29.2433
 20
19.1382
 30
0.0
 11
28.4441
 21
19.1382
 31
0.0
  0
LINE
  8
0
 62
     0
 10
28.4441
 20
19.1382
 30
0.0
 11
28.4441
 21
24.9384
 31
0.0
  0
LINE
  8
0
 62
     0
 10
28.4441
 20
24.9384
 30
0.0
 11
29.2433
 21
24.9384
 31
0.0
  0
LINE
  8
0
 62
     0
 10
29.2433
 20
24.9384
 30
0.0
 11
29.2433
 21
28.0376
 31
0.0
  0
LINE
  8
0
 62
     0
 10
29.2433
 20
28.0376
 30
0.0
 11
28.4441
 21
28.0376
 31
0.0
  0
LINE
  8
0
 62
     0
 10
28.4441
 20
28.0376
 30
0.0
 11
28.4441
 21
29.038
 31
0.0
  0
LINE
  8
0
 62
     0
 10
28.4441
 20
29.038
 30
0.0
 11
14.4432
 21
29.038
 31
0.0
  0
LINE
  8
0
 62
     0
 10
128.744
 20
48.0882
 30
0.0
 11
128.744
 21
47.0877
 31
0.0
  0
LINE
  8
0
 62
     0
 10
128.744
 20
47.0877
 30
0.0
 11
127.944
 21
47.0877
 31
0.0
  0
LINE
  8
0
 62
     0
 10
127.944
 20
47.0877
 30
0.0
 11
127.944
 21
43.9882
 31
0.0
  0
LINE
  8
0
 62
     0
 10
127.944
 20
43.9882
 30
0.0
 11
128.744
 21
43.9882
 31
0.0
  0
LINE
  8
0
 62
     0
 10
128.744
 20
43.9882
 30
0.0
 11
128.744
 21
38.1882
 31
0.0
  0
LINE
  8
0
 62
     0
 10
128.744
 20
38.1882
 30
0.0
 11
127.944
 21
38.1882
 31
0.0
  0
LINE
  8
0
 62
     0
 10
127.944
 20
38.1882
 30
0.0
 11
127.944
 21
35.0876
 31
0.0
  0
LINE
  8
0
 62
     0
 10
127.944
 20
35.0876
 30
0.0
 11
128.744
 21
35.0876
 31
0.0
  0
LINE
  8
0
 62
     0
 10
128.744
 20
35.0876
 30
0.0
 11
128.744
 21
34.0885
 31
0.0
  0
LINE
  8
0
 62
     0
 10
128.744
 20
34.0885
 30
0.0
 11
142.744
 21
34.0885
 31
0.0
  0
LINE
  8
0
 62
     0
 10
142.744
 20
34.0885
 30
0.0
 11
142.744
 21
35.0876
 31
0.0
  0
LINE
  8
0
 62
     0
 10
142.744
 20
35.0876
 30
0.0
 11
143.545
 21
35.0876
 31
0.0
  0
LINE
  8
0
 62
     0
 10
143.545
 20
35.0876
 30
0.0
 11
143.545
 21
38.1882
 31
0.0
  0
LINE
  8
0
 62
     0
 10
143.545
 20
38.1882
 30
0.0
 11
142.744
 21
38.1882
 31
0.0
  0
LINE
  8
0
 62
     0
 10
142.744
 20
38.1882
 30
0.0
 11
142.744
 21
43.9882
 31
0.0
  0
LINE
  8
0
 62
     0
 10
142.744
 20
43.9882
 30
0.0
 11
143.545
 21
43.9882
 31
0.0
  0
LINE
  8
0
 62
     0
 10
143.545
 20
43.9882
 30
0.0
 11
143.545
 21
47.0877
 31
0.0
  0
LINE
  8
0
 62
     0
 10
143.545
 20
47.0877
 30
0.0
 11
142.744
 21
47.0877
 31
0.0
  0
LINE
  8
0
 62
     0
 10
142.744
 20
47.0877
 30
0.0
 11
142.744
 21
48.0882
 31
0.0
  0
LINE
  8
0
 62
     0
 10
142.744
 20
48.0882
 30
0.0
 11
128.744
 21
48.0882
 31
0.0
  0
LINE
  8
0
 62
     0
 10
81.1195
 20
48.0882
 30
0.0
 11
81.1195
 21
47.0877
 31
0.0
  0
LINE
  8
0
 62
     0
 10
81.1195
 20
47.0877
 30
0.0
 11
80.319
 21
47.0877
 31
0.0
  0
LINE
  8
0
 62
     0
 10
80.319
 20
47.0877
 30
0.0
 11
80.319
 21
43.9882
 31
0.0
  0
LINE
  8
0
 62
     0
 10
80.319
 20
43.9882
 30
0.0
 11
81.1195
 21
43.9882
 31
0.0
  0
LINE
  8
0
 62
     0
 10
81.1195
 20
43.9882
 30
0.0
 11
81.1195
 21
38.1882
 31
0.0
  0
LINE
  8
0
 62
     0
 10
81.1195
 20
38.1882
 30
0.0
 11
80.319
 21
38.1882
 31
0.0
  0
LINE
  8
0
 62
     0
 10
80.319
 20
38.1882
 30
0.0
 11
80.319
 21
35.0876
 31
0.0
  0
LINE
  8
0
 62
     0
 10
80.319
 20
35.0876
 30
0.0
 11
81.1195
 21
35.0876
 31
0.0
  0
LINE
  8
0
 62
     0
 10
81.1195
 20
35.0876
 30
0.0
 11
81.1195
 21
34.0885
 31
0.0
  0
LINE
  8
0
 62
     0
 10
81.1195
 20
34.0885
 30
0.0
 11
95.1191
 21
34.0885
 31
0.0
  0
LINE
  8
0
 62
     0
 10
95.1191
 20
34.0885
 30
0.0
 11
95.1191
 21
35.0876
 31
0.0
  0
LINE
  8
0
 62
     0
 10
95.1191
 20
35.0876
 30
0.0
 11
95.9196
 21
35.0876
 31
0.0
  0
LINE
  8
0
 62
     0
 10
95.9196
 20
35.0876
 30
0.0
 11
95.9196
 21
38.1882
 31
0.0
  0
LINE
  8
0
 62
     0
 10
95.9196
 20
38.1882
 30
0.0
 11
95.1191
 21
38.1882
 31
0.0
  0
LINE
  8
0
 62
     0
 10
95.1191
 20
38.1882
 30
0.0
 11
95.1191
 21
43.9882
 31
0.0
  0
LINE
  8
0
 62
     0
 10
95.1191
 20
43.9882
 30
0.0
 11
95.9196
 21
43.9882
 31
0.0
  0
LINE
  8
0
 62
     0
 10
95.9196
 20
43.9882
 30
0.0
 11
95.9196
 21
47.0877
 31
0.0
  0
LINE
  8
0
 62
     0
 10
95.9196
 20
47.0877
 30
0.0
 11
95.1191
 21
47.0877
 31
0.0
  0
LINE
  8
0
 62
     0
 10
95.1191
 20
47.0877
 30
0.0
 11
95.1191
 21
48.0882
 31
0.0
  0
LINE
  8
0
 62
     0
 10
95.1191
 20
48.0882
 30
0.0
 11
81.1195
 21
48.0882
 31
0.0
  0
LINE
  8
0
 62
     0
 10
62.0695
 20
48.0882
 30
0.0
 11
62.0695
 21
47.0877
 31
0.0
  0
LINE
  8
0
 62
     0
 10
62.0695
 20
47.0877
 30
0.0
 11
61.269
 21
47.0877
 31
0.0
  0
LINE
  8
0
 62
     0
 10
61.269
 20
47.0877
 30
0.0
 11
61.269
 21
43.9882
 31
0.0
  0
LINE
  8
0
 62
     0
 10
61.269
 20
43.9882
 30
0.0
 11
62.0695
 21
43.9882
 31
0.0
  0
LINE
  8
0
 62
     0
 10
62.0695
 20
43.9882
 30
0.0
 11
62.0695
 21
38.1882
 31
0.0
  0
LINE
  8
0
 62
     0
 10
62.0695
 20
38.1882
 30
0.0
 11
61.269
 21
38.1882
 31
0.0
  0
LINE
  8
0
 62
     0
 10
61.269
 20
38.1882
 30
0.0
 11
61.269
 21
35.0876
 31
0.0
  0
LINE
  8
0
 62
     0
 10
61.269
 20
35.0876
 30
0.0
 11
62.0695
 21
35.0876
 31
0.0
  0
LINE
  8
0
 62
     0
 10
62.0695
 20
35.0876
 30
0.0
 11
62.0695
 21
34.0885
 31
0.0
  0
LINE
  8
0
 62
     0
 10
62.0695
 20
34.0885
 30
0.0
 11
76.0691
 21
34.0885
 31
0.0
  0
LINE
  8
0
 62
     0
 10
76.0691
 20
34.0885
 30
0.0
 11
76.0691
 21
35.0876
 31
0.0
  0
LINE
  8
0
 62
     0
 10
76.0691
 20
35.0876
 30
0.0
 11
76.8696
 21
35.0876
 31
0.0
  0
LINE
  8
0
 62
     0
 10
76.8696
 20
35.0876
 30
0.0
 11
76.8696
 21
38.1882
 31
0.0
  0
LINE
  8
0
 62
     0
 10
76.8696
 20
38.1882
 30
0.0
 11
76.0691
 21
38.1882
 31
0.0
  0
LINE
  8
0
 62
     0
 10
76.0691
 20
38.1882
 30
0.0
 11
76.0691
 21
43.9882
 31
0.0
  0
LINE
  8
0
 62
     0
 10
76.0691
 20
43.9882
 30
0.0
 11
76.8696
 21
43.9882
 31
0.0
  0
LINE
  8
0
 62
     0
 10
76.8696
 20
43.9882
 30
0.0
 11
76.8696
 21
47.0877
 31
0.0
  0
LINE
  8
0
 62
     0
 10
76.8696
 20
47.0877
 30
0.0
 11
76.0691
 21
47.0877
 31
0.0
  0
LINE
  8
0
 62
     0
 10
76.0691
 20
47.0877
 30
0.0
 11
76.0691
 21
48.0882
 31
0.0
  0
LINE
  8
0
 62
     0
 10
76.0691
 20
48.0882
 30
0.0
 11
62.0695
 21
48.0882
 31
0.0
  0
LINE
  8
0
 62
     0
 10
43.0195
 20
48.0882
 30
0.0
 11
43.0195
 21
47.0877
 31
0.0
  0
LINE
  8
0
 62
     0
 10
43.0195
 20
47.0877
 30
0.0
 11
42.219
 21
47.0877
 31
0.0
  0
LINE
  8
0
 62
     0
 10
42.219
 20
47.0877
 30
0.0
 11
42.219
 21
43.9882
 31
0.0
  0
LINE
  8
0
 62
     0
 10
42.219
 20
43.9882
 30
0.0
 11
43.0195
 21
43.9882
 31
0.0
  0
LINE
  8
0
 62
     0
 10
43.0195
 20
43.9882
 30
0.0
 11
43.0195
 21
38.1882
 31
0.0
  0
LINE
  8
0
 62
     0
 10
43.0195
 20
38.1882
 30
0.0
 11
42.219
 21
38.1882
 31
0.0
  0
LINE
  8
0
 62
     0
 10
42.219
 20
38.1882
 30
0.0
 11
42.219
 21
35.0876
 31
0.0
  0
LINE
  8
0
 62
     0
 10
42.219
 20
35.0876
 30
0.0
 11
43.0195
 21
35.0876
 31
0.0
  0
LINE
  8
0
 62
     0
 10
43.0195
 20
35.0876
 30
0.0
 11
43.0195
 21
34.0885
 31
0.0
  0
LINE
  8
0
 62
     0
 10
43.0195
 20
34.0885
 30
0.0
 11
57.0191
 21
34.0885
 31
0.0
  0
LINE
  8
0
 62
     0
 10
57.0191
 20
34.0885
 30
0.0
 11
57.0191
 21
35.0876
 31
0.0
  0
LINE
  8
0
 62
     0
 10
57.0191
 20
35.0876
 30
0.0
 11
57.8196
 21
35.0876
 31
0.0
  0
LINE
  8
0
 62
     0
 10
57.8196
 20
35.0876
 30
0.0
 11
57.8196
 21
38.1882
 31
0.0
  0
LINE
  8
0
 62
     0
 10
57.8196
 20
38.1882
 30
0.0
 11
57.0191
 21
38.1882
 31
0.0
  0
LINE
  8
0
 62
     0
 10
57.0191
 20
38.1882
 30
0.0
 11
57.0191
 21
43.9882
 31
0.0
  0
LINE
  8
0
 62
     0
 10
57.0191
 20
43.9882
 30
0.0
 11
57.8196
 21
43.9882
 31
0.0
  0
LINE
  8
0
 62
     0
 10
57.8196
 20
43.9882
 30
0.0
 11
57.8196
 21
47.0877
 31
0.0
  0
LINE
  8
0
 62
     0
 10
57.8196
 20
47.0877
 30
0.0
 11
57.0191
 21
47.0877
 31
0.0
  0
LINE
  8
0
 62
     0
 10
57.0191
 20
47.0877
 30
0.0
 11
57.0191
 21
48.0882
 31
0.0
  0
LINE
  8
0
 62
     0
 10
57.0191
 20
48.0882
 30
0.0
 11
43.0195
 21
48.0882
 31
0.0
  0
LINE
  8
0
 62
     0
 10
14.4432
 20
48.0882
 30
0.0
 11
14.4432
 21
47.0877
 31
0.0
  0
LINE
  8
0
 62
     0
 10
14.4432
 20
47.0877
 30
0.0
 11
13.644
 21
47.0877
 31
0.0
  0
LINE
  8
0
 62
     0
 10
13.644
 20
47.0877
 30
0.0
 11
13.644
 21
43.9882
 31
0.0
  0
LINE
  8
0
 62
     0
 10
13.644
 20
43.9882
 30
0.0
 11
14.4432
 21
43.9882
 31
0.0
  0
LINE
  8
0
 62
     0
 10
14.4432
 20
43.9882
 30
0.0
 11
14.4432
 21
38.1882
 31
0.0
  0
LINE
  8
0
 62
     0
 10
14.4432
 20
38.1882
 30
0.0
 11
13.644
 21
38.1882
 31
0.0
  0
LINE
  8
0
 62
     0
 10
13.644
 20
38.1882
 30
0.0
 11
13.644
 21
35.0876
 31
0.0
  0
LINE
  8
0
 62
     0
 10
13.644
 20
35.0876
 30
0.0
 11
14.4432
 21
35.0876
 31
0.0
  0
LINE
  8
0
 62
     0
 10
14.4432
 20
35.0876
 30
0.0
 11
14.4432
 21
34.0885
 31
0.0
  0
LINE
  8
0
 62
     0
 10
14.4432
 20
34.0885
 30
0.0
 11
28.4441
 21
34.0885
 31
0.0
  0
LINE
  8
0
 62
     0
 10
28.4441
 20
34.0885
 30
0.0
 11
28.4441
 21
35.0876
 31
0.0
  0
LINE
  8
0
 62
     0
 10
28.4441
 20
35.0876
 30
0.0
 11
29.2433
 21
35.0876
 31
0.0
  0
LINE
  8
0
 62
     0
 10
29.2433
 20
35.0876
 30
0.0
 11
29.2433
 21
38.1882
 31
0.0
  0
LINE
  8
0
 62
     0
 10
29.2433
 20
38.1882
 30
0.0
 11
28.4441
 21
38.1882
 31
0.0
  0
LINE
  8
0
 62
     0
 10
28.4441
 20
38.1882
 30
0.0
 11
28.4441
 21
43.9882
 31
0.0
  0
LINE
  8
0
 62
     0
 10
28.4441
 20
43.9882
 30
0.0
 11
29.2433
 21
43.9882
 31
0.0
  0
LINE
  8
0
 62
     0
 10
29.2433
 20
43.9882
 30
0.0
 11
29.2433
 21
47.0877
 31
0.0
  0
LINE
  8
0
 62
     0
 10
29.2433
 20
47.0877
 30
0.0
 11
28.4441
 21
47.0877
 31
0.0
  0
LINE
  8
0
 62
     0
 10
28.4441
 20
47.0877
 30
0.0
 11
28.4441
 21
48.0882
 31
0.0
  0
LINE
  8
0
 62
     0
 10
28.4441
 20
48.0882
 30
0.0
 11
14.4432
 21
48.0882
 31
0.0
  0
LINE
  8
0
 62
     0
 10
128.744
 20
67.1382
 30
0.0
 11
128.744
 21
66.1377
 31
0.0
  0
LINE
  8
0
 62
     0
 10
128.744
 20
66.1377
 30
0.0
 11
127.944
 21
66.1377
 31
0.0
  0
LINE
  8
0
 62
     0
 10
127.944
 20
66.1377
 30
0.0
 11
127.944
 21
63.0382
 31
0.0
  0
LINE
  8
0
 62
     0
 10
127.944
 20
63.0382
 30
0.0
 11
128.744
 21
63.0382
 31
0.0
  0
LINE
  8
0
 62
     0
 10
128.744
 20
63.0382
 30
0.0
 11
128.744
 21
57.2382
 31
0.0
  0
LINE
  8
0
 62
     0
 10
128.744
 20
57.2382
 30
0.0
 11
127.944
 21
57.2382
 31
0.0
  0
LINE
  8
0
 62
     0
 10
127.944
 20
57.2382
 30
0.0
 11
127.944
 21
54.1376
 31
0.0
  0
LINE
  8
0
 62
     0
 10
127.944
 20
54.1376
 30
0.0
 11
128.744
 21
54.1376
 31
0.0
  0
LINE
  8
0
 62
     0
 10
128.744
 20
54.1376
 30
0.0
 11
128.744
 21
53.1386
 31
0.0
  0
LINE
  8
0
 62
     0
 10
128.744
 20
53.1386
 30
0.0
 11
142.744
 21
53.1386
 31
0.0
  0
LINE
  8
0
 62
     0
 10
142.744
 20
53.1386
 30
0.0
 11
142.744
 21
54.1376
 31
0.0
  0
LINE
  8
0
 62
     0
 10
142.744
 20
54.1376
 30
0.0
 11
143.545
 21
54.1376
 31
0.0
  0
LINE
  8
0
 62
     0
 10
143.545
 20
54.1376
 30
0.0
 11
143.545
 21
57.2382
 31
0.0
  0
LINE
  8
0
 62
     0
 10
143.545
 20
57.2382
 30
0.0
 11
142.744
 21
57.2382
 31
0.0
  0
LINE
  8
0
 62
     0
 10
142.744
 20
57.2382
 30
0.0
 11
142.744
 21
63.0382
 31
0.0
  0
LINE
  8
0
 62
     0
 10
142.744
 20
63.0382
 30
0.0
 11
143.545
 21
63.0382
 31
0.0
  0
LINE
  8
0
 62
     0
 10
143.545
 20
63.0382
 30
0.0
 11
143.545
 21
66.1377
 31
0.0
  0
LINE
  8
0
 62
     0
 10
143.545
 20
66.1377
 30
0.0
 11
142.744
 21
66.1377
 31
0.0
  0
LINE
  8
0
 62
     0
 10
142.744
 20
66.1377
 30
0.0
 11
142.744
 21
67.1382
 31
0.0
  0
LINE
  8
0
 62
     0
 10
142.744
 20
67.1382
 30
0.0
 11
128.744
 21
67.1382
 31
0.0
  0
LINE
  8
0
 62
     0
 10
100.169
 20
86.1882
 30
0.0
 11
100.169
 21
85.1877
 31
0.0
  0
LINE
  8
0
 62
     0
 10
100.169
 20
85.1877
 30
0.0
 11
99.369
 21
85.1877
 31
0.0
  0
LINE
  8
0
 62
     0
 10
99.369
 20
85.1877
 30
0.0
 11
99.369
 21
83.2129
 31
0.0
  0
LINE
  8
0
 62
     0
 10
99.369
 20
83.2129
 30
0.0
 11
99.1994
 21
83.2129
 31
0.0
  0
LINE
  8
0
 62
     0
 10
99.1994
 20
83.2129
 30
0.0
 11
99.1994
 21
79.9123
 31
0.0
  0
LINE
  8
0
 62
     0
 10
99.1994
 20
79.9123
 30
0.0
 11
100.169
 21
79.9123
 31
0.0
  0
LINE
  8
0
 62
     0
 10
100.169
 20
79.9123
 30
0.0
 11
100.169
 21
76.2882
 31
0.0
  0
LINE
  8
0
 62
     0
 10
100.169
 20
76.2882
 30
0.0
 11
99.369
 21
76.2882
 31
0.0
  0
LINE
  8
0
 62
     0
 10
99.369
 20
76.2882
 30
0.0
 11
99.369
 21
73.1876
 31
0.0
  0
LINE
  8
0
 62
     0
 10
99.369
 20
73.1876
 30
0.0
 11
100.169
 21
73.1876
 31
0.0
  0
LINE
  8
0
 62
     0
 10
100.169
 20
73.1876
 30
0.0
 11
100.169
 21
66.1377
 31
0.0
  0
LINE
  8
0
 62
     0
 10
100.169
 20
66.1377
 30
0.0
 11
99.369
 21
66.1377
 31
0.0
  0
LINE
  8
0
 62
     0
 10
99.369
 20
66.1377
 30
0.0
 11
99.369
 21
63.0382
 31
0.0
  0
LINE
  8
0
 62
     0
 10
99.369
 20
63.0382
 30
0.0
 11
100.169
 21
63.0382
 31
0.0
  0
LINE
  8
0
 62
     0
 10
100.169
 20
63.0382
 30
0.0
 11
100.169
 21
59.4127
 31
0.0
  0
LINE
  8
0
 62
     0
 10
100.169
 20
59.4127
 30
0.0
 11
99.1994
 21
59.4127
 31
0.0
  0
LINE
  8
0
 62
     0
 10
99.1994
 20
59.4127
 30
0.0
 11
99.1994
 21
56.1125
 31
0.0
  0
LINE
  8
0
 62
     0
 10
99.1994
 20
56.1125
 30
0.0
 11
99.369
 21
56.1125
 31
0.0
  0
LINE
  8
0
 62
     0
 10
99.369
 20
56.1125
 30
0.0
 11
99.369
 21
54.1376
 31
0.0
  0
LINE
  8
0
 62
     0
 10
99.369
 20
54.1376
 30
0.0
 11
100.169
 21
54.1376
 31
0.0
  0
LINE
  8
0
 62
     0
 10
100.169
 20
54.1376
 30
0.0
 11
100.169
 21
53.1386
 31
0.0
  0
LINE
  8
0
 62
     0
 10
100.169
 20
53.1386
 30
0.0
 11
114.169
 21
53.1386
 31
0.0
  0
LINE
  8
0
 62
     0
 10
114.169
 20
53.1386
 30
0.0
 11
114.169
 21
54.1376
 31
0.0
  0
LINE
  8
0
 62
     0
 10
114.169
 20
54.1376
 30
0.0
 11
114.97
 21
54.1376
 31
0.0
  0
LINE
  8
0
 62
     0
 10
114.97
 20
54.1376
 30
0.0
 11
114.97
 21
57.2382
 31
0.0
  0
LINE
  8
0
 62
     0
 10
114.97
 20
57.2382
 30
0.0
 11
114.169
 21
57.2382
 31
0.0
  0
LINE
  8
0
 62
     0
 10
114.169
 20
57.2382
 30
0.0
 11
114.169
 21
63.0382
 31
0.0
  0
LINE
  8
0
 62
     0
 10
114.169
 20
63.0382
 30
0.0
 11
114.97
 21
63.0382
 31
0.0
  0
LINE
  8
0
 62
     0
 10
114.97
 20
63.0382
 30
0.0
 11
114.97
 21
66.1377
 31
0.0
  0
LINE
  8
0
 62
     0
 10
114.97
 20
66.1377
 30
0.0
 11
114.169
 21
66.1377
 31
0.0
  0
LINE
  8
0
 62
     0
 10
114.169
 20
66.1377
 30
0.0
 11
114.169
 21
73.1876
 31
0.0
  0
LINE
  8
0
 62
     0
 10
114.169
 20
73.1876
 30
0.0
 11
114.97
 21
73.1876
 31
0.0
  0
LINE
  8
0
 62
     0
 10
114.97
 20
73.1876
 30
0.0
 11
114.97
 21
76.2882
 31
0.0
  0
LINE
  8
0
 62
     0
 10
114.97
 20
76.2882
 30
0.0
 11
114.169
 21
76.2882
 31
0.0
  0
LINE
  8
0
 62
     0
 10
114.169
 20
76.2882
 30
0.0
 11
114.169
 21
82.0882
 31
0.0
  0
LINE
  8
0
 62
     0
 10
114.169
 20
82.0882
 30
0.0
 11
114.97
 21
82.0882
 31
0.0
  0
LINE
  8
0
 62
     0
 10
114.97
 20
82.0882
 30
0.0
 11
114.97
 21
85.1877
 31
0.0
  0
LINE
  8
0
 62
     0
 10
114.97
 20
85.1877
 30
0.0
 11
114.169
 21
85.1877
 31
0.0
  0
LINE
  8
0
 62
     0
 10
114.169
 20
85.1877
 30
0.0
 11
114.169
 21
86.1882
 31
0.0
  0
LINE
  8
0
 62
     0
 10
114.169
 20
86.1882
 30
0.0
 11
100.169
 21
86.1882
 31
0.0
  0
LINE
  8
0
 62
     0
 10
81.1195
 20
67.1382
 30
0.0
 11
81.1195
 21
66.1377
 31
0.0
  0
LINE
  8
0
 62
     0
 10
81.1195
 20
66.1377
 30
0.0
 11
80.319
 21
66.1377
 31
0.0
  0
LINE
  8
0
 62
     0
 10
80.319
 20
66.1377
 30
0.0
 11
80.319
 21
63.0382
 31
0.0
  0
LINE
  8
0
 62
     0
 10
80.319
 20
63.0382
 30
0.0
 11
81.1195
 21
63.0382
 31
0.0
  0
LINE
  8
0
 62
     0
 10
81.1195
 20
63.0382
 30
0.0
 11
81.1195
 21
57.2382
 31
0.0
  0
LINE
  8
0
 62
     0
 10
81.1195
 20
57.2382
 30
0.0
 11
80.319
 21
57.2382
 31
0.0
  0
LINE
  8
0
 62
     0
 10
80.319
 20
57.2382
 30
0.0
 11
80.319
 21
54.1376
 31
0.0
  0
LINE
  8
0
 62
     0
 10
80.319
 20
54.1376
 30
0.0
 11
81.1195
 21
54.1376
 31
0.0
  0
LINE
  8
0
 62
     0
 10
81.1195
 20
54.1376
 30
0.0
 11
81.1195
 21
53.1386
 31
0.0
  0
LINE
  8
0
 62
     0
 10
81.1195
 20
53.1386
 30
0.0
 11
95.1191
 21
53.1386
 31
0.0
  0
LINE
  8
0
 62
     0
 10
95.1191
 20
53.1386
 30
0.0
 11
95.1191
 21
54.1376
 31
0.0
  0
LINE
  8
0
 62
     0
 10
95.1191
 20
54.1376
 30
0.0
 11
95.9196
 21
54.1376
 31
0.0
  0
LINE
  8
0
 62
     0
 10
95.9196
 20
54.1376
 30
0.0
 11
95.9196
 21
57.2382
 31
0.0
  0
LINE
  8
0
 62
     0
 10
95.9196
 20
57.2382
 30
0.0
 11
95.1191
 21
57.2382
 31
0.0
  0
LINE
  8
0
 62
     0
 10
95.1191
 20
57.2382
 30
0.0
 11
95.1191
 21
63.0382
 31
0.0
  0
LINE
  8
0
 62
     0
 10
95.1191
 20
63.0382
 30
0.0
 11
95.9196
 21
63.0382
 31
0.0
  0
LINE
  8
0
 62
     0
 10
95.9196
 20
63.0382
 30
0.0
 11
95.9196
 21
66.1377
 31
0.0
  0
LINE
  8
0
 62
     0
 10
95.9196
 20
66.1377
 30
0.0
 11
95.1191
 21
66.1377
 31
0.0
  0
LINE
  8
0
 62
     0
 10
95.1191
 20
66.1377
 30
0.0
 11
95.1191
 21
67.1382
 31
0.0
  0
LINE
  8
0
 62
     0
 10
95.1191
 20
67.1382
 30
0.0
 11
81.1195
 21
67.1382
 31
0.0
  0
LINE
  8
0
 62
     0
 10
62.0695
 20
67.1382
 30
0.0
 11
62.0695
 21
66.1377
 31
0.0
  0
LINE
  8
0
 62
     0
 10
62.0695
 20
66.1377
 30
0.0
 11
61.269
 21
66.1377
 31
0.0
  0
LINE
  8
0
 62
     0
 10
61.269
 20
66.1377
 30
0.0
 11
61.269
 21
63.0382
 31
0.0
  0
LINE
  8
0
 62
     0
 10
61.269
 20
63.0382
 30
0.0
 11
62.0695
 21
63.0382
 31
0.0
  0
LINE
  8
0
 62
     0
 10
62.0695
 20
63.0382
 30
0.0
 11
62.0695
 21
57.2382
 31
0.0
  0
LINE
  8
0
 62
     0
 10
62.0695
 20
57.2382
 30
0.0
 11
61.269
 21
57.2382
 31
0.0
  0
LINE
  8
0
 62
     0
 10
61.269
 20
57.2382
 30
0.0
 11
61.269
 21
54.1376
 31
0.0
  0
LINE
  8
0
 62
     0
 10
61.269
 20
54.1376
 30
0.0
 11
62.0695
 21
54.1376
 31
0.0
  0
LINE
  8
0
 62
     0
 10
62.0695
 20
54.1376
 30
0.0
 11
62.0695
 21
53.1386
 31
0.0
  0
LINE
  8
0
 62
     0
 10
62.0695
 20
53.1386
 30
0.0
 11
76.0691
 21
53.1386
 31
0.0
  0
LINE
  8
0
 62
     0
 10
76.0691
 20
53.1386
 30
0.0
 11
76.0691
 21
54.1376
 31
0.0
  0
LINE
  8
0
 62
     0
 10
76.0691
 20
54.1376
 30
0.0
 11
76.8696
 21
54.1376
 31
0.0
  0
LINE
  8
0
 62
     0
 10
76.8696
 20
54.1376
 30
0.0
 11
76.8696
 21
57.2382
 31
0.0
  0
LINE
  8
0
 62
     0
 10
76.8696
 20
57.2382
 30
0.0
 11
76.0691
 21
57.2382
 31
0.0
  0
LINE
  8
0
 62
     0
 10
76.0691
 20
57.2382
 30
0.0
 11
76.0691
 21
63.0382
 31
0.0
  0
LINE
  8
0
 62
     0
 10
76.0691
 20
63.0382
 30
0.0
 11
76.8696
 21
63.0382
 31
0.0
  0
LINE
  8
0
 62
     0
 10
76.8696
 20
63.0382
 30
0.0
 11
76.8696
 21
66.1377
 31
0.0
  0
LINE
  8
0
 62
     0
 10
76.8696
 20
66.1377
 30
0.0
 11
76.0691
 21
66.1377
 31
0.0
  0
LINE
  8
0
 62
     0
 10
76.0691
 20
66.1377
 30
0.0
 11
76.0691
 21
67.1382
 31
0.0
  0
LINE
  8
0
 62
     0
 10
76.0691
 20
67.1382
 30
0.0
 11
62.0695
 21
67.1382
 31
0.0
  0
LINE
  8
0
 62
     0
 10
43.0195
 20
67.1382
 30
0.0
 11
43.0195
 21
66.1377
 31
0.0
  0
LINE
  8
0
 62
     0
 10
43.0195
 20
66.1377
 30
0.0
 11
42.219
 21
66.1377
 31
0.0
  0
LINE
  8
0
 62
     0
 10
42.219
 20
66.1377
 30
0.0
 11
42.219
 21
63.0382
 31
0.0
  0
LINE
  8
0
 62
     0
 10
42.219
 20
63.0382
 30
0.0
 11
43.0195
 21
63.0382
 31
0.0
  0
LINE
  8
0
 62
     0
 10
43.0195
 20
63.0382
 30
0.0
 11
43.0195
 21
57.2382
 31
0.0
  0
LINE
  8
0
 62
     0
 10
43.0195
 20
57.2382
 30
0.0
 11
42.219
 21
57.2382
 31
0.0
  0
LINE
  8
0
 62
     0
 10
42.219
 20
57.2382
 30
0.0
 11
42.219
 21
54.1376
 31
0.0
  0
LINE
  8
0
 62
     0
 10
42.219
 20
54.1376
 30
0.0
 11
43.0195
 21
54.1376
 31
0.0
  0
LINE
  8
0
 62
     0
 10
43.0195
 20
54.1376
 30
0.0
 11
43.0195
 21
53.1386
 31
0.0
  0
LINE
  8
0
 62
     0
 10
43.0195
 20
53.1386
 30
0.0
 11
57.0191
 21
53.1386
 31
0.0
  0
LINE
  8
0
 62
     0
 10
57.0191
 20
53.1386
 30
0.0
 11
57.0191
 21
54.1376
 31
0.0
  0
LINE
  8
0
 62
     0
 10
57.0191
 20
54.1376
 30
0.0
 11
57.8196
 21
54.1376
 31
0.0
  0
LINE
  8
0
 62
     0
 10
57.8196
 20
54.1376
 30
0.0
 11
57.8196
 21
57.2382
 31
0.0
  0
LINE
  8
0
 62
     0
 10
57.8196
 20
57.2382
 30
0.0
 11
57.0191
 21
57.2382
 31
0.0
  0
LINE
  8
0
 62
     0
 10
57.0191
 20
57.2382
 30
0.0
 11
57.0191
 21
63.0382
 31
0.0
  0
LINE
  8
0
 62
     0
 10
57.0191
 20
63.0382
 30
0.0
 11
57.8196
 21
63.0382
 31
0.0
  0
LINE
  8
0
 62
     0
 10
57.8196
 20
63.0382
 30
0.0
 11
57.8196
 21
66.1377
 31
0.0
  0
LINE
  8
0
 62
     0
 10
57.8196
 20
66.1377
 30
0.0
 11
57.0191
 21
66.1377
 31
0.0
  0
LINE
  8
0
 62
     0
 10
57.0191
 20
66.1377
 30
0.0
 11
57.0191
 21
67.1382
 31
0.0
  0
LINE
  8
0
 62
     0
 10
57.0191
 20
67.1382
 30
0.0
 11
43.0195
 21
67.1382
 31
0.0
  0
LINE
  8
0
 62
     0
 10
14.4432
 20
67.1382
 30
0.0
 11
14.4432
 21
66.1377
 31
0.0
  0
LINE
  8
0
 62
     0
 10
14.4432
 20
66.1377
 30
0.0
 11
13.644
 21
66.1377
 31
0.0
  0
LINE
  8
0
 62
     0
 10
13.644
 20
66.1377
 30
0.0
 11
13.644
 21
63.0382
 31
0.0
  0
LINE
  8
0
 62
     0
 10
13.644
 20
63.0382
 30
0.0
 11
14.4432
 21
63.0382
 31
0.0
  0
LINE
  8
0
 62
     0
 10
14.4432
 20
63.0382
 30
0.0
 11
14.4432
 21
57.2382
 31
0.0
  0
LINE
  8
0
 62
     0
 10
14.4432
 20
57.2382
 30
0.0
 11
13.644
 21
57.2382
 31
0.0
  0
LINE
  8
0
 62
     0
 10
13.644
 20
57.2382
 30
0.0
 11
13.644
 21
54.1376
 31
0.0
  0
LINE
  8
0
 62
     0
 10
13.644
 20
54.1376
 30
0.0
 11
14.4432
 21
54.1376
 31
0.0
  0
LINE
  8
0
 62
     0
 10
14.4432
 20
54.1376
 30
0.0
 11
14.4432
 21
53.1386
 31
0.0
  0
LINE
  8
0
 62
     0
 10
14.4432
 20
53.1386
 30
0.0
 11
28.4441
 21
53.1386
 31
0.0
  0
LINE
  8
0
 62
     0
 10
28.4441
 20
53.1386
 30
0.0
 11
28.4441
 21
54.1376
 31
0.0
  0
LINE
  8
0
 62
     0
 10
28.4441
 20
54.1376
 30
0.0
 11
29.2433
 21
54.1376
 31
0.0
  0
LINE
  8
0
 62
     0
 10
29.2433
 20
54.1376
 30
0.0
 11
29.2433
 21
57.2382
 31
0.0
  0
LINE
  8
0
 62
     0
 10
29.2433
 20
57.2382
 30
0.0
 11
28.4441
 21
57.2382
 31
0.0
  0
LINE
  8
0
 62
     0
 10
28.4441
 20
57.2382
 30
0.0
 11
28.4441
 21
63.0382
 31
0.0
  0
LINE
  8
0
 62
     0
 10
28.4441
 20
63.0382
 30
0.0
 11
29.2433
 21
63.0382
 31
0.0
  0
LINE
  8
0
 62
     0
 10
29.2433
 20
63.0382
 30
0.0
 11
29.2433
 21
66.1377
 31
0.0
  0
LINE
  8
0
 62
     0
 10
29.2433
 20
66.1377
 30
0.0
 11
28.4441
 21
66.1377
 31
0.0
  0
LINE
  8
0
 62
     0
 10
28.4441
 20
66.1377
 30
0.0
 11
28.4441
 21
67.1382
 31
0.0
  0
LINE
  8
0
 62
     0
 10
28.4441
 20
67.1382
 30
0.0
 11
14.4432
 21
67.1382
 31
0.0
  0
LINE
  8
0
 62
     0
 10
128.744
 20
86.1882
 30
0.0
 11
128.744
 21
85.1877
 31
0.0
  0
LINE
  8
0
 62
     0
 10
128.744
 20
85.1877
 30
0.0
 11
127.944
 21
85.1877
 31
0.0
  0
LINE
  8
0
 62
     0
 10
127.944
 20
85.1877
 30
0.0
 11
127.944
 21
82.0882
 31
0.0
  0
LINE
  8
0
 62
     0
 10
127.944
 20
82.0882
 30
0.0
 11
128.744
 21
82.0882
 31
0.0
  0
LINE
  8
0
 62
     0
 10
128.744
 20
82.0882
 30
0.0
 11
128.744
 21
76.2882
 31
0.0
  0
LINE
  8
0
 62
     0
 10
128.744
 20
76.2882
 30
0.0
 11
127.944
 21
76.2882
 31
0.0
  0
LINE
  8
0
 62
     0
 10
127.944
 20
76.2882
 30
0.0
 11
127.944
 21
73.1876
 31
0.0
  0
LINE
  8
0
 62
     0
 10
127.944
 20
73.1876
 30
0.0
 11
128.744
 21
73.1876
 31
0.0
  0
LINE
  8
0
 62
     0
 10
128.744
 20
73.1876
 30
0.0
 11
128.744
 21
72.1886
 31
0.0
  0
LINE
  8
0
 62
     0
 10
128.744
 20
72.1886
 30
0.0
 11
142.744
 21
72.1886
 31
0.0
  0
LINE
  8
0
 62
     0
 10
142.744
 20
72.1886
 30
0.0
 11
142.744
 21
73.1876
 31
0.0
  0
LINE
  8
0
 62
     0
 10
142.744
 20
73.1876
 30
0.0
 11
143.545
 21
73.1876
 31
0.0
  0
LINE
  8
0
 62
     0
 10
143.545
 20
73.1876
 30
0.0
 11
143.545
 21
76.2882
 31
0.0
  0
LINE
  8
0
 62
     0
 10
143.545
 20
76.2882
 30
0.0
 11
142.744
 21
76.2882
 31
0.0
  0
LINE
  8
0
 62
     0
 10
142.744
 20
76.2882
 30
0.0
 11
142.744
 21
82.0882
 31
0.0
  0
LINE
  8
0
 62
     0
 10
142.744
 20
82.0882
 30
0.0
 11
143.545
 21
82.0882
 31
0.0
  0
LINE
  8
0
 62
     0
 10
143.545
 20
82.0882
 30
0.0
 11
143.545
 21
85.1877
 31
0.0
  0
LINE
  8
0
 62
     0
 10
143.545
 20
85.1877
 30
0.0
 11
142.744
 21
85.1877
 31
0.0
  0
LINE
  8
0
 62
     0
 10
142.744
 20
85.1877
 30
0.0
 11
142.744
 21
86.1882
 31
0.0
  0
LINE
  8
0
 62
     0
 10
142.744
 20
86.1882
 30
0.0
 11
128.744
 21
86.1882
 31
0.0
  0
LINE
  8
0
 62
     0
 10
81.1195
 20
86.1882
 30
0.0
 11
81.1195
 21
85.1877
 31
0.0
  0
LINE
  8
0
 62
     0
 10
81.1195
 20
85.1877
 30
0.0
 11
80.319
 21
85.1877
 31
0.0
  0
LINE
  8
0
 62
     0
 10
80.319
 20
85.1877
 30
0.0
 11
80.319
 21
82.0882
 31
0.0
  0
LINE
  8
0
 62
     0
 10
80.319
 20
82.0882
 30
0.0
 11
81.1195
 21
82.0882
 31
0.0
  0
LINE
  8
0
 62
     0
 10
81.1195
 20
82.0882
 30
0.0
 11
81.1195
 21
76.2882
 31
0.0
  0
LINE
  8
0
 62
     0
 10
81.1195
 20
76.2882
 30
0.0
 11
80.319
 21
76.2882
 31
0.0
  0
LINE
  8
0
 62
     0
 10
80.319
 20
76.2882
 30
0.0
 11
80.319
 21
73.1876
 31
0.0
  0
LINE
  8
0
 62
     0
 10
80.319
 20
73.1876
 30
0.0
 11
81.1195
 21
73.1876
 31
0.0
  0
LINE
  8
0
 62
     0
 10
81.1195
 20
73.1876
 30
0.0
 11
81.1195
 21
72.1886
 31
0.0
  0
LINE
  8
0
 62
     0
 10
81.1195
 20
72.1886
 30
0.0
 11
95.1191
 21
72.1886
 31
0.0
  0
LINE
  8
0
 62
     0
 10
95.1191
 20
72.1886
 30
0.0
 11
95.1191
 21
73.1876
 31
0.0
  0
LINE
  8
0
 62
     0
 10
95.1191
 20
73.1876
 30
0.0
 11
95.9196
 21
73.1876
 31
0.0
  0
LINE
  8
0
 62
     0
 10
95.9196
 20
73.1876
 30
0.0
 11
95.9196
 21
76.2882
 31
0.0
  0
LINE
  8
0
 62
     0
 10
95.9196
 20
76.2882
 30
0.0
 11
95.1191
 21
76.2882
 31
0.0
  0
LINE
  8
0
 62
     0
 10
95.1191
 20
76.2882
 30
0.0
 11
95.1191
 21
82.0882
 31
0.0
  0
LINE
  8
0
 62
     0
 10
95.1191
 20
82.0882
 30
0.0
 11
95.9196
 21
82.0882
 31
0.0
  0
LINE
  8
0
 62
     0
 10
95.9196
 20
82.0882
 30
0.0
 11
95.9196
 21
85.1877
 31
0.0
  0
LINE
  8
0
 62
     0
 10
95.9196
 20
85.1877
 30
0.0
 11
95.1191
 21
85.1877
 31
0.0
  0
LINE
  8
0
 62
     0
 10
95.1191
 20
85.1877
 30
0.0
 11
95.1191
 21
86.1882
 31
0.0
  0
LINE
  8
0
 62
     0
 10
95.1191
 20
86.1882
 30
0.0
 11
81.1195
 21
86.1882
 31
0.0
  0
LINE
  8
0
 62
     0
 10
62.0695
 20
86.1882
 30
0.0
 11
62.0695
 21
85.1877
 31
0.0
  0
LINE
  8
0
 62
     0
 10
62.0695
 20
85.1877
 30
0.0
 11
61.269
 21
85.1877
 31
0.0
  0
LINE
  8
0
 62
     0
 10
61.269
 20
85.1877
 30
0.0
 11
61.269
 21
82.0882
 31
0.0
  0
LINE
  8
0
 62
     0
 10
61.269
 20
82.0882
 30
0.0
 11
62.0695
 21
82.0882
 31
0.0
  0
LINE
  8
0
 62
     0
 10
62.0695
 20
82.0882
 30
0.0
 11
62.0695
 21
76.2882
 31
0.0
  0
LINE
  8
0
 62
     0
 10
62.0695
 20
76.2882
 30
0.0
 11
61.269
 21
76.2882
 31
0.0
  0
LINE
  8
0
 62
     0
 10
61.269
 20
76.2882
 30
0.0
 11
61.269
 21
73.1876
 31
0.0
  0
LINE
  8
0
 62
     0
 10
61.269
 20
73.1876
 30
0.0
 11
62.0695
 21
73.1876
 31
0.0
  0
LINE
  8
0
 62
     0
 10
62.0695
 20
73.1876
 30
0.0
 11
62.0695
 21
72.1886
 31
0.0
  0
LINE
  8
0
 62
     0
 10
62.0695
 20
72.1886
 30
0.0
 11
76.0691
 21
72.1886
 31
0.0
  0
LINE
  8
0
 62
     0
 10
76.0691
 20
72.1886
 30
0.0
 11
76.0691
 21
73.1876
 31
0.0
  0
LINE
  8
0
 62
     0
 10
76.0691
 20
73.1876
 30
0.0
 11
76.8696
 21
73.1876
 31
0.0
  0
LINE
  8
0
 62
     0
 10
76.8696
 20
73.1876
 30
0.0
 11
76.8696
 21
76.2882
 31
0.0
  0
LINE
  8
0
 62
     0
 10
76.8696
 20
76.2882
 30
0.0
 11
76.0691
 21
76.2882
 31
0.0
  0
LINE
  8
0
 62
     0
 10
76.0691
 20
76.2882
 30
0.0
 11
76.0691
 21
82.0882
 31
0.0
  0
LINE
  8
0
 62
     0
 10
76.0691
 20
82.0882
 30
0.0
 11
76.8696
 21
82.0882
 31
0.0
  0
LINE
  8
0
 62
     0
 10
76.8696
 20
82.0882
 30
0.0
 11
76.8696
 21
85.1877
 31
0.0
  0
LINE
  8
0
 62
     0
 10
76.8696
 20
85.1877
 30
0.0
 11
76.0691
 21
85.1877
 31
0.0
  0
LINE
  8
0
 62
     0
 10
76.0691
 20
85.1877
 30
0.0
 11
76.0691
 21
86.1882
 31
0.0
  0
LINE
  8
0
 62
     0
 10
76.0691
 20
86.1882
 30
0.0
 11
62.0695
 21
86.1882
 31
0.0
  0
LINE
  8
0
 62
     0
 10
43.0195
 20
86.1882
 30
0.0
 11
43.0195
 21
85.1877
 31
0.0
  0
LINE
  8
0
 62
     0
 10
43.0195
 20
85.1877
 30
0.0
 11
42.219
 21
85.1877
 31
0.0
  0
LINE
  8
0
 62
     0
 10
42.219
 20
85.1877
 30
0.0
 11
42.219
 21
82.0882
 31
0.0
  0
LINE
  8
0
 62
     0
 10
42.219
 20
82.0882
 30
0.0
 11
43.0195
 21
82.0882
 31
0.0
  0
LINE
  8
0
 62
     0
 10
43.0195
 20
82.0882
 30
0.0
 11
43.0195
 21
76.2882
 31
0.0
  0
LINE
  8
0
 62
     0
 10
43.0195
 20
76.2882
 30
0.0
 11
42.219
 21
76.2882
 31
0.0
  0
LINE
  8
0
 62
     0
 10
42.219
 20
76.2882
 30
0.0
 11
42.219
 21
73.1876
 31
0.0
  0
LINE
  8
0
 62
     0
 10
42.219
 20
73.1876
 30
0.0
 11
43.0195
 21
73.1876
 31
0.0
  0
LINE
  8
0
 62
     0
 10
43.0195
 20
73.1876
 30
0.0
 11
43.0195
 21
72.1886
 31
0.0
  0
LINE
  8
0
 62
     0
 10
43.0195
 20
72.1886
 30
0.0
 11
57.0191
 21
72.1886
 31
0.0
  0
LINE
  8
0
 62
     0
 10
57.0191
 20
72.1886
 30
0.0
 11
57.0191
 21
73.1876
 31
0.0
  0
LINE
  8
0
 62
     0
 10
57.0191
 20
73.1876
 30
0.0
 11
57.8196
 21
73.1876
 31
0.0
  0
LINE
  8
0
 62
     0
 10
57.8196
 20
73.1876
 30
0.0
 11
57.8196
 21
76.2882
 31
0.0
  0
LINE
  8
0
 62
     0
 10
57.8196
 20
76.2882
 30
0.0
 11
57.0191
 21
76.2882
 31
0.0
  0
LINE
  8
0
 62
     0
 10
57.0191
 20
76.2882
 30
0.0
 11
57.0191
 21
82.0882
 31
0.0
  0
LINE
  8
0
 62
     0
 10
57.0191
 20
82.0882
 30
0.0
 11
57.8196
 21
82.0882
 31
0.0
  0
LINE
  8
0
 62
     0
 10
57.8196
 20
82.0882
 30
0.0
 11
57.8196
 21
85.1877
 31
0.0
  0
LINE
  8
0
 62
     0
 10
57.8196
 20
85.1877
 30
0.0
 11
57.0191
 21
85.1877
 31
0.0
  0
LINE
  8
0
 62
     0
 10
57.0191
 20
85.1877
 30
0.0
 11
57.0191
 21
86.1882
 31
0.0
  0
LINE
  8
0
 62
     0
 10
57.0191
 20
86.1882
 30
0.0
 11
43.0195
 21
86.1882
 31
0.0
  0
LINE
  8
0
 62
     0
 10
14.4432
 20
86.1882
 30
0.0
 11
14.4432
 21
85.1877
 31
0.0
  0
LINE
  8
0
 62
     0
 10
14.4432
 20
85.1877
 30
0.0
 11
13.644
 21
85.1877
 31
0.0
  0
LINE
  8
0
 62
     0
 10
13.644
 20
85.1877
 30
0.0
 11
13.644
 21
82.0882
 31
0.0
  0
LINE
  8
0
 62
     0
 10
13.644
 20
82.0882
 30
0.0
 11
14.4432
 21
82.0882
 31
0.0
  0
LINE
  8
0
 62
     0
 10
14.4432
 20
82.0882
 30
0.0
 11
14.4432
 21
76.2882
 31
0.0
  0
LINE
  8
0
 62
     0
 10
14.4432
 20
76.2882
 30
0.0
 11
13.644
 21
76.2882
 31
0.0
  0
LINE
  8
0
 62
     0
 10
13.644
 20
76.2882
 30
0.0
 11
13.644
 21
73.1876
 31
0.0
  0
LINE
  8
0
 62
     0
 10
13.644
 20
73.1876
 30
0.0
 11
14.4432
 21
73.1876
 31
0.0
  0
LINE
  8
0
 62
     0
 10
14.4432
 20
73.1876
 30
0.0
 11
14.4432
 21
72.1886
 31
0.0
  0
LINE
  8
0
 62
     0
 10
14.4432
 20
72.1886
 30
0.0
 11
28.4441
 21
72.1886
 31
0.0
  0
LINE
  8
0
 62
     0
 10
28.4441
 20
72.1886
 30
0.0
 11
28.4441
 21
73.1876
 31
0.0
  0
LINE
  8
0
 62
     0
 10
28.4441
 20
73.1876
 30
0.0
 11
29.2433
 21
73.1876
 31
0.0
  0
LINE
  8
0
 62
     0
 10
29.2433
 20
73.1876
 30
0.0
 11
29.2433
 21
76.2882
 31
0.0
  0
LINE
  8
0
 62
     0
 10
29.2433
 20
76.2882
 30
0.0
 11
28.4441
 21
76.2882
 31
0.0
  0
LINE
  8
0
 62
     0
 10
28.4441
 20
76.2882
 30
0.0
 11
28.4441
 21
82.0882
 31
0.0
  0
LINE
  8
0
 62
     0
 10
28.4441
 20
82.0882
 30
0.0
 11
29.2433
 21
82.0882
 31
0.0
  0
LINE
  8
0
 62
     0
 10
29.2433
 20
82.0882
 30
0.0
 11
29.2433
 21
85.1877
 31
0.0
  0
LINE
  8
0
 62
     0
 10
29.2433
 20
85.1877
 30
0.0
 11
28.4441
 21
85.1877
 31
0.0
  0
LINE
  8
0
 62
     0
 10
28.4441
 20
85.1877
 30
0.0
 11
28.4441
 21
86.1882
 31
0.0
  0
LINE
  8
0
 62
     0
 10
28.4441
 20
86.1882
 30
0.0
 11
14.4432
 21
86.1882
 31
0.0
  0
LINE
  8
0
 62
     0
 10
128.744
 20
105.238
 30
0.0
 11
128.744
 21
104.238
 31
0.0
  0
LINE
  8
0
 62
     0
 10
128.744
 20
104.238
 30
0.0
 11
127.944
 21
104.238
 31
0.0
  0
LINE
  8
0
 62
     0
 10
127.944
 20
104.238
 30
0.0
 11
127.944
 21
101.138
 31
0.0
  0
LINE
  8
0
 62
     0
 10
127.944
 20
101.138
 30
0.0
 11
128.744
 21
101.138
 31
0.0
  0
LINE
  8
0
 62
     0
 10
128.744
 20
101.138
 30
0.0
 11
128.744
 21
95.3382
 31
0.0
  0
LINE
  8
0
 62
     0
 10
128.744
 20
95.3382
 30
0.0
 11
127.944
 21
95.3382
 31
0.0
  0
LINE
  8
0
 62
     0
 10
127.944
 20
95.3382
 30
0.0
 11
127.944
 21
92.2376
 31
0.0
  0
LINE
  8
0
 62
     0
 10
127.944
 20
92.2376
 30
0.0
 11
128.744
 21
92.2376
 31
0.0
  0
LINE
  8
0
 62
     0
 10
128.744
 20
92.2376
 30
0.0
 11
128.744
 21
91.2386
 31
0.0
  0
LINE
  8
0
 62
     0
 10
128.744
 20
91.2386
 30
0.0
 11
142.744
 21
91.2386
 31
0.0
  0
LINE
  8
0
 62
     0
 10
142.744
 20
91.2386
 30
0.0
 11
142.744
 21
92.2376
 31
0.0
  0
LINE
  8
0
 62
     0
 10
142.744
 20
92.2376
 30
0.0
 11
143.545
 21
92.2376
 31
0.0
  0
LINE
  8
0
 62
     0
 10
143.545
 20
92.2376
 30
0.0
 11
143.545
 21
95.3382
 31
0.0
  0
LINE
  8
0
 62
     0
 10
143.545
 20
95.3382
 30
0.0
 11
142.744
 21
95.3382
 31
0.0
  0
LINE
  8
0
 62
     0
 10
142.744
 20
95.3382
 30
0.0
 11
142.744
 21
101.138
 31
0.0
  0
LINE
  8
0
 62
     0
 10
142.744
 20
101.138
 30
0.0
 11
143.545
 21
101.138
 31
0.0
  0
LINE
  8
0
 62
     0
 10
143.545
 20
101.138
 30
0.0
 11
143.545
 21
104.238
 31
0.0
  0
LINE
  8
0
 62
     0
 10
143.545
 20
104.238
 30
0.0
 11
142.744
 21
104.238
 31
0.0
  0
LINE
  8
0
 62
     0
 10
142.744
 20
104.238
 30
0.0
 11
142.744
 21
105.238
 31
0.0
  0
LINE
  8
0
 62
     0
 10
142.744
 20
105.238
 30
0.0
 11
128.744
 21
105.238
 31
0.0
  0
LINE
  8
0
 62
     0
 10
100.169
 20
105.238
 30
0.0
 11
100.169
 21
104.238
 31
0.0
  0
LINE
  8
0
 62
     0
 10
100.169
 20
104.238
 30
0.0
 11
99.369
 21
104.238
 31
0.0
  0
LINE
  8
0
 62
     0
 10
99.369
 20
104.238
 30
0.0
 11
99.369
 21
101.138
 31
0.0
  0
LINE
  8
0
 62
     0
 10
99.369
 20
101.138
 30
0.0
 11
100.169
 21
101.138
 31
0.0
  0
LINE
  8
0
 62
     0
 10
100.169
 20
101.138
 30
0.0
 11
100.169
 21
95.3382
 31
0.0
  0
LINE
  8
0
 62
     0
 10
100.169
 20
95.3382
 30
0.0
 11
99.369
 21
95.3382
 31
0.0
  0
LINE
  8
0
 62
     0
 10
99.369
 20
95.3382
 30
0.0
 11
99.369
 21
92.2376
 31
0.0
  0
LINE
  8
0
 62
     0
 10
99.369
 20
92.2376
 30
0.0
 11
100.169
 21
92.2376
 31
0.0
  0
LINE
  8
0
 62
     0
 10
100.169
 20
92.2376
 30
0.0
 11
100.169
 21
91.2386
 31
0.0
  0
LINE
  8
0
 62
     0
 10
100.169
 20
91.2386
 30
0.0
 11
114.169
 21
91.2386
 31
0.0
  0
LINE
  8
0
 62
     0
 10
114.169
 20
91.2386
 30
0.0
 11
114.169
 21
92.2376
 31
0.0
  0
LINE
  8
0
 62
     0
 10
114.169
 20
92.2376
 30
0.0
 11
114.97
 21
92.2376
 31
0.0
  0
LINE
  8
0
 62
     0
 10
114.97
 20
92.2376
 30
0.0
 11
114.97
 21
95.3382
 31
0.0
  0
LINE
  8
0
 62
     0
 10
114.97
 20
95.3382
 30
0.0
 11
114.169
 21
95.3382
 31
0.0
  0
LINE
  8
0
 62
     0
 10
114.169
 20
95.3382
 30
0.0
 11
114.169
 21
101.138
 31
0.0
  0
LINE
  8
0
 62
     0
 10
114.169
 20
101.138
 30
0.0
 11
114.97
 21
101.138
 31
0.0
  0
LINE
  8
0
 62
     0
 10
114.97
 20
101.138
 30
0.0
 11
114.97
 21
104.238
 31
0.0
  0
LINE
  8
0
 62
     0
 10
114.97
 20
104.238
 30
0.0
 11
114.169
 21
104.238
 31
0.0
  0
LINE
  8
0
 62
     0
 10
114.169
 20
104.238
 30
0.0
 11
114.169
 21
105.238
 31
0.0
  0
LINE
  8
0
 62
     0
 10
114.169
 20
105.238
 30
0.0
 11
100.169
 21
105.238
 31
0.0
  0
LINE
  8
0
 62
     0
 10
81.1195
 20
105.238
 30
0.0
 11
81.1195
 21
104.238
 31
0.0
  0
LINE
  8
0
 62
     0
 10
81.1195
 20
104.238
 30
0.0
 11
80.319
 21
104.238
 31
0.0
  0
LINE
  8
0
 62
     0
 10
80.319
 20
104.238
 30
0.0
 11
80.319
 21
101.138
 31
0.0
  0
LINE
  8
0
 62
     0
 10
80.319
 20
101.138
 30
0.0
 11
81.1195
 21
101.138
 31
0.0
  0
LINE
  8
0
 62
     0
 10
81.1195
 20
101.138
 30
0.0
 11
81.1195
 21
95.3382
 31
0.0
  0
LINE
  8
0
 62
     0
 10
81.1195
 20
95.3382
 30
0.0
 11
80.319
 21
95.3382
 31
0.0
  0
LINE
  8
0
 62
     0
 10
80.319
 20
95.3382
 30
0.0
 11
80.319
 21
92.2376
 31
0.0
  0
LINE
  8
0
 62
     0
 10
80.319
 20
92.2376
 30
0.0
 11
81.1195
 21
92.2376
 31
0.0
  0
LINE
  8
0
 62
     0
 10
81.1195
 20
92.2376
 30
0.0
 11
81.1195
 21
91.2386
 31
0.0
  0
LINE
  8
0
 62
     0
 10
81.1195
 20
91.2386
 30
0.0
 11
95.1191
 21
91.2386
 31
0.0
  0
LINE
  8
0
 62
     0
 10
95.1191
 20
91.2386
 30
0.0
 11
95.1191
 21
92.2376
 31
0.0
  0
LINE
  8
0
 62
     0
 10
95.1191
 20
92.2376
 30
0.0
 11
95.9196
 21
92.2376
 31
0.0
  0
LINE
  8
0
 62
     0
 10
95.9196
 20
92.2376
 30
0.0
 11
95.9196
 21
95.3382
 31
0.0
  0
LINE
  8
0
 62
     0
 10
95.9196
 20
95.3382
 30
0.0
 11
95.1191
 21
95.3382
 31
0.0
  0
LINE
  8
0
 62
     0
 10
95.1191
 20
95.3382
 30
0.0
 11
95.1191
 21
101.138
 31
0.0
  0
LINE
  8
0
 62
     0
 10
95.1191
 20
101.138
 30
0.0
 11
95.9196
 21
101.138
 31
0.0
  0
LINE
  8
0
 62
     0
 10
95.9196
 20
101.138
 30
0.0
 11
95.9196
 21
104.238
 31
0.0
  0
LINE
  8
0
 62
     0
 10
95.9196
 20
104.238
 30
0.0
 11
95.1191
 21
104.238
 31
0.0
  0
LINE
  8
0
 62
     0
 10
95.1191
 20
104.238
 30
0.0
 11
95.1191
 21
105.238
 31
0.0
  0
LINE
  8
0
 62
     0
 10
95.1191
 20
105.238
 30
0.0
 11
81.1195
 21
105.238
 31
0.0
  0
LINE
  8
0
 62
     0
 10
62.0695
 20
105.238
 30
0.0
 11
62.0695
 21
104.238
 31
0.0
  0
LINE
  8
0
 62
     0
 10
62.0695
 20
104.238
 30
0.0
 11
61.269
 21
104.238
 31
0.0
  0
LINE
  8
0
 62
     0
 10
61.269
 20
104.238
 30
0.0
 11
61.269
 21
101.138
 31
0.0
  0
LINE
  8
0
 62
     0
 10
61.269
 20
101.138
 30
0.0
 11
62.0695
 21
101.138
 31
0.0
  0
LINE
  8
0
 62
     0
 10
62.0695
 20
101.138
 30
0.0
 11
62.0695
 21
95.3382
 31
0.0
  0
LINE
  8
0
 62
     0
 10
62.0695
 20
95.3382
 30
0.0
 11
61.269
 21
95.3382
 31
0.0
  0
LINE
  8
0
 62
     0
 10
61.269
 20
95.3382
 30
0.0
 11
61.269
 21
92.2376
 31
0.0
  0
LINE
  8
0
 62
     0
 10
61.269
 20
92.2376
 30
0.0
 11
62.0695
 21
92.2376
 31
0.0
  0
LINE
  8
0
 62
     0
 10
62.0695
 20
92.2376
 30
0.0
 11
62.0695
 21
91.2386
 31
0.0
  0
LINE
  8
0
 62
     0
 10
62.0695
 20
91.2386
 30
0.0
 11
76.0691
 21
91.2386
 31
0.0
  0
LINE
  8
0
 62
     0
 10
76.0691
 20
91.2386
 30
0.0
 11
76.0691
 21
92.2376
 31
0.0
  0
LINE
  8
0
 62
     0
 10
76.0691
 20
92.2376
 30
0.0
 11
76.8696
 21
92.2376
 31
0.0
  0
LINE
  8
0
 62
     0
 10
76.8696
 20
92.2376
 30
0.0
 11
76.8696
 21
95.3382
 31
0.0
  0
LINE
  8
0
 62
     0
 10
76.8696
 20
95.3382
 30
0.0
 11
76.0691
 21
95.3382
 31
0.0
  0
LINE
  8
0
 62
     0
 10
76.0691
 20
95.3382
 30
0.0
 11
76.0691
 21
101.138
 31
0.0
  0
LINE
  8
0
 62
     0
 10
76.0691
 20
101.138
 30
0.0
 11
76.8696
 21
101.138
 31
0.0
  0
LINE
  8
0
 62
     0
 10
76.8696
 20
101.138
 30
0.0
 11
76.8696
 21
104.238
 31
0.0
  0
LINE
  8
0
 62
     0
 10
76.8696
 20
104.238
 30
0.0
 11
76.0691
 21
104.238
 31
0.0
  0
LINE
  8
0
 62
     0
 10
76.0691
 20
104.238
 30
0.0
 11
76.0691
 21
105.238
 31
0.0
  0
LINE
  8
0
 62
     0
 10
76.0691
 20
105.238
 30
0.0
 11
62.0695
 21
105.238
 31
0.0
  0
LINE
  8
0
 62
     0
 10
43.0195
 20
105.238
 30
0.0
 11
43.0195
 21
104.238
 31
0.0
  0
LINE
  8
0
 62
     0
 10
43.0195
 20
104.238
 30
0.0
 11
42.219
 21
104.238
 31
0.0
  0
LINE
  8
0
 62
     0
 10
42.219
 20
104.238
 30
0.0
 11
42.219
 21
101.138
 31
0.0
  0
LINE
  8
0
 62
     0
 10
42.219
 20
101.138
 30
0.0
 11
43.0195
 21
101.138
 31
0.0
  0
LINE
  8
0
 62
     0
 10
43.0195
 20
101.138
 30
0.0
 11
43.0195
 21
95.3382
 31
0.0
  0
LINE
  8
0
 62
     0
 10
43.0195
 20
95.3382
 30
0.0
 11
42.219
 21
95.3382
 31
0.0
  0
LINE
  8
0
 62
     0
 10
42.219
 20
95.3382
 30
0.0
 11
42.219
 21
92.2376
 31
0.0
  0
LINE
  8
0
 62
     0
 10
42.219
 20
92.2376
 30
0.0
 11
43.0195
 21
92.2376
 31
0.0
  0
LINE
  8
0
 62
     0
 10
43.0195
 20
92.2376
 30
0.0
 11
43.0195
 21
91.2386
 31
0.0
  0
LINE
  8
0
 62
     0
 10
43.0195
 20
91.2386
 30
0.0
 11
57.0191
 21
91.2386
 31
0.0
  0
LINE
  8
0
 62
     0
 10
57.0191
 20
91.2386
 30
0.0
 11
57.0191
 21
92.2376
 31
0.0
  0
LINE
  8
0
 62
     0
 10
57.0191
 20
92.2376
 30
0.0
 11
57.8196
 21
92.2376
 31
0.0
  0
LINE
  8
0
 62
     0
 10
57.8196
 20
92.2376
 30
0.0
 11
57.8196
 21
95.3382
 31
0.0
  0
LINE
  8
0
 62
     0
 10
57.8196
 20
95.3382
 30
0.0
 11
57.0191
 21
95.3382
 31
0.0
  0
LINE
  8
0
 62
     0
 10
57.0191
 20
95.3382
 30
0.0
 11
57.0191
 21
101.138
 31
0.0
  0
LINE
  8
0
 62
     0
 10
57.0191
 20
101.138
 30
0.0
 11
57.8196
 21
101.138
 31
0.0
  0
LINE
  8
0
 62
     0
 10
57.8196
 20
101.138
 30
0.0
 11
57.8196
 21
104.238
 31
0.0
  0
LINE
  8
0
 62
     0
 10
57.8196
 20
104.238
 30
0.0
 11
57.0191
 21
104.238
 31
0.0
  0
LINE
  8
0
 62
     0
 10
57.0191
 20
104.238
 30
0.0
 11
57.0191
 21
105.238
 31
0.0
  0
LINE
  8
0
 62
     0
 10
57.0191
 20
105.238
 30
0.0
 11
43.0195
 21
105.238
 31
0.0
  0
LINE
  8
0
 62
     0
 10
14.4432
 20
105.238
 30
0.0
 11
14.4432
 21
104.238
 31
0.0
  0
LINE
  8
0
 62
     0
 10
14.4432
 20
104.238
 30
0.0
 11
13.644
 21
104.238
 31
0.0
  0
LINE
  8
0
 62
     0
 10
13.644
 20
104.238
 30
0.0
 11
13.644
 21
101.138
 31
0.0
  0
LINE
  8
0
 62
     0
 10
13.644
 20
101.138
 30
0.0
 11
14.4432
 21
101.138
 31
0.0
  0
LINE
  8
0
 62
     0
 10
14.4432
 20
101.138
 30
0.0
 11
14.4432
 21
95.3382
 31
0.0
  0
LINE
  8
0
 62
     0
 10
14.4432
 20
95.3382
 30
0.0
 11
13.644
 21
95.3382
 31
0.0
  0
LINE
  8
0
 62
     0
 10
13.644
 20
95.3382
 30
0.0
 11
13.644
 21
92.2376
 31
0.0
  0
LINE
  8
0
 62
     0
 10
13.644
 20
92.2376
 30
0.0
 11
14.4432
 21
92.2376
 31
0.0
  0
LINE
  8
0
 62
     0
 10
14.4432
 20
92.2376
 30
0.0
 11
14.4432
 21
91.2386
 31
0.0
  0
LINE
  8
0
 62
     0
 10
14.4432
 20
91.2386
 30
0.0
 11
28.4441
 21
91.2386
 31
0.0
  0
LINE
  8
0
 62
     0
 10
28.4441
 20
91.2386
 30
0.0
 11
28.4441
 21
92.2376
 31
0.0
  0
LINE
  8
0
 62
     0
 10
28.4441
 20
92.2376
 30
0.0
 11
29.2433
 21
92.2376
 31
0.0
  0
LINE
  8
0
 62
     0
 10
29.2433
 20
92.2376
 30
0.0
 11
29.2433
 21
95.3382
 31
0.0
  0
LINE
  8
0
 62
     0
 10
29.2433
 20
95.3382
 30
0.0
 11
28.4441
 21
95.3382
 31
0.0
  0
LINE
  8
0
 62
     0
 10
28.4441
 20
95.3382
 30
0.0
 11
28.4441
 21
101.138
 31
0.0
  0
LINE
  8
0
 62
     0
 10
28.4441
 20
101.138
 30
0.0
 11
29.2433
 21
101.138
 31
0.0
  0
LINE
  8
0
 62
     0
 10
29.2433
 20
101.138
 30
0.0
 11
29.2433
 21
104.238
 31
0.0
  0
LINE
  8
0
 62
     0
 10
29.2433
 20
104.238
 30
0.0
 11
28.4441
 21
104.238
 31
0.0
  0
LINE
  8
0
 62
     0
 10
28.4441
 20
104.238
 30
0.0
 11
28.4441
 21
105.238
 31
0.0
  0
LINE
  8
0
 62
     0
 10
28.4441
 20
105.238
 30
0.0
 11
14.4432
 21
105.238
 31
0.0
  0
LINE
  8
0
 62
     0
 10
100.169
 20
133.813
 30
0.0
 11
100.169
 21
132.813
 31
0.0
  0
LINE
  8
0
 62
     0
 10
100.169
 20
132.813
 30
0.0
 11
99.369
 21
132.813
 31
0.0
  0
LINE
  8
0
 62
     0
 10
99.369
 20
132.813
 30
0.0
 11
99.369
 21
129.713
 31
0.0
  0
LINE
  8
0
 62
     0
 10
99.369
 20
129.713
 30
0.0
 11
100.169
 21
129.713
 31
0.0
  0
LINE
  8
0
 62
     0
 10
100.169
 20
129.713
 30
0.0
 11
100.169
 21
123.913
 31
0.0
  0
LINE
  8
0
 62
     0
 10
100.169
 20
123.913
 30
0.0
 11
99.369
 21
123.913
 31
0.0
  0
LINE
  8
0
 62
     0
 10
99.369
 20
123.913
 30
0.0
 11
99.369
 21
120.814
 31
0.0
  0
LINE
  8
0
 62
     0
 10
99.369
 20
120.814
 30
0.0
 11
100.169
 21
120.814
 31
0.0
  0
LINE
  8
0
 62
     0
 10
100.169
 20
120.814
 30
0.0
 11
100.169
 21
119.814
 31
0.0
  0
LINE
  8
0
 62
     0
 10
100.169
 20
119.814
 30
0.0
 11
114.169
 21
119.814
 31
0.0
  0
LINE
  8
0
 62
     0
 10
114.169
 20
119.814
 30
0.0
 11
114.169
 21
120.814
 31
0.0
  0
LINE
  8
0
 62
     0
 10
114.169
 20
120.814
 30
0.0
 11
114.97
 21
120.814
 31
0.0
  0
LINE
  8
0
 62
     0
 10
114.97
 20
120.814
 30
0.0
 11
114.97
 21
123.913
 31
0.0
  0
LINE
  8
0
 62
     0
 10
114.97
 20
123.913
 30
0.0
 11
114.169
 21
123.913
 31
0.0
  0
LINE
  8
0
 62
     0
 10
114.169
 20
123.913
 30
0.0
 11
114.169
 21
129.713
 31
0.0
  0
LINE
  8
0
 62
     0
 10
114.169
 20
129.713
 30
0.0
 11
114.97
 21
129.713
 31
0.0
  0
LINE
  8
0
 62
     0
 10
114.97
 20
129.713
 30
0.0
 11
114.97
 21
132.813
 31
0.0
  0
LINE
  8
0
 62
     0
 10
114.97
 20
132.813
 30
0.0
 11
114.169
 21
132.813
 31
0.0
  0
LINE
  8
0
 62
     0
 10
114.169
 20
132.813
 30
0.0
 11
114.169
 21
133.813
 31
0.0
  0
LINE
  8
0
 62
     0
 10
114.169
 20
133.813
 30
0.0
 11
100.169
 21
133.813
 31
0.0
  0
LINE
  8
0
 62
     0
 10
81.1195
 20
133.813
 30
0.0
 11
81.1195
 21
132.813
 31
0.0
  0
LINE
  8
0
 62
     0
 10
81.1195
 20
132.813
 30
0.0
 11
80.319
 21
132.813
 31
0.0
  0
LINE
  8
0
 62
     0
 10
80.319
 20
132.813
 30
0.0
 11
80.319
 21
129.713
 31
0.0
  0
LINE
  8
0
 62
     0
 10
80.319
 20
129.713
 30
0.0
 11
81.1195
 21
129.713
 31
0.0
  0
LINE
  8
0
 62
     0
 10
81.1195
 20
129.713
 30
0.0
 11
81.1195
 21
123.913
 31
0.0
  0
LINE
  8
0
 62
     0
 10
81.1195
 20
123.913
 30
0.0
 11
80.319
 21
123.913
 31
0.0
  0
LINE
  8
0
 62
     0
 10
80.319
 20
123.913
 30
0.0
 11
80.319
 21
120.814
 31
0.0
  0
LINE
  8
0
 62
     0
 10
80.319
 20
120.814
 30
0.0
 11
81.1195
 21
120.814
 31
0.0
  0
LINE
  8
0
 62
     0
 10
81.1195
 20
120.814
 30
0.0
 11
81.1195
 21
119.814
 31
0.0
  0
LINE
  8
0
 62
     0
 10
81.1195
 20
119.814
 30
0.0
 11
95.1191
 21
119.814
 31
0.0
  0
LINE
  8
0
 62
     0
 10
95.1191
 20
119.814
 30
0.0
 11
95.1191
 21
120.814
 31
0.0
  0
LINE
  8
0
 62
     0
 10
95.1191
 20
120.814
 30
0.0
 11
95.9196
 21
120.814
 31
0.0
  0
LINE
  8
0
 62
     0
 10
95.9196
 20
120.814
 30
0.0
 11
95.9196
 21
123.913
 31
0.0
  0
LINE
  8
0
 62
     0
 10
95.9196
 20
123.913
 30
0.0
 11
95.1191
 21
123.913
 31
0.0
  0
LINE
  8
0
 62
     0
 10
95.1191
 20
123.913
 30
0.0
 11
95.1191
 21
129.713
 31
0.0
  0
LINE
  8
0
 62
     0
 10
95.1191
 20
129.713
 30
0.0
 11
95.9196
 21
129.713
 31
0.0
  0
LINE
  8
0
 62
     0
 10
95.9196
 20
129.713
 30
0.0
 11
95.9196
 21
132.813
 31
0.0
  0
LINE
  8
0
 62
     0
 10
95.9196
 20
132.813
 30
0.0
 11
95.1191
 21
132.813
 31
0.0
  0
LINE
  8
0
 62
     0
 10
95.1191
 20
132.813
 30
0.0
 11
95.1191
 21
133.813
 31
0.0
  0
LINE
  8
0
 62
     0
 10
95.1191
 20
133.813
 30
0.0
 11
81.1195
 21
133.813
 31
0.0
  0
LINE
  8
0
 62
     0
 10
62.0695
 20
133.813
 30
0.0
 11
62.0695
 21
132.813
 31
0.0
  0
LINE
  8
0
 62
     0
 10
62.0695
 20
132.813
 30
0.0
 11
61.269
 21
132.813
 31
0.0
  0
LINE
  8
0
 62
     0
 10
61.269
 20
132.813
 30
0.0
 11
61.269
 21
129.713
 31
0.0
  0
LINE
  8
0
 62
     0
 10
61.269
 20
129.713
 30
0.0
 11
62.0695
 21
129.713
 31
0.0
  0
LINE
  8
0
 62
     0
 10
62.0695
 20
129.713
 30
0.0
 11
62.0695
 21
123.913
 31
0.0
  0
LINE
  8
0
 62
     0
 10
62.0695
 20
123.913
 30
0.0
 11
61.269
 21
123.913
 31
0.0
  0
LINE
  8
0
 62
     0
 10
61.269
 20
123.913
 30
0.0
 11
61.269
 21
120.814
 31
0.0
  0
LINE
  8
0
 62
     0
 10
61.269
 20
120.814
 30
0.0
 11
62.0695
 21
120.814
 31
0.0
  0
LINE
  8
0
 62
     0
 10
62.0695
 20
120.814
 30
0.0
 11
62.0695
 21
119.814
 31
0.0
  0
LINE
  8
0
 62
     0
 10
62.0695
 20
119.814
 30
0.0
 11
76.0691
 21
119.814
 31
0.0
  0
LINE
  8
0
 62
     0
 10
76.0691
 20
119.814
 30
0.0
 11
76.0691
 21
120.814
 31
0.0
  0
LINE
  8
0
 62
     0
 10
76.0691
 20
120.814
 30
0.0
 11
76.8696
 21
120.814
 31
0.0
  0
LINE
  8
0
 62
     0
 10
76.8696
 20
120.814
 30
0.0
 11
76.8696
 21
123.913
 31
0.0
  0
LINE
  8
0
 62
     0
 10
76.8696
 20
123.913
 30
0.0
 11
76.0691
 21
123.913
 31
0.0
  0
LINE
  8
0
 62
     0
 10
76.0691
 20
123.913
 30
0.0
 11
76.0691
 21
129.713
 31
0.0
  0
LINE
  8
0
 62
     0
 10
76.0691
 20
129.713
 30
0.0
 11
76.8696
 21
129.713
 31
0.0
  0
LINE
  8
0
 62
     0
 10
76.8696
 20
129.713
 30
0.0
 11
76.8696
 21
132.813
 31
0.0
  0
LINE
  8
0
 62
     0
 10
76.8696
 20
132.813
 30
0.0
 11
76.0691
 21
132.813
 31
0.0
  0
LINE
  8
0
 62
     0
 10
76.0691
 20
132.813
 30
0.0
 11
76.0691
 21
133.813
 31
0.0
  0
LINE
  8
0
 62
     0
 10
76.0691
 20
133.813
 30
0.0
 11
62.0695
 21
133.813
 31
0.0
  0
LINE
  8
0
 62
     0
 10
43.0195
 20
133.813
 30
0.0
 11
43.0195
 21
132.813
 31
0.0
  0
LINE
  8
0
 62
     0
 10
43.0195
 20
132.813
 30
0.0
 11
42.219
 21
132.813
 31
0.0
  0
LINE
  8
0
 62
     0
 10
42.219
 20
132.813
 30
0.0
 11
42.219
 21
129.713
 31
0.0
  0
LINE
  8
0
 62
     0
 10
42.219
 20
129.713
 30
0.0
 11
43.0195
 21
129.713
 31
0.0
  0
LINE
  8
0
 62
     0
 10
43.0195
 20
129.713
 30
0.0
 11
43.0195
 21
123.913
 31
0.0
  0
LINE
  8
0
 62
     0
 10
43.0195
 20
123.913
 30
0.0
 11
42.219
 21
123.913
 31
0.0
  0
LINE
  8
0
 62
     0
 10
42.219
 20
123.913
 30
0.0
 11
42.219
 21
120.814
 31
0.0
  0
LINE
  8
0
 62
     0
 10
42.219
 20
120.814
 30
0.0
 11
43.0195
 21
120.814
 31
0.0
  0
LINE
  8
0
 62
     0
 10
43.0195
 20
120.814
 30
0.0
 11
43.0195
 21
119.814
 31
0.0
  0
LINE
  8
0
 62
     0
 10
43.0195
 20
119.814
 30
0.0
 11
57.0191
 21
119.814
 31
0.0
  0
LINE
  8
0
 62
     0
 10
57.0191
 20
119.814
 30
0.0
 11
57.0191
 21
120.814
 31
0.0
  0
LINE
  8
0
 62
     0
 10
57.0191
 20
120.814
 30
0.0
 11
57.8196
 21
120.814
 31
0.0
  0
LINE
  8
0
 62
     0
 10
57.8196
 20
120.814
 30
0.0
 11
57.8196
 21
123.913
 31
0.0
  0
LINE
  8
0
 62
     0
 10
57.8196
 20
123.913
 30
0.0
 11
57.0191
 21
123.913
 31
0.0
  0
LINE
  8
0
 62
     0
 10
57.0191
 20
123.913
 30
0.0
 11
57.0191
 21
129.713
 31
0.0
  0
LINE
  8
0
 62
     0
 10
57.0191
 20
129.713
 30
0.0
 11
57.8196
 21
129.713
 31
0.0
  0
LINE
  8
0
 62
     0
 10
57.8196
 20
129.713
 30
0.0
 11
57.8196
 21
132.813
 31
0.0
  0
LINE
  8
0
 62
     0
 10
57.8196
 20
132.813
 30
0.0
 11
57.0191
 21
132.813
 31
0.0
  0
LINE
  8
0
 62
     0
 10
57.0191
 20
132.813
 30
0.0
 11
57.0191
 21
133.813
 31
0.0
  0
LINE
  8
0
 62
     0
 10
57.0191
 20
133.813
 30
0.0
 11
43.0195
 21
133.813
 31
0.0
  0
ENDSEC
  0
EOF
