M48
; DRILL file {KiCad (5.99.0-8951-g09be44a352)} date 02/10/21 23:27:20
; FORMAT={3:3/ absolute / metric / suppress leading zeros}
; #@! TF.CreationDate,2021-02-10T23:27:20+02:00
; #@! TF.GenerationSoftware,Kicad,Pcbnew,(5.99.0-8951-g09be44a352)
FMAT,2
METRIC,TZ
T1C0.400
T2C0.600
T3C0.800
T4C1.000
T5C1.092
T6C1.470
T7C2.600
T8C4.300
T9C1.750
T10C3.048
T11C3.988
%
G90
G05
T1
X91500Y-86000
X96500Y-111000
X121340Y-109340
X126060Y-109340
X222500Y-88500
X228500Y-88500
T2
X83821Y-79639
X83821Y-215638
X84765Y-77359
X84765Y-81920
X84765Y-213358
X84765Y-217918
X87046Y-76414
X87046Y-82864
X87046Y-212413
X87046Y-218863
X89326Y-77359
X89326Y-81920
X89326Y-213358
X89326Y-217918
X90271Y-79639
X90271Y-215638
X228821Y-79639
X228821Y-215638
X229765Y-77359
X229765Y-81920
X229765Y-213358
X229765Y-217918
X232046Y-76414
X232046Y-82864
X232046Y-212413
X232046Y-218863
X234326Y-77359
X234326Y-81920
X234326Y-213358
X234326Y-217918
X235271Y-79639
X235271Y-215638
T3
X111919Y-114300
X111919Y-121920
X111919Y-133350
X111919Y-140970
X111919Y-152400
X111919Y-160020
X111919Y-171450
X111919Y-179070
X111919Y-190500
X111919Y-198120
X140494Y-85725
X140494Y-93345
X140494Y-114300
X140494Y-121920
X140494Y-133350
X140494Y-140970
X140494Y-152400
X140494Y-160020
X140494Y-171450
X140494Y-179070
X140500Y-188125
X140500Y-195745
X159544Y-85725
X159544Y-93345
X159544Y-114300
X159544Y-121920
X159544Y-133350
X159544Y-140970
X159544Y-152400
X159544Y-160020
X159544Y-171450
X159544Y-179070
X159544Y-190500
X159544Y-198120
X163980Y-133350
X163980Y-171450
X171600Y-133350
X171600Y-171450
X178594Y-85725
X178594Y-93345
X178594Y-114300
X178594Y-121920
X178594Y-152400
X178594Y-160020
X178594Y-190500
X178594Y-198120
X197644Y-85725
X197644Y-93345
X200025Y-118780
X200025Y-126400
X200025Y-133350
X200025Y-140970
X200025Y-152400
X200025Y-160020
X200025Y-171450
X200025Y-179070
X200025Y-190500
X200025Y-198120
X201530Y-78630
X201530Y-81130
X201530Y-109340
X201530Y-111840
X205530Y-78590
X205530Y-86210
X205530Y-104300
X205530Y-111920
X209170Y-104300
X209170Y-111920
X209190Y-78580
X209190Y-86200
X216070Y-85725
X223690Y-85725
X226219Y-114300
X226219Y-121920
X226219Y-133350
X226219Y-140970
X226219Y-152400
X226219Y-160020
X226219Y-171450
X226219Y-179070
X226219Y-190500
X226219Y-198120
T4
X209194Y-92750
X209194Y-95250
X209194Y-97750
X223694Y-92750
X223694Y-97750
T5
X98303Y-77740
X98303Y-80280
X98303Y-82819
X98303Y-85360
X98303Y-87899
X98303Y-90440
X98303Y-92980
X98303Y-95519
X98303Y-98060
X98303Y-100599
X98303Y-103140
X98303Y-105679
X100843Y-105679
X103383Y-105679
X105923Y-105679
X108463Y-105679
X111003Y-105679
X113543Y-77740
X113543Y-80280
X113543Y-82819
X113543Y-85360
X113543Y-87899
X113543Y-90440
X113543Y-92980
X113543Y-95519
X113543Y-98060
X113543Y-100599
X113543Y-103140
X113543Y-105679
T6
X98584Y-121285
X98584Y-140335
X98584Y-159385
X98584Y-178435
X98584Y-197485
X104934Y-118745
X104934Y-137795
X104934Y-156845
X104934Y-175895
X104934Y-194945
X127159Y-92710
X127159Y-121285
X127159Y-140335
X127159Y-159385
X127159Y-178435
X133509Y-90170
X133509Y-118745
X133509Y-137795
X133509Y-156845
X133509Y-175895
X133509Y-196215
X136049Y-202565
X137954Y-205105
X144304Y-202565
X146209Y-92710
X146209Y-121285
X146209Y-140335
X146209Y-159385
X146209Y-178435
X152559Y-90170
X152559Y-118745
X152559Y-137795
X152559Y-156845
X152559Y-175895
X152559Y-196215
X155099Y-202565
X165259Y-92710
X165259Y-121285
X165259Y-140335
X165259Y-159385
X165259Y-178435
X165259Y-197485
X171609Y-90170
X171609Y-118745
X171609Y-137795
X171609Y-156845
X171609Y-175895
X171609Y-194945
X184309Y-92710
X184309Y-121285
X184309Y-140335
X184309Y-159385
X184309Y-178435
X184309Y-197485
X190659Y-90170
X190659Y-118745
X190659Y-137795
X190659Y-148590
X190659Y-156845
X190659Y-175895
X190659Y-186690
X190659Y-194945
X193199Y-154940
X193199Y-193040
X212884Y-121285
X212884Y-140335
X212884Y-159385
X212884Y-178435
X212884Y-197485
X219234Y-118745
X219234Y-137795
X219234Y-156845
X219234Y-175895
X219234Y-194945
T7
X216694Y-89650
X216694Y-100850
T8
X87046Y-79639
X87046Y-215638
X232046Y-79639
X232046Y-215638
T9
X97314Y-123825
X97314Y-142875
X97314Y-161925
X97314Y-180975
X97314Y-200025
X107474Y-123825
X107474Y-142875
X107474Y-161925
X107474Y-180975
X107474Y-200025
X125889Y-95250
X125889Y-123825
X125889Y-142875
X125889Y-161925
X125889Y-180975
X130969Y-194945
X130969Y-205105
X135414Y-200025
X136049Y-95250
X136049Y-123825
X136049Y-142875
X136049Y-161925
X136049Y-180975
X144939Y-95250
X144939Y-123825
X144939Y-142875
X144939Y-161925
X144939Y-180975
X145574Y-200025
X150019Y-194945
X150019Y-205105
X155099Y-95250
X155099Y-123825
X155099Y-142875
X155099Y-161925
X155099Y-180975
X163989Y-95250
X163989Y-123825
X163989Y-142875
X163989Y-161925
X163989Y-180975
X163989Y-200025
X174149Y-95250
X174149Y-123825
X174149Y-142875
X174149Y-161925
X174149Y-180975
X174149Y-200025
X183039Y-95250
X183039Y-123825
X183039Y-142875
X183039Y-161925
X183039Y-180975
X183039Y-200025
X188119Y-147320
X188119Y-157480
X188119Y-185420
X188119Y-195580
X193199Y-95250
X193199Y-123825
X193199Y-142875
X193199Y-161925
X193199Y-180975
X193199Y-200025
X211614Y-123825
X211614Y-142875
X211614Y-161925
X211614Y-180975
X211614Y-200025
X221774Y-123825
X221774Y-142875
X221774Y-161925
X221774Y-180975
X221774Y-200025
T10
X128588Y-207010
X152400Y-207010
X195104Y-140494
X195104Y-164306
X195104Y-178594
X195104Y-202406
T11
X102394Y-123825
X102394Y-142875
X102394Y-161925
X102394Y-180975
X102394Y-200025
X128588Y-191770
X130969Y-95250
X130969Y-123825
X130969Y-142875
X130969Y-161925
X130969Y-180975
X130969Y-200025
X140494Y-200025
X150019Y-95250
X150019Y-123825
X150019Y-142875
X150019Y-161925
X150019Y-180975
X150019Y-200025
X152400Y-191770
X169069Y-95250
X169069Y-123825
X169069Y-142875
X169069Y-161925
X169069Y-180975
X169069Y-200025
X179864Y-140494
X179864Y-164306
X179864Y-178594
X179864Y-202406
X188119Y-95250
X188119Y-123825
X188119Y-142875
X188119Y-152400
X188119Y-161925
X188119Y-180975
X188119Y-190500
X188119Y-200025
X216694Y-123825
X216694Y-142875
X216694Y-161925
X216694Y-180975
X216694Y-200025
T0
M30
