G04 #@! TF.GenerationSoftware,KiCad,Pcbnew,(5.99.0-9294-gd3cf97847e)*
G04 #@! TF.CreationDate,2021-02-24T14:43:53+02:00*
G04 #@! TF.ProjectId,OsseyPad,4f737365-7950-4616-942e-6b696361645f,rev?*
G04 #@! TF.SameCoordinates,Original*
G04 #@! TF.FileFunction,Legend,Top*
G04 #@! TF.FilePolarity,Positive*
%FSLAX46Y46*%
G04 Gerber Fmt 4.6, Leading zero omitted, Abs format (unit mm)*
G04 Created by KiCad (PCBNEW (5.99.0-9294-gd3cf97847e)) date 2021-02-24 14:43:53*
%MOMM*%
%LPD*%
G01*
G04 APERTURE LIST*
%ADD10C,0.150000*%
%ADD11C,0.125000*%
%ADD12C,0.120000*%
%ADD13C,0.381000*%
G04 APERTURE END LIST*
D10*
X101189666Y-104259500D02*
X100956333Y-104259500D01*
X100956333Y-104626166D02*
X100956333Y-103926166D01*
X101289666Y-103926166D01*
X101689666Y-103926166D02*
X101756333Y-103926166D01*
X101823000Y-103959500D01*
X101856333Y-103992833D01*
X101889666Y-104059500D01*
X101923000Y-104192833D01*
X101923000Y-104359500D01*
X101889666Y-104492833D01*
X101856333Y-104559500D01*
X101823000Y-104592833D01*
X101756333Y-104626166D01*
X101689666Y-104626166D01*
X101623000Y-104592833D01*
X101589666Y-104559500D01*
X101556333Y-104492833D01*
X101523000Y-104359500D01*
X101523000Y-104192833D01*
X101556333Y-104059500D01*
X101589666Y-103992833D01*
X101623000Y-103959500D01*
X101689666Y-103926166D01*
X99750142Y-77672357D02*
X99864428Y-77710452D01*
X99902523Y-77748547D01*
X99940619Y-77824738D01*
X99940619Y-77939023D01*
X99902523Y-78015214D01*
X99864428Y-78053309D01*
X99788238Y-78091404D01*
X99483476Y-78091404D01*
X99483476Y-77291404D01*
X99750142Y-77291404D01*
X99826333Y-77329500D01*
X99864428Y-77367595D01*
X99902523Y-77443785D01*
X99902523Y-77519976D01*
X99864428Y-77596166D01*
X99826333Y-77634261D01*
X99750142Y-77672357D01*
X99483476Y-77672357D01*
X100435857Y-77291404D02*
X100512047Y-77291404D01*
X100588238Y-77329500D01*
X100626333Y-77367595D01*
X100664428Y-77443785D01*
X100702523Y-77596166D01*
X100702523Y-77786642D01*
X100664428Y-77939023D01*
X100626333Y-78015214D01*
X100588238Y-78053309D01*
X100512047Y-78091404D01*
X100435857Y-78091404D01*
X100359666Y-78053309D01*
X100321571Y-78015214D01*
X100283476Y-77939023D01*
X100245380Y-77786642D01*
X100245380Y-77596166D01*
X100283476Y-77443785D01*
X100321571Y-77367595D01*
X100359666Y-77329500D01*
X100435857Y-77291404D01*
X101616809Y-77253309D02*
X100931095Y-78281880D01*
X102340619Y-78091404D02*
X102073952Y-77710452D01*
X101883476Y-78091404D02*
X101883476Y-77291404D01*
X102188238Y-77291404D01*
X102264428Y-77329500D01*
X102302523Y-77367595D01*
X102340619Y-77443785D01*
X102340619Y-77558071D01*
X102302523Y-77634261D01*
X102264428Y-77672357D01*
X102188238Y-77710452D01*
X101883476Y-77710452D01*
X102645380Y-77862833D02*
X103026333Y-77862833D01*
X102569190Y-78091404D02*
X102835857Y-77291404D01*
X103102523Y-78091404D01*
X103293000Y-77291404D02*
X103483476Y-78091404D01*
X103635857Y-77519976D01*
X103788238Y-78091404D01*
X103978714Y-77291404D01*
X110793523Y-93341404D02*
X110793523Y-92541404D01*
X110984000Y-92541404D01*
X111098285Y-92579500D01*
X111174476Y-92655690D01*
X111212571Y-92731880D01*
X111250666Y-92884261D01*
X111250666Y-92998547D01*
X111212571Y-93150928D01*
X111174476Y-93227119D01*
X111098285Y-93303309D01*
X110984000Y-93341404D01*
X110793523Y-93341404D01*
X111936380Y-92808071D02*
X111936380Y-93341404D01*
X111745904Y-92503309D02*
X111555428Y-93074738D01*
X112050666Y-93074738D01*
X100138190Y-98002357D02*
X100252476Y-98040452D01*
X100290571Y-98078547D01*
X100328666Y-98154738D01*
X100328666Y-98269023D01*
X100290571Y-98345214D01*
X100252476Y-98383309D01*
X100176285Y-98421404D01*
X99871523Y-98421404D01*
X99871523Y-97621404D01*
X100138190Y-97621404D01*
X100214380Y-97659500D01*
X100252476Y-97697595D01*
X100290571Y-97773785D01*
X100290571Y-97849976D01*
X100252476Y-97926166D01*
X100214380Y-97964261D01*
X100138190Y-98002357D01*
X99871523Y-98002357D01*
X101090571Y-98421404D02*
X100633428Y-98421404D01*
X100862000Y-98421404D02*
X100862000Y-97621404D01*
X100785809Y-97735690D01*
X100709619Y-97811880D01*
X100633428Y-97849976D01*
X100195333Y-90382357D02*
X99928666Y-90382357D01*
X99928666Y-90801404D02*
X99928666Y-90001404D01*
X100309619Y-90001404D01*
X100995333Y-90001404D02*
X100614380Y-90001404D01*
X100576285Y-90382357D01*
X100614380Y-90344261D01*
X100690571Y-90306166D01*
X100881047Y-90306166D01*
X100957238Y-90344261D01*
X100995333Y-90382357D01*
X101033428Y-90458547D01*
X101033428Y-90649023D01*
X100995333Y-90725214D01*
X100957238Y-90763309D01*
X100881047Y-90801404D01*
X100690571Y-90801404D01*
X100614380Y-90763309D01*
X100576285Y-90725214D01*
X100195333Y-92922357D02*
X99928666Y-92922357D01*
X99928666Y-93341404D02*
X99928666Y-92541404D01*
X100309619Y-92541404D01*
X100957238Y-92541404D02*
X100804857Y-92541404D01*
X100728666Y-92579500D01*
X100690571Y-92617595D01*
X100614380Y-92731880D01*
X100576285Y-92884261D01*
X100576285Y-93189023D01*
X100614380Y-93265214D01*
X100652476Y-93303309D01*
X100728666Y-93341404D01*
X100881047Y-93341404D01*
X100957238Y-93303309D01*
X100995333Y-93265214D01*
X101033428Y-93189023D01*
X101033428Y-92998547D01*
X100995333Y-92922357D01*
X100957238Y-92884261D01*
X100881047Y-92846166D01*
X100728666Y-92846166D01*
X100652476Y-92884261D01*
X100614380Y-92922357D01*
X100576285Y-92998547D01*
X107872523Y-104471404D02*
X107872523Y-103671404D01*
X108063000Y-103671404D01*
X108177285Y-103709500D01*
X108253476Y-103785690D01*
X108291571Y-103861880D01*
X108329666Y-104014261D01*
X108329666Y-104128547D01*
X108291571Y-104280928D01*
X108253476Y-104357119D01*
X108177285Y-104433309D01*
X108063000Y-104471404D01*
X107872523Y-104471404D01*
X109053476Y-103671404D02*
X108672523Y-103671404D01*
X108634428Y-104052357D01*
X108672523Y-104014261D01*
X108748714Y-103976166D01*
X108939190Y-103976166D01*
X109015380Y-104014261D01*
X109053476Y-104052357D01*
X109091571Y-104128547D01*
X109091571Y-104319023D01*
X109053476Y-104395214D01*
X109015380Y-104433309D01*
X108939190Y-104471404D01*
X108748714Y-104471404D01*
X108672523Y-104433309D01*
X108634428Y-104395214D01*
X110774476Y-84959500D02*
X110698285Y-84921404D01*
X110584000Y-84921404D01*
X110469714Y-84959500D01*
X110393523Y-85035690D01*
X110355428Y-85111880D01*
X110317333Y-85264261D01*
X110317333Y-85378547D01*
X110355428Y-85530928D01*
X110393523Y-85607119D01*
X110469714Y-85683309D01*
X110584000Y-85721404D01*
X110660190Y-85721404D01*
X110774476Y-85683309D01*
X110812571Y-85645214D01*
X110812571Y-85378547D01*
X110660190Y-85378547D01*
X111155428Y-85721404D02*
X111155428Y-84921404D01*
X111612571Y-85721404D01*
X111612571Y-84921404D01*
X111993523Y-85721404D02*
X111993523Y-84921404D01*
X112184000Y-84921404D01*
X112298285Y-84959500D01*
X112374476Y-85035690D01*
X112412571Y-85111880D01*
X112450666Y-85264261D01*
X112450666Y-85378547D01*
X112412571Y-85530928D01*
X112374476Y-85607119D01*
X112298285Y-85683309D01*
X112184000Y-85721404D01*
X111993523Y-85721404D01*
X110793523Y-98421404D02*
X110793523Y-97621404D01*
X110984000Y-97621404D01*
X111098285Y-97659500D01*
X111174476Y-97735690D01*
X111212571Y-97811880D01*
X111250666Y-97964261D01*
X111250666Y-98078547D01*
X111212571Y-98230928D01*
X111174476Y-98307119D01*
X111098285Y-98383309D01*
X110984000Y-98421404D01*
X110793523Y-98421404D01*
X111517333Y-97621404D02*
X112050666Y-97621404D01*
X111707809Y-98421404D01*
X105789666Y-104395214D02*
X105751571Y-104433309D01*
X105637285Y-104471404D01*
X105561095Y-104471404D01*
X105446809Y-104433309D01*
X105370619Y-104357119D01*
X105332523Y-104280928D01*
X105294428Y-104128547D01*
X105294428Y-104014261D01*
X105332523Y-103861880D01*
X105370619Y-103785690D01*
X105446809Y-103709500D01*
X105561095Y-103671404D01*
X105637285Y-103671404D01*
X105751571Y-103709500D01*
X105789666Y-103747595D01*
X106056333Y-103671404D02*
X106589666Y-103671404D01*
X106246809Y-104471404D01*
X99852476Y-79879500D02*
X99776285Y-79841404D01*
X99662000Y-79841404D01*
X99547714Y-79879500D01*
X99471523Y-79955690D01*
X99433428Y-80031880D01*
X99395333Y-80184261D01*
X99395333Y-80298547D01*
X99433428Y-80450928D01*
X99471523Y-80527119D01*
X99547714Y-80603309D01*
X99662000Y-80641404D01*
X99738190Y-80641404D01*
X99852476Y-80603309D01*
X99890571Y-80565214D01*
X99890571Y-80298547D01*
X99738190Y-80298547D01*
X100233428Y-80641404D02*
X100233428Y-79841404D01*
X100690571Y-80641404D01*
X100690571Y-79841404D01*
X101071523Y-80641404D02*
X101071523Y-79841404D01*
X101262000Y-79841404D01*
X101376285Y-79879500D01*
X101452476Y-79955690D01*
X101490571Y-80031880D01*
X101528666Y-80184261D01*
X101528666Y-80298547D01*
X101490571Y-80450928D01*
X101452476Y-80527119D01*
X101376285Y-80603309D01*
X101262000Y-80641404D01*
X101071523Y-80641404D01*
X110793523Y-88261404D02*
X110793523Y-87461404D01*
X110984000Y-87461404D01*
X111098285Y-87499500D01*
X111174476Y-87575690D01*
X111212571Y-87651880D01*
X111250666Y-87804261D01*
X111250666Y-87918547D01*
X111212571Y-88070928D01*
X111174476Y-88147119D01*
X111098285Y-88223309D01*
X110984000Y-88261404D01*
X110793523Y-88261404D01*
X112012571Y-88261404D02*
X111555428Y-88261404D01*
X111784000Y-88261404D02*
X111784000Y-87461404D01*
X111707809Y-87575690D01*
X111631619Y-87651880D01*
X111555428Y-87689976D01*
X110793523Y-90801404D02*
X110793523Y-90001404D01*
X110984000Y-90001404D01*
X111098285Y-90039500D01*
X111174476Y-90115690D01*
X111212571Y-90191880D01*
X111250666Y-90344261D01*
X111250666Y-90458547D01*
X111212571Y-90610928D01*
X111174476Y-90687119D01*
X111098285Y-90763309D01*
X110984000Y-90801404D01*
X110793523Y-90801404D01*
X111745904Y-90001404D02*
X111822095Y-90001404D01*
X111898285Y-90039500D01*
X111936380Y-90077595D01*
X111974476Y-90153785D01*
X112012571Y-90306166D01*
X112012571Y-90496642D01*
X111974476Y-90649023D01*
X111936380Y-90725214D01*
X111898285Y-90763309D01*
X111822095Y-90801404D01*
X111745904Y-90801404D01*
X111669714Y-90763309D01*
X111631619Y-90725214D01*
X111593523Y-90649023D01*
X111555428Y-90496642D01*
X111555428Y-90306166D01*
X111593523Y-90153785D01*
X111631619Y-90077595D01*
X111669714Y-90039500D01*
X111745904Y-90001404D01*
X111060190Y-103082357D02*
X111174476Y-103120452D01*
X111212571Y-103158547D01*
X111250666Y-103234738D01*
X111250666Y-103349023D01*
X111212571Y-103425214D01*
X111174476Y-103463309D01*
X111098285Y-103501404D01*
X110793523Y-103501404D01*
X110793523Y-102701404D01*
X111060190Y-102701404D01*
X111136380Y-102739500D01*
X111174476Y-102777595D01*
X111212571Y-102853785D01*
X111212571Y-102929976D01*
X111174476Y-103006166D01*
X111136380Y-103044261D01*
X111060190Y-103082357D01*
X110793523Y-103082357D01*
X111936380Y-102968071D02*
X111936380Y-103501404D01*
X111745904Y-102663309D02*
X111555428Y-103234738D01*
X112050666Y-103234738D01*
D11*
X112120619Y-104373785D02*
X112192047Y-104397595D01*
X112215857Y-104421404D01*
X112239666Y-104469023D01*
X112239666Y-104540452D01*
X112215857Y-104588071D01*
X112192047Y-104611880D01*
X112144428Y-104635690D01*
X111953952Y-104635690D01*
X111953952Y-104135690D01*
X112120619Y-104135690D01*
X112168238Y-104159500D01*
X112192047Y-104183309D01*
X112215857Y-104230928D01*
X112215857Y-104278547D01*
X112192047Y-104326166D01*
X112168238Y-104349976D01*
X112120619Y-104373785D01*
X111953952Y-104373785D01*
X112692047Y-104135690D02*
X112453952Y-104135690D01*
X112430142Y-104373785D01*
X112453952Y-104349976D01*
X112501571Y-104326166D01*
X112620619Y-104326166D01*
X112668238Y-104349976D01*
X112692047Y-104373785D01*
X112715857Y-104421404D01*
X112715857Y-104540452D01*
X112692047Y-104588071D01*
X112668238Y-104611880D01*
X112620619Y-104635690D01*
X112501571Y-104635690D01*
X112453952Y-104611880D01*
X112430142Y-104588071D01*
D10*
X107732523Y-77301404D02*
X108189666Y-77301404D01*
X107961095Y-78101404D02*
X107961095Y-77301404D01*
X108380142Y-77301404D02*
X108913476Y-78101404D01*
X108913476Y-77301404D02*
X108380142Y-78101404D01*
X109370619Y-77301404D02*
X109446809Y-77301404D01*
X109523000Y-77339500D01*
X109561095Y-77377595D01*
X109599190Y-77453785D01*
X109637285Y-77606166D01*
X109637285Y-77796642D01*
X109599190Y-77949023D01*
X109561095Y-78025214D01*
X109523000Y-78063309D01*
X109446809Y-78101404D01*
X109370619Y-78101404D01*
X109294428Y-78063309D01*
X109256333Y-78025214D01*
X109218238Y-77949023D01*
X109180142Y-77796642D01*
X109180142Y-77606166D01*
X109218238Y-77453785D01*
X109256333Y-77377595D01*
X109294428Y-77339500D01*
X109370619Y-77301404D01*
X110551571Y-77263309D02*
X109865857Y-78291880D01*
X110818238Y-78101404D02*
X110818238Y-77301404D01*
X111008714Y-77301404D01*
X111123000Y-77339500D01*
X111199190Y-77415690D01*
X111237285Y-77491880D01*
X111275380Y-77644261D01*
X111275380Y-77758547D01*
X111237285Y-77910928D01*
X111199190Y-77987119D01*
X111123000Y-78063309D01*
X111008714Y-78101404D01*
X110818238Y-78101404D01*
X111542047Y-77301404D02*
X112037285Y-77301404D01*
X111770619Y-77606166D01*
X111884904Y-77606166D01*
X111961095Y-77644261D01*
X111999190Y-77682357D01*
X112037285Y-77758547D01*
X112037285Y-77949023D01*
X111999190Y-78025214D01*
X111961095Y-78063309D01*
X111884904Y-78101404D01*
X111656333Y-78101404D01*
X111580142Y-78063309D01*
X111542047Y-78025214D01*
X100195333Y-95462357D02*
X99928666Y-95462357D01*
X99928666Y-95881404D02*
X99928666Y-95081404D01*
X100309619Y-95081404D01*
X100538190Y-95081404D02*
X101071523Y-95081404D01*
X100728666Y-95881404D01*
X100195333Y-87842357D02*
X99928666Y-87842357D01*
X99928666Y-88261404D02*
X99928666Y-87461404D01*
X100309619Y-87461404D01*
X100957238Y-87728071D02*
X100957238Y-88261404D01*
X100766761Y-87423309D02*
X100576285Y-87994738D01*
X101071523Y-87994738D01*
X99395333Y-84921404D02*
X99662000Y-85721404D01*
X99928666Y-84921404D01*
X100652476Y-85645214D02*
X100614380Y-85683309D01*
X100500095Y-85721404D01*
X100423904Y-85721404D01*
X100309619Y-85683309D01*
X100233428Y-85607119D01*
X100195333Y-85530928D01*
X100157238Y-85378547D01*
X100157238Y-85264261D01*
X100195333Y-85111880D01*
X100233428Y-85035690D01*
X100309619Y-84959500D01*
X100423904Y-84921404D01*
X100500095Y-84921404D01*
X100614380Y-84959500D01*
X100652476Y-84997595D01*
X101452476Y-85645214D02*
X101414380Y-85683309D01*
X101300095Y-85721404D01*
X101223904Y-85721404D01*
X101109619Y-85683309D01*
X101033428Y-85607119D01*
X100995333Y-85530928D01*
X100957238Y-85378547D01*
X100957238Y-85264261D01*
X100995333Y-85111880D01*
X101033428Y-85035690D01*
X101109619Y-84959500D01*
X101223904Y-84921404D01*
X101300095Y-84921404D01*
X101414380Y-84959500D01*
X101452476Y-84997595D01*
X100349666Y-83123309D02*
X100463952Y-83161404D01*
X100654428Y-83161404D01*
X100730619Y-83123309D01*
X100768714Y-83085214D01*
X100806809Y-83009023D01*
X100806809Y-82932833D01*
X100768714Y-82856642D01*
X100730619Y-82818547D01*
X100654428Y-82780452D01*
X100502047Y-82742357D01*
X100425857Y-82704261D01*
X100387761Y-82666166D01*
X100349666Y-82589976D01*
X100349666Y-82513785D01*
X100387761Y-82437595D01*
X100425857Y-82399500D01*
X100502047Y-82361404D01*
X100692523Y-82361404D01*
X100806809Y-82399500D01*
X101035380Y-82361404D02*
X101492523Y-82361404D01*
X101263952Y-83161404D02*
X101263952Y-82361404D01*
X110774476Y-82419500D02*
X110698285Y-82381404D01*
X110584000Y-82381404D01*
X110469714Y-82419500D01*
X110393523Y-82495690D01*
X110355428Y-82571880D01*
X110317333Y-82724261D01*
X110317333Y-82838547D01*
X110355428Y-82990928D01*
X110393523Y-83067119D01*
X110469714Y-83143309D01*
X110584000Y-83181404D01*
X110660190Y-83181404D01*
X110774476Y-83143309D01*
X110812571Y-83105214D01*
X110812571Y-82838547D01*
X110660190Y-82838547D01*
X111155428Y-83181404D02*
X111155428Y-82381404D01*
X111612571Y-83181404D01*
X111612571Y-82381404D01*
X111993523Y-83181404D02*
X111993523Y-82381404D01*
X112184000Y-82381404D01*
X112298285Y-82419500D01*
X112374476Y-82495690D01*
X112412571Y-82571880D01*
X112450666Y-82724261D01*
X112450666Y-82838547D01*
X112412571Y-82990928D01*
X112374476Y-83067119D01*
X112298285Y-83143309D01*
X112184000Y-83181404D01*
X111993523Y-83181404D01*
X110139666Y-104259500D02*
X110239666Y-104292833D01*
X110273000Y-104326166D01*
X110306333Y-104392833D01*
X110306333Y-104492833D01*
X110273000Y-104559500D01*
X110239666Y-104592833D01*
X110173000Y-104626166D01*
X109906333Y-104626166D01*
X109906333Y-103926166D01*
X110139666Y-103926166D01*
X110206333Y-103959500D01*
X110239666Y-103992833D01*
X110273000Y-104059500D01*
X110273000Y-104126166D01*
X110239666Y-104192833D01*
X110206333Y-104226166D01*
X110139666Y-104259500D01*
X109906333Y-104259500D01*
X110539666Y-103926166D02*
X111006333Y-103926166D01*
X110706333Y-104626166D01*
X110793523Y-80641404D02*
X110793523Y-79841404D01*
X110984000Y-79841404D01*
X111098285Y-79879500D01*
X111174476Y-79955690D01*
X111212571Y-80031880D01*
X111250666Y-80184261D01*
X111250666Y-80298547D01*
X111212571Y-80450928D01*
X111174476Y-80527119D01*
X111098285Y-80603309D01*
X110984000Y-80641404D01*
X110793523Y-80641404D01*
X111555428Y-79917595D02*
X111593523Y-79879500D01*
X111669714Y-79841404D01*
X111860190Y-79841404D01*
X111936380Y-79879500D01*
X111974476Y-79917595D01*
X112012571Y-79993785D01*
X112012571Y-80069976D01*
X111974476Y-80184261D01*
X111517333Y-80641404D01*
X112012571Y-80641404D01*
X100138190Y-103082357D02*
X100252476Y-103120452D01*
X100290571Y-103158547D01*
X100328666Y-103234738D01*
X100328666Y-103349023D01*
X100290571Y-103425214D01*
X100252476Y-103463309D01*
X100176285Y-103501404D01*
X99871523Y-103501404D01*
X99871523Y-102701404D01*
X100138190Y-102701404D01*
X100214380Y-102739500D01*
X100252476Y-102777595D01*
X100290571Y-102853785D01*
X100290571Y-102929976D01*
X100252476Y-103006166D01*
X100214380Y-103044261D01*
X100138190Y-103082357D01*
X99871523Y-103082357D01*
X100633428Y-102777595D02*
X100671523Y-102739500D01*
X100747714Y-102701404D01*
X100938190Y-102701404D01*
X101014380Y-102739500D01*
X101052476Y-102777595D01*
X101090571Y-102853785D01*
X101090571Y-102929976D01*
X101052476Y-103044261D01*
X100595333Y-103501404D01*
X101090571Y-103501404D01*
X111250666Y-95805214D02*
X111212571Y-95843309D01*
X111098285Y-95881404D01*
X111022095Y-95881404D01*
X110907809Y-95843309D01*
X110831619Y-95767119D01*
X110793523Y-95690928D01*
X110755428Y-95538547D01*
X110755428Y-95424261D01*
X110793523Y-95271880D01*
X110831619Y-95195690D01*
X110907809Y-95119500D01*
X111022095Y-95081404D01*
X111098285Y-95081404D01*
X111212571Y-95119500D01*
X111250666Y-95157595D01*
X111936380Y-95081404D02*
X111784000Y-95081404D01*
X111707809Y-95119500D01*
X111669714Y-95157595D01*
X111593523Y-95271880D01*
X111555428Y-95424261D01*
X111555428Y-95729023D01*
X111593523Y-95805214D01*
X111631619Y-95843309D01*
X111707809Y-95881404D01*
X111860190Y-95881404D01*
X111936380Y-95843309D01*
X111974476Y-95805214D01*
X112012571Y-95729023D01*
X112012571Y-95538547D01*
X111974476Y-95462357D01*
X111936380Y-95424261D01*
X111860190Y-95386166D01*
X111707809Y-95386166D01*
X111631619Y-95424261D01*
X111593523Y-95462357D01*
X111555428Y-95538547D01*
X100138190Y-100542357D02*
X100252476Y-100580452D01*
X100290571Y-100618547D01*
X100328666Y-100694738D01*
X100328666Y-100809023D01*
X100290571Y-100885214D01*
X100252476Y-100923309D01*
X100176285Y-100961404D01*
X99871523Y-100961404D01*
X99871523Y-100161404D01*
X100138190Y-100161404D01*
X100214380Y-100199500D01*
X100252476Y-100237595D01*
X100290571Y-100313785D01*
X100290571Y-100389976D01*
X100252476Y-100466166D01*
X100214380Y-100504261D01*
X100138190Y-100542357D01*
X99871523Y-100542357D01*
X100595333Y-100161404D02*
X101090571Y-100161404D01*
X100823904Y-100466166D01*
X100938190Y-100466166D01*
X101014380Y-100504261D01*
X101052476Y-100542357D01*
X101090571Y-100618547D01*
X101090571Y-100809023D01*
X101052476Y-100885214D01*
X101014380Y-100923309D01*
X100938190Y-100961404D01*
X100709619Y-100961404D01*
X100633428Y-100923309D01*
X100595333Y-100885214D01*
D11*
X99320619Y-104373785D02*
X99392047Y-104397595D01*
X99415857Y-104421404D01*
X99439666Y-104469023D01*
X99439666Y-104540452D01*
X99415857Y-104588071D01*
X99392047Y-104611880D01*
X99344428Y-104635690D01*
X99153952Y-104635690D01*
X99153952Y-104135690D01*
X99320619Y-104135690D01*
X99368238Y-104159500D01*
X99392047Y-104183309D01*
X99415857Y-104230928D01*
X99415857Y-104278547D01*
X99392047Y-104326166D01*
X99368238Y-104349976D01*
X99320619Y-104373785D01*
X99153952Y-104373785D01*
X99868238Y-104135690D02*
X99773000Y-104135690D01*
X99725380Y-104159500D01*
X99701571Y-104183309D01*
X99653952Y-104254738D01*
X99630142Y-104349976D01*
X99630142Y-104540452D01*
X99653952Y-104588071D01*
X99677761Y-104611880D01*
X99725380Y-104635690D01*
X99820619Y-104635690D01*
X99868238Y-104611880D01*
X99892047Y-104588071D01*
X99915857Y-104540452D01*
X99915857Y-104421404D01*
X99892047Y-104373785D01*
X99868238Y-104349976D01*
X99820619Y-104326166D01*
X99725380Y-104326166D01*
X99677761Y-104349976D01*
X99653952Y-104373785D01*
X99630142Y-104421404D01*
D10*
X103116333Y-104052357D02*
X102849666Y-104052357D01*
X102849666Y-104471404D02*
X102849666Y-103671404D01*
X103230619Y-103671404D01*
X103954428Y-104471404D02*
X103497285Y-104471404D01*
X103725857Y-104471404D02*
X103725857Y-103671404D01*
X103649666Y-103785690D01*
X103573476Y-103861880D01*
X103497285Y-103899976D01*
X110831619Y-100542357D02*
X111098285Y-100542357D01*
X111212571Y-100961404D02*
X110831619Y-100961404D01*
X110831619Y-100161404D01*
X111212571Y-100161404D01*
X111898285Y-100161404D02*
X111745904Y-100161404D01*
X111669714Y-100199500D01*
X111631619Y-100237595D01*
X111555428Y-100351880D01*
X111517333Y-100504261D01*
X111517333Y-100809023D01*
X111555428Y-100885214D01*
X111593523Y-100923309D01*
X111669714Y-100961404D01*
X111822095Y-100961404D01*
X111898285Y-100923309D01*
X111936380Y-100885214D01*
X111974476Y-100809023D01*
X111974476Y-100618547D01*
X111936380Y-100542357D01*
X111898285Y-100504261D01*
X111822095Y-100466166D01*
X111669714Y-100466166D01*
X111593523Y-100504261D01*
X111555428Y-100542357D01*
X111517333Y-100618547D01*
D12*
X222793750Y-93950000D02*
X222793750Y-96550000D01*
X214693750Y-101150000D02*
X210593750Y-101150000D01*
X222793750Y-89350000D02*
X222793750Y-91750000D01*
X209193750Y-91450000D02*
X208893750Y-91150000D01*
X218693750Y-89350000D02*
X222793750Y-89350000D01*
X214693750Y-89350000D02*
X210593750Y-89350000D01*
X208893750Y-91150000D02*
X209493750Y-91150000D01*
X209493750Y-91150000D02*
X209193750Y-91450000D01*
X222793750Y-101150000D02*
X218693750Y-101150000D01*
X222793750Y-98750000D02*
X222793750Y-101150000D01*
X216693750Y-94750000D02*
X216693750Y-95750000D01*
X210593750Y-89350000D02*
X210593750Y-101150000D01*
X216193750Y-95250000D02*
X217193750Y-95250000D01*
X219693750Y-95250000D02*
G75*
G03*
X219693750Y-95250000I-3000000J0D01*
G01*
D13*
X114813000Y-106949500D02*
X97033000Y-106949500D01*
X97033000Y-73929500D02*
X114813000Y-73929500D01*
X97033000Y-106949500D02*
X97033000Y-73929500D01*
X114813000Y-73929500D02*
X114813000Y-106949500D01*
D10*
X99678365Y-82358530D02*
X99678365Y-83158530D01*
X99678365Y-83158530D02*
X99578365Y-83158530D01*
X99578365Y-83158530D02*
X99578365Y-82358530D01*
X99578365Y-82358530D02*
X99678365Y-82358530D01*
G36*
X99678365Y-83158530D02*
G01*
X99578365Y-83158530D01*
X99578365Y-82358530D01*
X99678365Y-82358530D01*
X99678365Y-83158530D01*
G37*
X99678365Y-83158530D02*
X99578365Y-83158530D01*
X99578365Y-82358530D01*
X99678365Y-82358530D01*
X99678365Y-83158530D01*
X99878365Y-82758530D02*
X99878365Y-82858530D01*
X99878365Y-82858530D02*
X99778365Y-82858530D01*
X99778365Y-82858530D02*
X99778365Y-82758530D01*
X99778365Y-82758530D02*
X99878365Y-82758530D01*
G36*
X99878365Y-82858530D02*
G01*
X99778365Y-82858530D01*
X99778365Y-82758530D01*
X99878365Y-82758530D01*
X99878365Y-82858530D01*
G37*
X99878365Y-82858530D02*
X99778365Y-82858530D01*
X99778365Y-82758530D01*
X99878365Y-82758530D01*
X99878365Y-82858530D01*
X100078365Y-82958530D02*
X100078365Y-83158530D01*
X100078365Y-83158530D02*
X99978365Y-83158530D01*
X99978365Y-83158530D02*
X99978365Y-82958530D01*
X99978365Y-82958530D02*
X100078365Y-82958530D01*
G36*
X100078365Y-83158530D02*
G01*
X99978365Y-83158530D01*
X99978365Y-82958530D01*
X100078365Y-82958530D01*
X100078365Y-83158530D01*
G37*
X100078365Y-83158530D02*
X99978365Y-83158530D01*
X99978365Y-82958530D01*
X100078365Y-82958530D01*
X100078365Y-83158530D01*
X100078365Y-82358530D02*
X100078365Y-82658530D01*
X100078365Y-82658530D02*
X99978365Y-82658530D01*
X99978365Y-82658530D02*
X99978365Y-82358530D01*
X99978365Y-82358530D02*
X100078365Y-82358530D01*
G36*
X100078365Y-82658530D02*
G01*
X99978365Y-82658530D01*
X99978365Y-82358530D01*
X100078365Y-82358530D01*
X100078365Y-82658530D01*
G37*
X100078365Y-82658530D02*
X99978365Y-82658530D01*
X99978365Y-82358530D01*
X100078365Y-82358530D01*
X100078365Y-82658530D01*
X100078365Y-82358530D02*
X100078365Y-82458530D01*
X100078365Y-82458530D02*
X99578365Y-82458530D01*
X99578365Y-82458530D02*
X99578365Y-82358530D01*
X99578365Y-82358530D02*
X100078365Y-82358530D01*
G36*
X100078365Y-82458530D02*
G01*
X99578365Y-82458530D01*
X99578365Y-82358530D01*
X100078365Y-82358530D01*
X100078365Y-82458530D01*
G37*
X100078365Y-82458530D02*
X99578365Y-82458530D01*
X99578365Y-82358530D01*
X100078365Y-82358530D01*
X100078365Y-82458530D01*
M02*
