G04 #@! TF.GenerationSoftware,KiCad,Pcbnew,(5.99.0-8951-g09be44a352)*
G04 #@! TF.CreationDate,2021-02-10T23:28:11+02:00*
G04 #@! TF.ProjectId,OsseyPad,4f737365-7950-4616-942e-6b696361645f,rev?*
G04 #@! TF.SameCoordinates,Original*
G04 #@! TF.FileFunction,Legend,Bot*
G04 #@! TF.FilePolarity,Positive*
%FSLAX46Y46*%
G04 Gerber Fmt 4.6, Leading zero omitted, Abs format (unit mm)*
G04 Created by KiCad (PCBNEW (5.99.0-8951-g09be44a352)) date 2021-02-10 23:28:11*
%MOMM*%
%LPD*%
G01*
G04 APERTURE LIST*
%ADD10C,0.150000*%
%ADD11C,0.125000*%
%ADD12C,0.120000*%
%ADD13C,0.381000*%
G04 APERTURE END LIST*
D10*
X201726666Y-107767142D02*
X201774285Y-107814761D01*
X201917142Y-107862380D01*
X202012380Y-107862380D01*
X202155238Y-107814761D01*
X202250476Y-107719523D01*
X202298095Y-107624285D01*
X202345714Y-107433809D01*
X202345714Y-107290952D01*
X202298095Y-107100476D01*
X202250476Y-107005238D01*
X202155238Y-106910000D01*
X202012380Y-106862380D01*
X201917142Y-106862380D01*
X201774285Y-106910000D01*
X201726666Y-106957619D01*
X200774285Y-107862380D02*
X201345714Y-107862380D01*
X201060000Y-107862380D02*
X201060000Y-106862380D01*
X201155238Y-107005238D01*
X201250476Y-107100476D01*
X201345714Y-107148095D01*
X199637142Y-79713333D02*
X199684761Y-79665714D01*
X199732380Y-79522857D01*
X199732380Y-79427619D01*
X199684761Y-79284761D01*
X199589523Y-79189523D01*
X199494285Y-79141904D01*
X199303809Y-79094285D01*
X199160952Y-79094285D01*
X198970476Y-79141904D01*
X198875238Y-79189523D01*
X198780000Y-79284761D01*
X198732380Y-79427619D01*
X198732380Y-79522857D01*
X198780000Y-79665714D01*
X198827619Y-79713333D01*
X198827619Y-80094285D02*
X198780000Y-80141904D01*
X198732380Y-80237142D01*
X198732380Y-80475238D01*
X198780000Y-80570476D01*
X198827619Y-80618095D01*
X198922857Y-80665714D01*
X199018095Y-80665714D01*
X199160952Y-80618095D01*
X199732380Y-80046666D01*
X199732380Y-80665714D01*
X138826130Y-88796904D02*
X137826130Y-88796904D01*
X137826130Y-89035000D01*
X137873750Y-89177857D01*
X137968988Y-89273095D01*
X138064226Y-89320714D01*
X138254702Y-89368333D01*
X138397559Y-89368333D01*
X138588035Y-89320714D01*
X138683273Y-89273095D01*
X138778511Y-89177857D01*
X138826130Y-89035000D01*
X138826130Y-88796904D01*
X138826130Y-90320714D02*
X138826130Y-89749285D01*
X138826130Y-90035000D02*
X137826130Y-90035000D01*
X137968988Y-89939761D01*
X138064226Y-89844523D01*
X138111845Y-89749285D01*
X139146130Y-85463095D02*
X138146130Y-85463095D01*
X139146130Y-86034523D02*
X138574702Y-85605952D01*
X138146130Y-86034523D02*
X138717559Y-85463095D01*
X157876130Y-88796904D02*
X156876130Y-88796904D01*
X156876130Y-89035000D01*
X156923750Y-89177857D01*
X157018988Y-89273095D01*
X157114226Y-89320714D01*
X157304702Y-89368333D01*
X157447559Y-89368333D01*
X157638035Y-89320714D01*
X157733273Y-89273095D01*
X157828511Y-89177857D01*
X157876130Y-89035000D01*
X157876130Y-88796904D01*
X156971369Y-89749285D02*
X156923750Y-89796904D01*
X156876130Y-89892142D01*
X156876130Y-90130238D01*
X156923750Y-90225476D01*
X156971369Y-90273095D01*
X157066607Y-90320714D01*
X157161845Y-90320714D01*
X157304702Y-90273095D01*
X157876130Y-89701666D01*
X157876130Y-90320714D01*
X158196130Y-85463095D02*
X157196130Y-85463095D01*
X158196130Y-86034523D02*
X157624702Y-85605952D01*
X157196130Y-86034523D02*
X157767559Y-85463095D01*
X176926130Y-88796904D02*
X175926130Y-88796904D01*
X175926130Y-89035000D01*
X175973750Y-89177857D01*
X176068988Y-89273095D01*
X176164226Y-89320714D01*
X176354702Y-89368333D01*
X176497559Y-89368333D01*
X176688035Y-89320714D01*
X176783273Y-89273095D01*
X176878511Y-89177857D01*
X176926130Y-89035000D01*
X176926130Y-88796904D01*
X175926130Y-89701666D02*
X175926130Y-90320714D01*
X176307083Y-89987380D01*
X176307083Y-90130238D01*
X176354702Y-90225476D01*
X176402321Y-90273095D01*
X176497559Y-90320714D01*
X176735654Y-90320714D01*
X176830892Y-90273095D01*
X176878511Y-90225476D01*
X176926130Y-90130238D01*
X176926130Y-89844523D01*
X176878511Y-89749285D01*
X176830892Y-89701666D01*
X177246130Y-85463095D02*
X176246130Y-85463095D01*
X177246130Y-86034523D02*
X176674702Y-85605952D01*
X176246130Y-86034523D02*
X176817559Y-85463095D01*
X195976130Y-88796904D02*
X194976130Y-88796904D01*
X194976130Y-89035000D01*
X195023750Y-89177857D01*
X195118988Y-89273095D01*
X195214226Y-89320714D01*
X195404702Y-89368333D01*
X195547559Y-89368333D01*
X195738035Y-89320714D01*
X195833273Y-89273095D01*
X195928511Y-89177857D01*
X195976130Y-89035000D01*
X195976130Y-88796904D01*
X195309464Y-90225476D02*
X195976130Y-90225476D01*
X194928511Y-89987380D02*
X195642797Y-89749285D01*
X195642797Y-90368333D01*
X196296130Y-85463095D02*
X195296130Y-85463095D01*
X196296130Y-86034523D02*
X195724702Y-85605952D01*
X195296130Y-86034523D02*
X195867559Y-85463095D01*
X220618095Y-88297380D02*
X220618095Y-87297380D01*
X220380000Y-87297380D01*
X220237142Y-87345000D01*
X220141904Y-87440238D01*
X220094285Y-87535476D01*
X220046666Y-87725952D01*
X220046666Y-87868809D01*
X220094285Y-88059285D01*
X220141904Y-88154523D01*
X220237142Y-88249761D01*
X220380000Y-88297380D01*
X220618095Y-88297380D01*
X219141904Y-87297380D02*
X219618095Y-87297380D01*
X219665714Y-87773571D01*
X219618095Y-87725952D01*
X219522857Y-87678333D01*
X219284761Y-87678333D01*
X219189523Y-87725952D01*
X219141904Y-87773571D01*
X219094285Y-87868809D01*
X219094285Y-88106904D01*
X219141904Y-88202142D01*
X219189523Y-88249761D01*
X219284761Y-88297380D01*
X219522857Y-88297380D01*
X219618095Y-88249761D01*
X219665714Y-88202142D01*
X216331904Y-87977380D02*
X216331904Y-86977380D01*
X215760476Y-87977380D02*
X216189047Y-87405952D01*
X215760476Y-86977380D02*
X216331904Y-87548809D01*
X110251130Y-117371904D02*
X109251130Y-117371904D01*
X109251130Y-117610000D01*
X109298750Y-117752857D01*
X109393988Y-117848095D01*
X109489226Y-117895714D01*
X109679702Y-117943333D01*
X109822559Y-117943333D01*
X110013035Y-117895714D01*
X110108273Y-117848095D01*
X110203511Y-117752857D01*
X110251130Y-117610000D01*
X110251130Y-117371904D01*
X109251130Y-118800476D02*
X109251130Y-118610000D01*
X109298750Y-118514761D01*
X109346369Y-118467142D01*
X109489226Y-118371904D01*
X109679702Y-118324285D01*
X110060654Y-118324285D01*
X110155892Y-118371904D01*
X110203511Y-118419523D01*
X110251130Y-118514761D01*
X110251130Y-118705238D01*
X110203511Y-118800476D01*
X110155892Y-118848095D01*
X110060654Y-118895714D01*
X109822559Y-118895714D01*
X109727321Y-118848095D01*
X109679702Y-118800476D01*
X109632083Y-118705238D01*
X109632083Y-118514761D01*
X109679702Y-118419523D01*
X109727321Y-118371904D01*
X109822559Y-118324285D01*
X110571130Y-114038095D02*
X109571130Y-114038095D01*
X110571130Y-114609523D02*
X109999702Y-114180952D01*
X109571130Y-114609523D02*
X110142559Y-114038095D01*
X138826130Y-117371904D02*
X137826130Y-117371904D01*
X137826130Y-117610000D01*
X137873750Y-117752857D01*
X137968988Y-117848095D01*
X138064226Y-117895714D01*
X138254702Y-117943333D01*
X138397559Y-117943333D01*
X138588035Y-117895714D01*
X138683273Y-117848095D01*
X138778511Y-117752857D01*
X138826130Y-117610000D01*
X138826130Y-117371904D01*
X137826130Y-118276666D02*
X137826130Y-118943333D01*
X138826130Y-118514761D01*
X139146130Y-114038095D02*
X138146130Y-114038095D01*
X139146130Y-114609523D02*
X138574702Y-114180952D01*
X138146130Y-114609523D02*
X138717559Y-114038095D01*
X157876130Y-117371904D02*
X156876130Y-117371904D01*
X156876130Y-117610000D01*
X156923750Y-117752857D01*
X157018988Y-117848095D01*
X157114226Y-117895714D01*
X157304702Y-117943333D01*
X157447559Y-117943333D01*
X157638035Y-117895714D01*
X157733273Y-117848095D01*
X157828511Y-117752857D01*
X157876130Y-117610000D01*
X157876130Y-117371904D01*
X157304702Y-118514761D02*
X157257083Y-118419523D01*
X157209464Y-118371904D01*
X157114226Y-118324285D01*
X157066607Y-118324285D01*
X156971369Y-118371904D01*
X156923750Y-118419523D01*
X156876130Y-118514761D01*
X156876130Y-118705238D01*
X156923750Y-118800476D01*
X156971369Y-118848095D01*
X157066607Y-118895714D01*
X157114226Y-118895714D01*
X157209464Y-118848095D01*
X157257083Y-118800476D01*
X157304702Y-118705238D01*
X157304702Y-118514761D01*
X157352321Y-118419523D01*
X157399940Y-118371904D01*
X157495178Y-118324285D01*
X157685654Y-118324285D01*
X157780892Y-118371904D01*
X157828511Y-118419523D01*
X157876130Y-118514761D01*
X157876130Y-118705238D01*
X157828511Y-118800476D01*
X157780892Y-118848095D01*
X157685654Y-118895714D01*
X157495178Y-118895714D01*
X157399940Y-118848095D01*
X157352321Y-118800476D01*
X157304702Y-118705238D01*
X158196130Y-114038095D02*
X157196130Y-114038095D01*
X158196130Y-114609523D02*
X157624702Y-114180952D01*
X157196130Y-114609523D02*
X157767559Y-114038095D01*
X176926130Y-117371904D02*
X175926130Y-117371904D01*
X175926130Y-117610000D01*
X175973750Y-117752857D01*
X176068988Y-117848095D01*
X176164226Y-117895714D01*
X176354702Y-117943333D01*
X176497559Y-117943333D01*
X176688035Y-117895714D01*
X176783273Y-117848095D01*
X176878511Y-117752857D01*
X176926130Y-117610000D01*
X176926130Y-117371904D01*
X176926130Y-118419523D02*
X176926130Y-118610000D01*
X176878511Y-118705238D01*
X176830892Y-118752857D01*
X176688035Y-118848095D01*
X176497559Y-118895714D01*
X176116607Y-118895714D01*
X176021369Y-118848095D01*
X175973750Y-118800476D01*
X175926130Y-118705238D01*
X175926130Y-118514761D01*
X175973750Y-118419523D01*
X176021369Y-118371904D01*
X176116607Y-118324285D01*
X176354702Y-118324285D01*
X176449940Y-118371904D01*
X176497559Y-118419523D01*
X176545178Y-118514761D01*
X176545178Y-118705238D01*
X176497559Y-118800476D01*
X176449940Y-118848095D01*
X176354702Y-118895714D01*
X177246130Y-114038095D02*
X176246130Y-114038095D01*
X177246130Y-114609523D02*
X176674702Y-114180952D01*
X176246130Y-114609523D02*
X176817559Y-114038095D01*
X198357380Y-121375714D02*
X197357380Y-121375714D01*
X197357380Y-121613809D01*
X197405000Y-121756666D01*
X197500238Y-121851904D01*
X197595476Y-121899523D01*
X197785952Y-121947142D01*
X197928809Y-121947142D01*
X198119285Y-121899523D01*
X198214523Y-121851904D01*
X198309761Y-121756666D01*
X198357380Y-121613809D01*
X198357380Y-121375714D01*
X198357380Y-122899523D02*
X198357380Y-122328095D01*
X198357380Y-122613809D02*
X197357380Y-122613809D01*
X197500238Y-122518571D01*
X197595476Y-122423333D01*
X197643095Y-122328095D01*
X197357380Y-123518571D02*
X197357380Y-123613809D01*
X197405000Y-123709047D01*
X197452619Y-123756666D01*
X197547857Y-123804285D01*
X197738333Y-123851904D01*
X197976428Y-123851904D01*
X198166904Y-123804285D01*
X198262142Y-123756666D01*
X198309761Y-123709047D01*
X198357380Y-123613809D01*
X198357380Y-123518571D01*
X198309761Y-123423333D01*
X198262142Y-123375714D01*
X198166904Y-123328095D01*
X197976428Y-123280476D01*
X197738333Y-123280476D01*
X197547857Y-123328095D01*
X197452619Y-123375714D01*
X197405000Y-123423333D01*
X197357380Y-123518571D01*
X198677380Y-118518095D02*
X197677380Y-118518095D01*
X198677380Y-119089523D02*
X198105952Y-118660952D01*
X197677380Y-119089523D02*
X198248809Y-118518095D01*
X224551130Y-116895714D02*
X223551130Y-116895714D01*
X223551130Y-117133809D01*
X223598750Y-117276666D01*
X223693988Y-117371904D01*
X223789226Y-117419523D01*
X223979702Y-117467142D01*
X224122559Y-117467142D01*
X224313035Y-117419523D01*
X224408273Y-117371904D01*
X224503511Y-117276666D01*
X224551130Y-117133809D01*
X224551130Y-116895714D01*
X224551130Y-118419523D02*
X224551130Y-117848095D01*
X224551130Y-118133809D02*
X223551130Y-118133809D01*
X223693988Y-118038571D01*
X223789226Y-117943333D01*
X223836845Y-117848095D01*
X224551130Y-119371904D02*
X224551130Y-118800476D01*
X224551130Y-119086190D02*
X223551130Y-119086190D01*
X223693988Y-118990952D01*
X223789226Y-118895714D01*
X223836845Y-118800476D01*
X224871130Y-114038095D02*
X223871130Y-114038095D01*
X224871130Y-114609523D02*
X224299702Y-114180952D01*
X223871130Y-114609523D02*
X224442559Y-114038095D01*
X110251130Y-135945714D02*
X109251130Y-135945714D01*
X109251130Y-136183809D01*
X109298750Y-136326666D01*
X109393988Y-136421904D01*
X109489226Y-136469523D01*
X109679702Y-136517142D01*
X109822559Y-136517142D01*
X110013035Y-136469523D01*
X110108273Y-136421904D01*
X110203511Y-136326666D01*
X110251130Y-136183809D01*
X110251130Y-135945714D01*
X110251130Y-137469523D02*
X110251130Y-136898095D01*
X110251130Y-137183809D02*
X109251130Y-137183809D01*
X109393988Y-137088571D01*
X109489226Y-136993333D01*
X109536845Y-136898095D01*
X109346369Y-137850476D02*
X109298750Y-137898095D01*
X109251130Y-137993333D01*
X109251130Y-138231428D01*
X109298750Y-138326666D01*
X109346369Y-138374285D01*
X109441607Y-138421904D01*
X109536845Y-138421904D01*
X109679702Y-138374285D01*
X110251130Y-137802857D01*
X110251130Y-138421904D01*
X110571130Y-133088095D02*
X109571130Y-133088095D01*
X110571130Y-133659523D02*
X109999702Y-133230952D01*
X109571130Y-133659523D02*
X110142559Y-133088095D01*
X138826130Y-135945714D02*
X137826130Y-135945714D01*
X137826130Y-136183809D01*
X137873750Y-136326666D01*
X137968988Y-136421904D01*
X138064226Y-136469523D01*
X138254702Y-136517142D01*
X138397559Y-136517142D01*
X138588035Y-136469523D01*
X138683273Y-136421904D01*
X138778511Y-136326666D01*
X138826130Y-136183809D01*
X138826130Y-135945714D01*
X138826130Y-137469523D02*
X138826130Y-136898095D01*
X138826130Y-137183809D02*
X137826130Y-137183809D01*
X137968988Y-137088571D01*
X138064226Y-136993333D01*
X138111845Y-136898095D01*
X137826130Y-137802857D02*
X137826130Y-138421904D01*
X138207083Y-138088571D01*
X138207083Y-138231428D01*
X138254702Y-138326666D01*
X138302321Y-138374285D01*
X138397559Y-138421904D01*
X138635654Y-138421904D01*
X138730892Y-138374285D01*
X138778511Y-138326666D01*
X138826130Y-138231428D01*
X138826130Y-137945714D01*
X138778511Y-137850476D01*
X138730892Y-137802857D01*
X139146130Y-133088095D02*
X138146130Y-133088095D01*
X139146130Y-133659523D02*
X138574702Y-133230952D01*
X138146130Y-133659523D02*
X138717559Y-133088095D01*
X157876130Y-135945714D02*
X156876130Y-135945714D01*
X156876130Y-136183809D01*
X156923750Y-136326666D01*
X157018988Y-136421904D01*
X157114226Y-136469523D01*
X157304702Y-136517142D01*
X157447559Y-136517142D01*
X157638035Y-136469523D01*
X157733273Y-136421904D01*
X157828511Y-136326666D01*
X157876130Y-136183809D01*
X157876130Y-135945714D01*
X157876130Y-137469523D02*
X157876130Y-136898095D01*
X157876130Y-137183809D02*
X156876130Y-137183809D01*
X157018988Y-137088571D01*
X157114226Y-136993333D01*
X157161845Y-136898095D01*
X157209464Y-138326666D02*
X157876130Y-138326666D01*
X156828511Y-138088571D02*
X157542797Y-137850476D01*
X157542797Y-138469523D01*
X158196130Y-133088095D02*
X157196130Y-133088095D01*
X158196130Y-133659523D02*
X157624702Y-133230952D01*
X157196130Y-133659523D02*
X157767559Y-133088095D01*
X169004285Y-135922380D02*
X169004285Y-134922380D01*
X168766190Y-134922380D01*
X168623333Y-134970000D01*
X168528095Y-135065238D01*
X168480476Y-135160476D01*
X168432857Y-135350952D01*
X168432857Y-135493809D01*
X168480476Y-135684285D01*
X168528095Y-135779523D01*
X168623333Y-135874761D01*
X168766190Y-135922380D01*
X169004285Y-135922380D01*
X167480476Y-135922380D02*
X168051904Y-135922380D01*
X167766190Y-135922380D02*
X167766190Y-134922380D01*
X167861428Y-135065238D01*
X167956666Y-135160476D01*
X168051904Y-135208095D01*
X166575714Y-134922380D02*
X167051904Y-134922380D01*
X167099523Y-135398571D01*
X167051904Y-135350952D01*
X166956666Y-135303333D01*
X166718571Y-135303333D01*
X166623333Y-135350952D01*
X166575714Y-135398571D01*
X166528095Y-135493809D01*
X166528095Y-135731904D01*
X166575714Y-135827142D01*
X166623333Y-135874761D01*
X166718571Y-135922380D01*
X166956666Y-135922380D01*
X167051904Y-135874761D01*
X167099523Y-135827142D01*
X164241904Y-135602380D02*
X164241904Y-134602380D01*
X163670476Y-135602380D02*
X164099047Y-135030952D01*
X163670476Y-134602380D02*
X164241904Y-135173809D01*
X198357380Y-135945714D02*
X197357380Y-135945714D01*
X197357380Y-136183809D01*
X197405000Y-136326666D01*
X197500238Y-136421904D01*
X197595476Y-136469523D01*
X197785952Y-136517142D01*
X197928809Y-136517142D01*
X198119285Y-136469523D01*
X198214523Y-136421904D01*
X198309761Y-136326666D01*
X198357380Y-136183809D01*
X198357380Y-135945714D01*
X198357380Y-137469523D02*
X198357380Y-136898095D01*
X198357380Y-137183809D02*
X197357380Y-137183809D01*
X197500238Y-137088571D01*
X197595476Y-136993333D01*
X197643095Y-136898095D01*
X197357380Y-138326666D02*
X197357380Y-138136190D01*
X197405000Y-138040952D01*
X197452619Y-137993333D01*
X197595476Y-137898095D01*
X197785952Y-137850476D01*
X198166904Y-137850476D01*
X198262142Y-137898095D01*
X198309761Y-137945714D01*
X198357380Y-138040952D01*
X198357380Y-138231428D01*
X198309761Y-138326666D01*
X198262142Y-138374285D01*
X198166904Y-138421904D01*
X197928809Y-138421904D01*
X197833571Y-138374285D01*
X197785952Y-138326666D01*
X197738333Y-138231428D01*
X197738333Y-138040952D01*
X197785952Y-137945714D01*
X197833571Y-137898095D01*
X197928809Y-137850476D01*
X198677380Y-133088095D02*
X197677380Y-133088095D01*
X198677380Y-133659523D02*
X198105952Y-133230952D01*
X197677380Y-133659523D02*
X198248809Y-133088095D01*
X224551130Y-135945714D02*
X223551130Y-135945714D01*
X223551130Y-136183809D01*
X223598750Y-136326666D01*
X223693988Y-136421904D01*
X223789226Y-136469523D01*
X223979702Y-136517142D01*
X224122559Y-136517142D01*
X224313035Y-136469523D01*
X224408273Y-136421904D01*
X224503511Y-136326666D01*
X224551130Y-136183809D01*
X224551130Y-135945714D01*
X224551130Y-137469523D02*
X224551130Y-136898095D01*
X224551130Y-137183809D02*
X223551130Y-137183809D01*
X223693988Y-137088571D01*
X223789226Y-136993333D01*
X223836845Y-136898095D01*
X223551130Y-137802857D02*
X223551130Y-138469523D01*
X224551130Y-138040952D01*
X224871130Y-133088095D02*
X223871130Y-133088095D01*
X224871130Y-133659523D02*
X224299702Y-133230952D01*
X223871130Y-133659523D02*
X224442559Y-133088095D01*
X110251130Y-154995714D02*
X109251130Y-154995714D01*
X109251130Y-155233809D01*
X109298750Y-155376666D01*
X109393988Y-155471904D01*
X109489226Y-155519523D01*
X109679702Y-155567142D01*
X109822559Y-155567142D01*
X110013035Y-155519523D01*
X110108273Y-155471904D01*
X110203511Y-155376666D01*
X110251130Y-155233809D01*
X110251130Y-154995714D01*
X110251130Y-156519523D02*
X110251130Y-155948095D01*
X110251130Y-156233809D02*
X109251130Y-156233809D01*
X109393988Y-156138571D01*
X109489226Y-156043333D01*
X109536845Y-155948095D01*
X109679702Y-157090952D02*
X109632083Y-156995714D01*
X109584464Y-156948095D01*
X109489226Y-156900476D01*
X109441607Y-156900476D01*
X109346369Y-156948095D01*
X109298750Y-156995714D01*
X109251130Y-157090952D01*
X109251130Y-157281428D01*
X109298750Y-157376666D01*
X109346369Y-157424285D01*
X109441607Y-157471904D01*
X109489226Y-157471904D01*
X109584464Y-157424285D01*
X109632083Y-157376666D01*
X109679702Y-157281428D01*
X109679702Y-157090952D01*
X109727321Y-156995714D01*
X109774940Y-156948095D01*
X109870178Y-156900476D01*
X110060654Y-156900476D01*
X110155892Y-156948095D01*
X110203511Y-156995714D01*
X110251130Y-157090952D01*
X110251130Y-157281428D01*
X110203511Y-157376666D01*
X110155892Y-157424285D01*
X110060654Y-157471904D01*
X109870178Y-157471904D01*
X109774940Y-157424285D01*
X109727321Y-157376666D01*
X109679702Y-157281428D01*
X110571130Y-152138095D02*
X109571130Y-152138095D01*
X110571130Y-152709523D02*
X109999702Y-152280952D01*
X109571130Y-152709523D02*
X110142559Y-152138095D01*
X138826130Y-154995714D02*
X137826130Y-154995714D01*
X137826130Y-155233809D01*
X137873750Y-155376666D01*
X137968988Y-155471904D01*
X138064226Y-155519523D01*
X138254702Y-155567142D01*
X138397559Y-155567142D01*
X138588035Y-155519523D01*
X138683273Y-155471904D01*
X138778511Y-155376666D01*
X138826130Y-155233809D01*
X138826130Y-154995714D01*
X138826130Y-156519523D02*
X138826130Y-155948095D01*
X138826130Y-156233809D02*
X137826130Y-156233809D01*
X137968988Y-156138571D01*
X138064226Y-156043333D01*
X138111845Y-155948095D01*
X138826130Y-156995714D02*
X138826130Y-157186190D01*
X138778511Y-157281428D01*
X138730892Y-157329047D01*
X138588035Y-157424285D01*
X138397559Y-157471904D01*
X138016607Y-157471904D01*
X137921369Y-157424285D01*
X137873750Y-157376666D01*
X137826130Y-157281428D01*
X137826130Y-157090952D01*
X137873750Y-156995714D01*
X137921369Y-156948095D01*
X138016607Y-156900476D01*
X138254702Y-156900476D01*
X138349940Y-156948095D01*
X138397559Y-156995714D01*
X138445178Y-157090952D01*
X138445178Y-157281428D01*
X138397559Y-157376666D01*
X138349940Y-157424285D01*
X138254702Y-157471904D01*
X139146130Y-152138095D02*
X138146130Y-152138095D01*
X139146130Y-152709523D02*
X138574702Y-152280952D01*
X138146130Y-152709523D02*
X138717559Y-152138095D01*
X157876130Y-154995714D02*
X156876130Y-154995714D01*
X156876130Y-155233809D01*
X156923750Y-155376666D01*
X157018988Y-155471904D01*
X157114226Y-155519523D01*
X157304702Y-155567142D01*
X157447559Y-155567142D01*
X157638035Y-155519523D01*
X157733273Y-155471904D01*
X157828511Y-155376666D01*
X157876130Y-155233809D01*
X157876130Y-154995714D01*
X156971369Y-155948095D02*
X156923750Y-155995714D01*
X156876130Y-156090952D01*
X156876130Y-156329047D01*
X156923750Y-156424285D01*
X156971369Y-156471904D01*
X157066607Y-156519523D01*
X157161845Y-156519523D01*
X157304702Y-156471904D01*
X157876130Y-155900476D01*
X157876130Y-156519523D01*
X156876130Y-157138571D02*
X156876130Y-157233809D01*
X156923750Y-157329047D01*
X156971369Y-157376666D01*
X157066607Y-157424285D01*
X157257083Y-157471904D01*
X157495178Y-157471904D01*
X157685654Y-157424285D01*
X157780892Y-157376666D01*
X157828511Y-157329047D01*
X157876130Y-157233809D01*
X157876130Y-157138571D01*
X157828511Y-157043333D01*
X157780892Y-156995714D01*
X157685654Y-156948095D01*
X157495178Y-156900476D01*
X157257083Y-156900476D01*
X157066607Y-156948095D01*
X156971369Y-156995714D01*
X156923750Y-157043333D01*
X156876130Y-157138571D01*
X158196130Y-152138095D02*
X157196130Y-152138095D01*
X158196130Y-152709523D02*
X157624702Y-152280952D01*
X157196130Y-152709523D02*
X157767559Y-152138095D01*
X176926130Y-154995714D02*
X175926130Y-154995714D01*
X175926130Y-155233809D01*
X175973750Y-155376666D01*
X176068988Y-155471904D01*
X176164226Y-155519523D01*
X176354702Y-155567142D01*
X176497559Y-155567142D01*
X176688035Y-155519523D01*
X176783273Y-155471904D01*
X176878511Y-155376666D01*
X176926130Y-155233809D01*
X176926130Y-154995714D01*
X176021369Y-155948095D02*
X175973750Y-155995714D01*
X175926130Y-156090952D01*
X175926130Y-156329047D01*
X175973750Y-156424285D01*
X176021369Y-156471904D01*
X176116607Y-156519523D01*
X176211845Y-156519523D01*
X176354702Y-156471904D01*
X176926130Y-155900476D01*
X176926130Y-156519523D01*
X176926130Y-157471904D02*
X176926130Y-156900476D01*
X176926130Y-157186190D02*
X175926130Y-157186190D01*
X176068988Y-157090952D01*
X176164226Y-156995714D01*
X176211845Y-156900476D01*
X177246130Y-152138095D02*
X176246130Y-152138095D01*
X177246130Y-152709523D02*
X176674702Y-152280952D01*
X176246130Y-152709523D02*
X176817559Y-152138095D01*
X198357380Y-154995714D02*
X197357380Y-154995714D01*
X197357380Y-155233809D01*
X197405000Y-155376666D01*
X197500238Y-155471904D01*
X197595476Y-155519523D01*
X197785952Y-155567142D01*
X197928809Y-155567142D01*
X198119285Y-155519523D01*
X198214523Y-155471904D01*
X198309761Y-155376666D01*
X198357380Y-155233809D01*
X198357380Y-154995714D01*
X197452619Y-155948095D02*
X197405000Y-155995714D01*
X197357380Y-156090952D01*
X197357380Y-156329047D01*
X197405000Y-156424285D01*
X197452619Y-156471904D01*
X197547857Y-156519523D01*
X197643095Y-156519523D01*
X197785952Y-156471904D01*
X198357380Y-155900476D01*
X198357380Y-156519523D01*
X197452619Y-156900476D02*
X197405000Y-156948095D01*
X197357380Y-157043333D01*
X197357380Y-157281428D01*
X197405000Y-157376666D01*
X197452619Y-157424285D01*
X197547857Y-157471904D01*
X197643095Y-157471904D01*
X197785952Y-157424285D01*
X198357380Y-156852857D01*
X198357380Y-157471904D01*
X198677380Y-152138095D02*
X197677380Y-152138095D01*
X198677380Y-152709523D02*
X198105952Y-152280952D01*
X197677380Y-152709523D02*
X198248809Y-152138095D01*
X224551130Y-154995714D02*
X223551130Y-154995714D01*
X223551130Y-155233809D01*
X223598750Y-155376666D01*
X223693988Y-155471904D01*
X223789226Y-155519523D01*
X223979702Y-155567142D01*
X224122559Y-155567142D01*
X224313035Y-155519523D01*
X224408273Y-155471904D01*
X224503511Y-155376666D01*
X224551130Y-155233809D01*
X224551130Y-154995714D01*
X223646369Y-155948095D02*
X223598750Y-155995714D01*
X223551130Y-156090952D01*
X223551130Y-156329047D01*
X223598750Y-156424285D01*
X223646369Y-156471904D01*
X223741607Y-156519523D01*
X223836845Y-156519523D01*
X223979702Y-156471904D01*
X224551130Y-155900476D01*
X224551130Y-156519523D01*
X223551130Y-156852857D02*
X223551130Y-157471904D01*
X223932083Y-157138571D01*
X223932083Y-157281428D01*
X223979702Y-157376666D01*
X224027321Y-157424285D01*
X224122559Y-157471904D01*
X224360654Y-157471904D01*
X224455892Y-157424285D01*
X224503511Y-157376666D01*
X224551130Y-157281428D01*
X224551130Y-156995714D01*
X224503511Y-156900476D01*
X224455892Y-156852857D01*
X224871130Y-152138095D02*
X223871130Y-152138095D01*
X224871130Y-152709523D02*
X224299702Y-152280952D01*
X223871130Y-152709523D02*
X224442559Y-152138095D01*
X198357380Y-174045714D02*
X197357380Y-174045714D01*
X197357380Y-174283809D01*
X197405000Y-174426666D01*
X197500238Y-174521904D01*
X197595476Y-174569523D01*
X197785952Y-174617142D01*
X197928809Y-174617142D01*
X198119285Y-174569523D01*
X198214523Y-174521904D01*
X198309761Y-174426666D01*
X198357380Y-174283809D01*
X198357380Y-174045714D01*
X197452619Y-174998095D02*
X197405000Y-175045714D01*
X197357380Y-175140952D01*
X197357380Y-175379047D01*
X197405000Y-175474285D01*
X197452619Y-175521904D01*
X197547857Y-175569523D01*
X197643095Y-175569523D01*
X197785952Y-175521904D01*
X198357380Y-174950476D01*
X198357380Y-175569523D01*
X197690714Y-176426666D02*
X198357380Y-176426666D01*
X197309761Y-176188571D02*
X198024047Y-175950476D01*
X198024047Y-176569523D01*
X198677380Y-171188095D02*
X197677380Y-171188095D01*
X198677380Y-171759523D02*
X198105952Y-171330952D01*
X197677380Y-171759523D02*
X198248809Y-171188095D01*
X110251130Y-174045714D02*
X109251130Y-174045714D01*
X109251130Y-174283809D01*
X109298750Y-174426666D01*
X109393988Y-174521904D01*
X109489226Y-174569523D01*
X109679702Y-174617142D01*
X109822559Y-174617142D01*
X110013035Y-174569523D01*
X110108273Y-174521904D01*
X110203511Y-174426666D01*
X110251130Y-174283809D01*
X110251130Y-174045714D01*
X109346369Y-174998095D02*
X109298750Y-175045714D01*
X109251130Y-175140952D01*
X109251130Y-175379047D01*
X109298750Y-175474285D01*
X109346369Y-175521904D01*
X109441607Y-175569523D01*
X109536845Y-175569523D01*
X109679702Y-175521904D01*
X110251130Y-174950476D01*
X110251130Y-175569523D01*
X109251130Y-176474285D02*
X109251130Y-175998095D01*
X109727321Y-175950476D01*
X109679702Y-175998095D01*
X109632083Y-176093333D01*
X109632083Y-176331428D01*
X109679702Y-176426666D01*
X109727321Y-176474285D01*
X109822559Y-176521904D01*
X110060654Y-176521904D01*
X110155892Y-176474285D01*
X110203511Y-176426666D01*
X110251130Y-176331428D01*
X110251130Y-176093333D01*
X110203511Y-175998095D01*
X110155892Y-175950476D01*
X110571130Y-171188095D02*
X109571130Y-171188095D01*
X110571130Y-171759523D02*
X109999702Y-171330952D01*
X109571130Y-171759523D02*
X110142559Y-171188095D01*
X138826130Y-174045714D02*
X137826130Y-174045714D01*
X137826130Y-174283809D01*
X137873750Y-174426666D01*
X137968988Y-174521904D01*
X138064226Y-174569523D01*
X138254702Y-174617142D01*
X138397559Y-174617142D01*
X138588035Y-174569523D01*
X138683273Y-174521904D01*
X138778511Y-174426666D01*
X138826130Y-174283809D01*
X138826130Y-174045714D01*
X137921369Y-174998095D02*
X137873750Y-175045714D01*
X137826130Y-175140952D01*
X137826130Y-175379047D01*
X137873750Y-175474285D01*
X137921369Y-175521904D01*
X138016607Y-175569523D01*
X138111845Y-175569523D01*
X138254702Y-175521904D01*
X138826130Y-174950476D01*
X138826130Y-175569523D01*
X137826130Y-176426666D02*
X137826130Y-176236190D01*
X137873750Y-176140952D01*
X137921369Y-176093333D01*
X138064226Y-175998095D01*
X138254702Y-175950476D01*
X138635654Y-175950476D01*
X138730892Y-175998095D01*
X138778511Y-176045714D01*
X138826130Y-176140952D01*
X138826130Y-176331428D01*
X138778511Y-176426666D01*
X138730892Y-176474285D01*
X138635654Y-176521904D01*
X138397559Y-176521904D01*
X138302321Y-176474285D01*
X138254702Y-176426666D01*
X138207083Y-176331428D01*
X138207083Y-176140952D01*
X138254702Y-176045714D01*
X138302321Y-175998095D01*
X138397559Y-175950476D01*
X139146130Y-171188095D02*
X138146130Y-171188095D01*
X139146130Y-171759523D02*
X138574702Y-171330952D01*
X138146130Y-171759523D02*
X138717559Y-171188095D01*
X157876130Y-174045714D02*
X156876130Y-174045714D01*
X156876130Y-174283809D01*
X156923750Y-174426666D01*
X157018988Y-174521904D01*
X157114226Y-174569523D01*
X157304702Y-174617142D01*
X157447559Y-174617142D01*
X157638035Y-174569523D01*
X157733273Y-174521904D01*
X157828511Y-174426666D01*
X157876130Y-174283809D01*
X157876130Y-174045714D01*
X156971369Y-174998095D02*
X156923750Y-175045714D01*
X156876130Y-175140952D01*
X156876130Y-175379047D01*
X156923750Y-175474285D01*
X156971369Y-175521904D01*
X157066607Y-175569523D01*
X157161845Y-175569523D01*
X157304702Y-175521904D01*
X157876130Y-174950476D01*
X157876130Y-175569523D01*
X156876130Y-175902857D02*
X156876130Y-176569523D01*
X157876130Y-176140952D01*
X158196130Y-171188095D02*
X157196130Y-171188095D01*
X158196130Y-171759523D02*
X157624702Y-171330952D01*
X157196130Y-171759523D02*
X157767559Y-171188095D01*
X224551130Y-174045714D02*
X223551130Y-174045714D01*
X223551130Y-174283809D01*
X223598750Y-174426666D01*
X223693988Y-174521904D01*
X223789226Y-174569523D01*
X223979702Y-174617142D01*
X224122559Y-174617142D01*
X224313035Y-174569523D01*
X224408273Y-174521904D01*
X224503511Y-174426666D01*
X224551130Y-174283809D01*
X224551130Y-174045714D01*
X223646369Y-174998095D02*
X223598750Y-175045714D01*
X223551130Y-175140952D01*
X223551130Y-175379047D01*
X223598750Y-175474285D01*
X223646369Y-175521904D01*
X223741607Y-175569523D01*
X223836845Y-175569523D01*
X223979702Y-175521904D01*
X224551130Y-174950476D01*
X224551130Y-175569523D01*
X224551130Y-176045714D02*
X224551130Y-176236190D01*
X224503511Y-176331428D01*
X224455892Y-176379047D01*
X224313035Y-176474285D01*
X224122559Y-176521904D01*
X223741607Y-176521904D01*
X223646369Y-176474285D01*
X223598750Y-176426666D01*
X223551130Y-176331428D01*
X223551130Y-176140952D01*
X223598750Y-176045714D01*
X223646369Y-175998095D01*
X223741607Y-175950476D01*
X223979702Y-175950476D01*
X224074940Y-175998095D01*
X224122559Y-176045714D01*
X224170178Y-176140952D01*
X224170178Y-176331428D01*
X224122559Y-176426666D01*
X224074940Y-176474285D01*
X223979702Y-176521904D01*
X224871130Y-171188095D02*
X223871130Y-171188095D01*
X224871130Y-171759523D02*
X224299702Y-171330952D01*
X223871130Y-171759523D02*
X224442559Y-171188095D01*
X110251130Y-193095714D02*
X109251130Y-193095714D01*
X109251130Y-193333809D01*
X109298750Y-193476666D01*
X109393988Y-193571904D01*
X109489226Y-193619523D01*
X109679702Y-193667142D01*
X109822559Y-193667142D01*
X110013035Y-193619523D01*
X110108273Y-193571904D01*
X110203511Y-193476666D01*
X110251130Y-193333809D01*
X110251130Y-193095714D01*
X109251130Y-194000476D02*
X109251130Y-194619523D01*
X109632083Y-194286190D01*
X109632083Y-194429047D01*
X109679702Y-194524285D01*
X109727321Y-194571904D01*
X109822559Y-194619523D01*
X110060654Y-194619523D01*
X110155892Y-194571904D01*
X110203511Y-194524285D01*
X110251130Y-194429047D01*
X110251130Y-194143333D01*
X110203511Y-194048095D01*
X110155892Y-194000476D01*
X109251130Y-195238571D02*
X109251130Y-195333809D01*
X109298750Y-195429047D01*
X109346369Y-195476666D01*
X109441607Y-195524285D01*
X109632083Y-195571904D01*
X109870178Y-195571904D01*
X110060654Y-195524285D01*
X110155892Y-195476666D01*
X110203511Y-195429047D01*
X110251130Y-195333809D01*
X110251130Y-195238571D01*
X110203511Y-195143333D01*
X110155892Y-195095714D01*
X110060654Y-195048095D01*
X109870178Y-195000476D01*
X109632083Y-195000476D01*
X109441607Y-195048095D01*
X109346369Y-195095714D01*
X109298750Y-195143333D01*
X109251130Y-195238571D01*
X110571130Y-190238095D02*
X109571130Y-190238095D01*
X110571130Y-190809523D02*
X109999702Y-190380952D01*
X109571130Y-190809523D02*
X110142559Y-190238095D01*
X138832380Y-190720714D02*
X137832380Y-190720714D01*
X137832380Y-190958809D01*
X137880000Y-191101666D01*
X137975238Y-191196904D01*
X138070476Y-191244523D01*
X138260952Y-191292142D01*
X138403809Y-191292142D01*
X138594285Y-191244523D01*
X138689523Y-191196904D01*
X138784761Y-191101666D01*
X138832380Y-190958809D01*
X138832380Y-190720714D01*
X137832380Y-191625476D02*
X137832380Y-192244523D01*
X138213333Y-191911190D01*
X138213333Y-192054047D01*
X138260952Y-192149285D01*
X138308571Y-192196904D01*
X138403809Y-192244523D01*
X138641904Y-192244523D01*
X138737142Y-192196904D01*
X138784761Y-192149285D01*
X138832380Y-192054047D01*
X138832380Y-191768333D01*
X138784761Y-191673095D01*
X138737142Y-191625476D01*
X138832380Y-193196904D02*
X138832380Y-192625476D01*
X138832380Y-192911190D02*
X137832380Y-192911190D01*
X137975238Y-192815952D01*
X138070476Y-192720714D01*
X138118095Y-192625476D01*
X139152380Y-187863095D02*
X138152380Y-187863095D01*
X139152380Y-188434523D02*
X138580952Y-188005952D01*
X138152380Y-188434523D02*
X138723809Y-187863095D01*
X157876130Y-193095714D02*
X156876130Y-193095714D01*
X156876130Y-193333809D01*
X156923750Y-193476666D01*
X157018988Y-193571904D01*
X157114226Y-193619523D01*
X157304702Y-193667142D01*
X157447559Y-193667142D01*
X157638035Y-193619523D01*
X157733273Y-193571904D01*
X157828511Y-193476666D01*
X157876130Y-193333809D01*
X157876130Y-193095714D01*
X156876130Y-194000476D02*
X156876130Y-194619523D01*
X157257083Y-194286190D01*
X157257083Y-194429047D01*
X157304702Y-194524285D01*
X157352321Y-194571904D01*
X157447559Y-194619523D01*
X157685654Y-194619523D01*
X157780892Y-194571904D01*
X157828511Y-194524285D01*
X157876130Y-194429047D01*
X157876130Y-194143333D01*
X157828511Y-194048095D01*
X157780892Y-194000476D01*
X156971369Y-195000476D02*
X156923750Y-195048095D01*
X156876130Y-195143333D01*
X156876130Y-195381428D01*
X156923750Y-195476666D01*
X156971369Y-195524285D01*
X157066607Y-195571904D01*
X157161845Y-195571904D01*
X157304702Y-195524285D01*
X157876130Y-194952857D01*
X157876130Y-195571904D01*
X158196130Y-190238095D02*
X157196130Y-190238095D01*
X158196130Y-190809523D02*
X157624702Y-190380952D01*
X157196130Y-190809523D02*
X157767559Y-190238095D01*
X176926130Y-193095714D02*
X175926130Y-193095714D01*
X175926130Y-193333809D01*
X175973750Y-193476666D01*
X176068988Y-193571904D01*
X176164226Y-193619523D01*
X176354702Y-193667142D01*
X176497559Y-193667142D01*
X176688035Y-193619523D01*
X176783273Y-193571904D01*
X176878511Y-193476666D01*
X176926130Y-193333809D01*
X176926130Y-193095714D01*
X175926130Y-194000476D02*
X175926130Y-194619523D01*
X176307083Y-194286190D01*
X176307083Y-194429047D01*
X176354702Y-194524285D01*
X176402321Y-194571904D01*
X176497559Y-194619523D01*
X176735654Y-194619523D01*
X176830892Y-194571904D01*
X176878511Y-194524285D01*
X176926130Y-194429047D01*
X176926130Y-194143333D01*
X176878511Y-194048095D01*
X176830892Y-194000476D01*
X175926130Y-194952857D02*
X175926130Y-195571904D01*
X176307083Y-195238571D01*
X176307083Y-195381428D01*
X176354702Y-195476666D01*
X176402321Y-195524285D01*
X176497559Y-195571904D01*
X176735654Y-195571904D01*
X176830892Y-195524285D01*
X176878511Y-195476666D01*
X176926130Y-195381428D01*
X176926130Y-195095714D01*
X176878511Y-195000476D01*
X176830892Y-194952857D01*
X177246130Y-190238095D02*
X176246130Y-190238095D01*
X177246130Y-190809523D02*
X176674702Y-190380952D01*
X176246130Y-190809523D02*
X176817559Y-190238095D01*
X198357380Y-193095714D02*
X197357380Y-193095714D01*
X197357380Y-193333809D01*
X197405000Y-193476666D01*
X197500238Y-193571904D01*
X197595476Y-193619523D01*
X197785952Y-193667142D01*
X197928809Y-193667142D01*
X198119285Y-193619523D01*
X198214523Y-193571904D01*
X198309761Y-193476666D01*
X198357380Y-193333809D01*
X198357380Y-193095714D01*
X197357380Y-194000476D02*
X197357380Y-194619523D01*
X197738333Y-194286190D01*
X197738333Y-194429047D01*
X197785952Y-194524285D01*
X197833571Y-194571904D01*
X197928809Y-194619523D01*
X198166904Y-194619523D01*
X198262142Y-194571904D01*
X198309761Y-194524285D01*
X198357380Y-194429047D01*
X198357380Y-194143333D01*
X198309761Y-194048095D01*
X198262142Y-194000476D01*
X197690714Y-195476666D02*
X198357380Y-195476666D01*
X197309761Y-195238571D02*
X198024047Y-195000476D01*
X198024047Y-195619523D01*
X198677380Y-190238095D02*
X197677380Y-190238095D01*
X198677380Y-190809523D02*
X198105952Y-190380952D01*
X197677380Y-190809523D02*
X198248809Y-190238095D01*
X224551130Y-193095714D02*
X223551130Y-193095714D01*
X223551130Y-193333809D01*
X223598750Y-193476666D01*
X223693988Y-193571904D01*
X223789226Y-193619523D01*
X223979702Y-193667142D01*
X224122559Y-193667142D01*
X224313035Y-193619523D01*
X224408273Y-193571904D01*
X224503511Y-193476666D01*
X224551130Y-193333809D01*
X224551130Y-193095714D01*
X223551130Y-194000476D02*
X223551130Y-194619523D01*
X223932083Y-194286190D01*
X223932083Y-194429047D01*
X223979702Y-194524285D01*
X224027321Y-194571904D01*
X224122559Y-194619523D01*
X224360654Y-194619523D01*
X224455892Y-194571904D01*
X224503511Y-194524285D01*
X224551130Y-194429047D01*
X224551130Y-194143333D01*
X224503511Y-194048095D01*
X224455892Y-194000476D01*
X223551130Y-195524285D02*
X223551130Y-195048095D01*
X224027321Y-195000476D01*
X223979702Y-195048095D01*
X223932083Y-195143333D01*
X223932083Y-195381428D01*
X223979702Y-195476666D01*
X224027321Y-195524285D01*
X224122559Y-195571904D01*
X224360654Y-195571904D01*
X224455892Y-195524285D01*
X224503511Y-195476666D01*
X224551130Y-195381428D01*
X224551130Y-195143333D01*
X224503511Y-195048095D01*
X224455892Y-195000476D01*
X224871130Y-190238095D02*
X223871130Y-190238095D01*
X224871130Y-190809523D02*
X224299702Y-190380952D01*
X223871130Y-190809523D02*
X224442559Y-190238095D01*
X209136666Y-76282380D02*
X209470000Y-75806190D01*
X209708095Y-76282380D02*
X209708095Y-75282380D01*
X209327142Y-75282380D01*
X209231904Y-75330000D01*
X209184285Y-75377619D01*
X209136666Y-75472857D01*
X209136666Y-75615714D01*
X209184285Y-75710952D01*
X209231904Y-75758571D01*
X209327142Y-75806190D01*
X209708095Y-75806190D01*
X208184285Y-76282380D02*
X208755714Y-76282380D01*
X208470000Y-76282380D02*
X208470000Y-75282380D01*
X208565238Y-75425238D01*
X208660476Y-75520476D01*
X208755714Y-75568095D01*
X209336666Y-101682380D02*
X209670000Y-101206190D01*
X209908095Y-101682380D02*
X209908095Y-100682380D01*
X209527142Y-100682380D01*
X209431904Y-100730000D01*
X209384285Y-100777619D01*
X209336666Y-100872857D01*
X209336666Y-101015714D01*
X209384285Y-101110952D01*
X209431904Y-101158571D01*
X209527142Y-101206190D01*
X209908095Y-101206190D01*
X208955714Y-100777619D02*
X208908095Y-100730000D01*
X208812857Y-100682380D01*
X208574761Y-100682380D01*
X208479523Y-100730000D01*
X208431904Y-100777619D01*
X208384285Y-100872857D01*
X208384285Y-100968095D01*
X208431904Y-101110952D01*
X209003333Y-101682380D01*
X208384285Y-101682380D01*
X205821666Y-76292380D02*
X206155000Y-75816190D01*
X206393095Y-76292380D02*
X206393095Y-75292380D01*
X206012142Y-75292380D01*
X205916904Y-75340000D01*
X205869285Y-75387619D01*
X205821666Y-75482857D01*
X205821666Y-75625714D01*
X205869285Y-75720952D01*
X205916904Y-75768571D01*
X206012142Y-75816190D01*
X206393095Y-75816190D01*
X205488333Y-75292380D02*
X204869285Y-75292380D01*
X205202619Y-75673333D01*
X205059761Y-75673333D01*
X204964523Y-75720952D01*
X204916904Y-75768571D01*
X204869285Y-75863809D01*
X204869285Y-76101904D01*
X204916904Y-76197142D01*
X204964523Y-76244761D01*
X205059761Y-76292380D01*
X205345476Y-76292380D01*
X205440714Y-76244761D01*
X205488333Y-76197142D01*
X205696666Y-101764880D02*
X206030000Y-101288690D01*
X206268095Y-101764880D02*
X206268095Y-100764880D01*
X205887142Y-100764880D01*
X205791904Y-100812500D01*
X205744285Y-100860119D01*
X205696666Y-100955357D01*
X205696666Y-101098214D01*
X205744285Y-101193452D01*
X205791904Y-101241071D01*
X205887142Y-101288690D01*
X206268095Y-101288690D01*
X204839523Y-101098214D02*
X204839523Y-101764880D01*
X205077619Y-100717261D02*
X205315714Y-101431547D01*
X204696666Y-101431547D01*
X169004285Y-174022380D02*
X169004285Y-173022380D01*
X168766190Y-173022380D01*
X168623333Y-173070000D01*
X168528095Y-173165238D01*
X168480476Y-173260476D01*
X168432857Y-173450952D01*
X168432857Y-173593809D01*
X168480476Y-173784285D01*
X168528095Y-173879523D01*
X168623333Y-173974761D01*
X168766190Y-174022380D01*
X169004285Y-174022380D01*
X168051904Y-173117619D02*
X168004285Y-173070000D01*
X167909047Y-173022380D01*
X167670952Y-173022380D01*
X167575714Y-173070000D01*
X167528095Y-173117619D01*
X167480476Y-173212857D01*
X167480476Y-173308095D01*
X167528095Y-173450952D01*
X168099523Y-174022380D01*
X167480476Y-174022380D01*
X166909047Y-173450952D02*
X167004285Y-173403333D01*
X167051904Y-173355714D01*
X167099523Y-173260476D01*
X167099523Y-173212857D01*
X167051904Y-173117619D01*
X167004285Y-173070000D01*
X166909047Y-173022380D01*
X166718571Y-173022380D01*
X166623333Y-173070000D01*
X166575714Y-173117619D01*
X166528095Y-173212857D01*
X166528095Y-173260476D01*
X166575714Y-173355714D01*
X166623333Y-173403333D01*
X166718571Y-173450952D01*
X166909047Y-173450952D01*
X167004285Y-173498571D01*
X167051904Y-173546190D01*
X167099523Y-173641428D01*
X167099523Y-173831904D01*
X167051904Y-173927142D01*
X167004285Y-173974761D01*
X166909047Y-174022380D01*
X166718571Y-174022380D01*
X166623333Y-173974761D01*
X166575714Y-173927142D01*
X166528095Y-173831904D01*
X166528095Y-173641428D01*
X166575714Y-173546190D01*
X166623333Y-173498571D01*
X166718571Y-173450952D01*
X164241904Y-173702380D02*
X164241904Y-172702380D01*
X163670476Y-173702380D02*
X164099047Y-173130952D01*
X163670476Y-172702380D02*
X164241904Y-173273809D01*
X111974476Y-88261404D02*
X111974476Y-87461404D01*
X111784000Y-87461404D01*
X111669714Y-87499500D01*
X111593523Y-87575690D01*
X111555428Y-87651880D01*
X111517333Y-87804261D01*
X111517333Y-87918547D01*
X111555428Y-88070928D01*
X111593523Y-88147119D01*
X111669714Y-88223309D01*
X111784000Y-88261404D01*
X111974476Y-88261404D01*
X110755428Y-88261404D02*
X111212571Y-88261404D01*
X110984000Y-88261404D02*
X110984000Y-87461404D01*
X111060190Y-87575690D01*
X111136380Y-87651880D01*
X111212571Y-87689976D01*
X101528666Y-84921404D02*
X101262000Y-85721404D01*
X100995333Y-84921404D01*
X100271523Y-85645214D02*
X100309619Y-85683309D01*
X100423904Y-85721404D01*
X100500095Y-85721404D01*
X100614380Y-85683309D01*
X100690571Y-85607119D01*
X100728666Y-85530928D01*
X100766761Y-85378547D01*
X100766761Y-85264261D01*
X100728666Y-85111880D01*
X100690571Y-85035690D01*
X100614380Y-84959500D01*
X100500095Y-84921404D01*
X100423904Y-84921404D01*
X100309619Y-84959500D01*
X100271523Y-84997595D01*
X99471523Y-85645214D02*
X99509619Y-85683309D01*
X99623904Y-85721404D01*
X99700095Y-85721404D01*
X99814380Y-85683309D01*
X99890571Y-85607119D01*
X99928666Y-85530928D01*
X99966761Y-85378547D01*
X99966761Y-85264261D01*
X99928666Y-85111880D01*
X99890571Y-85035690D01*
X99814380Y-84959500D01*
X99700095Y-84921404D01*
X99623904Y-84921404D01*
X99509619Y-84959500D01*
X99471523Y-84997595D01*
X100785809Y-100542357D02*
X100671523Y-100580452D01*
X100633428Y-100618547D01*
X100595333Y-100694738D01*
X100595333Y-100809023D01*
X100633428Y-100885214D01*
X100671523Y-100923309D01*
X100747714Y-100961404D01*
X101052476Y-100961404D01*
X101052476Y-100161404D01*
X100785809Y-100161404D01*
X100709619Y-100199500D01*
X100671523Y-100237595D01*
X100633428Y-100313785D01*
X100633428Y-100389976D01*
X100671523Y-100466166D01*
X100709619Y-100504261D01*
X100785809Y-100542357D01*
X101052476Y-100542357D01*
X100328666Y-100161404D02*
X99833428Y-100161404D01*
X100100095Y-100466166D01*
X99985809Y-100466166D01*
X99909619Y-100504261D01*
X99871523Y-100542357D01*
X99833428Y-100618547D01*
X99833428Y-100809023D01*
X99871523Y-100885214D01*
X99909619Y-100923309D01*
X99985809Y-100961404D01*
X100214380Y-100961404D01*
X100290571Y-100923309D01*
X100328666Y-100885214D01*
X111936380Y-100542357D02*
X111669714Y-100542357D01*
X111555428Y-100961404D02*
X111936380Y-100961404D01*
X111936380Y-100161404D01*
X111555428Y-100161404D01*
X110869714Y-100161404D02*
X111022095Y-100161404D01*
X111098285Y-100199500D01*
X111136380Y-100237595D01*
X111212571Y-100351880D01*
X111250666Y-100504261D01*
X111250666Y-100809023D01*
X111212571Y-100885214D01*
X111174476Y-100923309D01*
X111098285Y-100961404D01*
X110945904Y-100961404D01*
X110869714Y-100923309D01*
X110831619Y-100885214D01*
X110793523Y-100809023D01*
X110793523Y-100618547D01*
X110831619Y-100542357D01*
X110869714Y-100504261D01*
X110945904Y-100466166D01*
X111098285Y-100466166D01*
X111174476Y-100504261D01*
X111212571Y-100542357D01*
X111250666Y-100618547D01*
X101656333Y-104259500D02*
X101889666Y-104259500D01*
X101889666Y-104626166D02*
X101889666Y-103926166D01*
X101556333Y-103926166D01*
X101156333Y-103926166D02*
X101089666Y-103926166D01*
X101023000Y-103959500D01*
X100989666Y-103992833D01*
X100956333Y-104059500D01*
X100923000Y-104192833D01*
X100923000Y-104359500D01*
X100956333Y-104492833D01*
X100989666Y-104559500D01*
X101023000Y-104592833D01*
X101089666Y-104626166D01*
X101156333Y-104626166D01*
X101223000Y-104592833D01*
X101256333Y-104559500D01*
X101289666Y-104492833D01*
X101323000Y-104359500D01*
X101323000Y-104192833D01*
X101289666Y-104059500D01*
X101256333Y-103992833D01*
X101223000Y-103959500D01*
X101156333Y-103926166D01*
X106056333Y-104395214D02*
X106094428Y-104433309D01*
X106208714Y-104471404D01*
X106284904Y-104471404D01*
X106399190Y-104433309D01*
X106475380Y-104357119D01*
X106513476Y-104280928D01*
X106551571Y-104128547D01*
X106551571Y-104014261D01*
X106513476Y-103861880D01*
X106475380Y-103785690D01*
X106399190Y-103709500D01*
X106284904Y-103671404D01*
X106208714Y-103671404D01*
X106094428Y-103709500D01*
X106056333Y-103747595D01*
X105789666Y-103671404D02*
X105256333Y-103671404D01*
X105599190Y-104471404D01*
X111974476Y-98421404D02*
X111974476Y-97621404D01*
X111784000Y-97621404D01*
X111669714Y-97659500D01*
X111593523Y-97735690D01*
X111555428Y-97811880D01*
X111517333Y-97964261D01*
X111517333Y-98078547D01*
X111555428Y-98230928D01*
X111593523Y-98307119D01*
X111669714Y-98383309D01*
X111784000Y-98421404D01*
X111974476Y-98421404D01*
X111250666Y-97621404D02*
X110717333Y-97621404D01*
X111060190Y-98421404D01*
X109053476Y-104471404D02*
X109053476Y-103671404D01*
X108863000Y-103671404D01*
X108748714Y-103709500D01*
X108672523Y-103785690D01*
X108634428Y-103861880D01*
X108596333Y-104014261D01*
X108596333Y-104128547D01*
X108634428Y-104280928D01*
X108672523Y-104357119D01*
X108748714Y-104433309D01*
X108863000Y-104471404D01*
X109053476Y-104471404D01*
X107872523Y-103671404D02*
X108253476Y-103671404D01*
X108291571Y-104052357D01*
X108253476Y-104014261D01*
X108177285Y-103976166D01*
X107986809Y-103976166D01*
X107910619Y-104014261D01*
X107872523Y-104052357D01*
X107834428Y-104128547D01*
X107834428Y-104319023D01*
X107872523Y-104395214D01*
X107910619Y-104433309D01*
X107986809Y-104471404D01*
X108177285Y-104471404D01*
X108253476Y-104433309D01*
X108291571Y-104395214D01*
X111993523Y-84959500D02*
X112069714Y-84921404D01*
X112184000Y-84921404D01*
X112298285Y-84959500D01*
X112374476Y-85035690D01*
X112412571Y-85111880D01*
X112450666Y-85264261D01*
X112450666Y-85378547D01*
X112412571Y-85530928D01*
X112374476Y-85607119D01*
X112298285Y-85683309D01*
X112184000Y-85721404D01*
X112107809Y-85721404D01*
X111993523Y-85683309D01*
X111955428Y-85645214D01*
X111955428Y-85378547D01*
X112107809Y-85378547D01*
X111612571Y-85721404D02*
X111612571Y-84921404D01*
X111155428Y-85721404D01*
X111155428Y-84921404D01*
X110774476Y-85721404D02*
X110774476Y-84921404D01*
X110584000Y-84921404D01*
X110469714Y-84959500D01*
X110393523Y-85035690D01*
X110355428Y-85111880D01*
X110317333Y-85264261D01*
X110317333Y-85378547D01*
X110355428Y-85530928D01*
X110393523Y-85607119D01*
X110469714Y-85683309D01*
X110584000Y-85721404D01*
X110774476Y-85721404D01*
X110706333Y-104259500D02*
X110606333Y-104292833D01*
X110573000Y-104326166D01*
X110539666Y-104392833D01*
X110539666Y-104492833D01*
X110573000Y-104559500D01*
X110606333Y-104592833D01*
X110673000Y-104626166D01*
X110939666Y-104626166D01*
X110939666Y-103926166D01*
X110706333Y-103926166D01*
X110639666Y-103959500D01*
X110606333Y-103992833D01*
X110573000Y-104059500D01*
X110573000Y-104126166D01*
X110606333Y-104192833D01*
X110639666Y-104226166D01*
X110706333Y-104259500D01*
X110939666Y-104259500D01*
X110306333Y-103926166D02*
X109839666Y-103926166D01*
X110139666Y-104626166D01*
X101071523Y-79879500D02*
X101147714Y-79841404D01*
X101262000Y-79841404D01*
X101376285Y-79879500D01*
X101452476Y-79955690D01*
X101490571Y-80031880D01*
X101528666Y-80184261D01*
X101528666Y-80298547D01*
X101490571Y-80450928D01*
X101452476Y-80527119D01*
X101376285Y-80603309D01*
X101262000Y-80641404D01*
X101185809Y-80641404D01*
X101071523Y-80603309D01*
X101033428Y-80565214D01*
X101033428Y-80298547D01*
X101185809Y-80298547D01*
X100690571Y-80641404D02*
X100690571Y-79841404D01*
X100233428Y-80641404D01*
X100233428Y-79841404D01*
X99852476Y-80641404D02*
X99852476Y-79841404D01*
X99662000Y-79841404D01*
X99547714Y-79879500D01*
X99471523Y-79955690D01*
X99433428Y-80031880D01*
X99395333Y-80184261D01*
X99395333Y-80298547D01*
X99433428Y-80450928D01*
X99471523Y-80527119D01*
X99547714Y-80603309D01*
X99662000Y-80641404D01*
X99852476Y-80641404D01*
X100785809Y-98002357D02*
X100671523Y-98040452D01*
X100633428Y-98078547D01*
X100595333Y-98154738D01*
X100595333Y-98269023D01*
X100633428Y-98345214D01*
X100671523Y-98383309D01*
X100747714Y-98421404D01*
X101052476Y-98421404D01*
X101052476Y-97621404D01*
X100785809Y-97621404D01*
X100709619Y-97659500D01*
X100671523Y-97697595D01*
X100633428Y-97773785D01*
X100633428Y-97849976D01*
X100671523Y-97926166D01*
X100709619Y-97964261D01*
X100785809Y-98002357D01*
X101052476Y-98002357D01*
X99833428Y-98421404D02*
X100290571Y-98421404D01*
X100062000Y-98421404D02*
X100062000Y-97621404D01*
X100138190Y-97735690D01*
X100214380Y-97811880D01*
X100290571Y-97849976D01*
D11*
X99320619Y-104445214D02*
X99392047Y-104421404D01*
X99415857Y-104397595D01*
X99439666Y-104349976D01*
X99439666Y-104278547D01*
X99415857Y-104230928D01*
X99392047Y-104207119D01*
X99344428Y-104183309D01*
X99153952Y-104183309D01*
X99153952Y-104683309D01*
X99320619Y-104683309D01*
X99368238Y-104659500D01*
X99392047Y-104635690D01*
X99415857Y-104588071D01*
X99415857Y-104540452D01*
X99392047Y-104492833D01*
X99368238Y-104469023D01*
X99320619Y-104445214D01*
X99153952Y-104445214D01*
X99868238Y-104683309D02*
X99773000Y-104683309D01*
X99725380Y-104659500D01*
X99701571Y-104635690D01*
X99653952Y-104564261D01*
X99630142Y-104469023D01*
X99630142Y-104278547D01*
X99653952Y-104230928D01*
X99677761Y-104207119D01*
X99725380Y-104183309D01*
X99820619Y-104183309D01*
X99868238Y-104207119D01*
X99892047Y-104230928D01*
X99915857Y-104278547D01*
X99915857Y-104397595D01*
X99892047Y-104445214D01*
X99868238Y-104469023D01*
X99820619Y-104492833D01*
X99725380Y-104492833D01*
X99677761Y-104469023D01*
X99653952Y-104445214D01*
X99630142Y-104397595D01*
D10*
X111974476Y-90801404D02*
X111974476Y-90001404D01*
X111784000Y-90001404D01*
X111669714Y-90039500D01*
X111593523Y-90115690D01*
X111555428Y-90191880D01*
X111517333Y-90344261D01*
X111517333Y-90458547D01*
X111555428Y-90610928D01*
X111593523Y-90687119D01*
X111669714Y-90763309D01*
X111784000Y-90801404D01*
X111974476Y-90801404D01*
X111022095Y-90001404D02*
X110945904Y-90001404D01*
X110869714Y-90039500D01*
X110831619Y-90077595D01*
X110793523Y-90153785D01*
X110755428Y-90306166D01*
X110755428Y-90496642D01*
X110793523Y-90649023D01*
X110831619Y-90725214D01*
X110869714Y-90763309D01*
X110945904Y-90801404D01*
X111022095Y-90801404D01*
X111098285Y-90763309D01*
X111136380Y-90725214D01*
X111174476Y-90649023D01*
X111212571Y-90496642D01*
X111212571Y-90306166D01*
X111174476Y-90153785D01*
X111136380Y-90077595D01*
X111098285Y-90039500D01*
X111022095Y-90001404D01*
X111974476Y-93341404D02*
X111974476Y-92541404D01*
X111784000Y-92541404D01*
X111669714Y-92579500D01*
X111593523Y-92655690D01*
X111555428Y-92731880D01*
X111517333Y-92884261D01*
X111517333Y-92998547D01*
X111555428Y-93150928D01*
X111593523Y-93227119D01*
X111669714Y-93303309D01*
X111784000Y-93341404D01*
X111974476Y-93341404D01*
X110831619Y-92808071D02*
X110831619Y-93341404D01*
X111022095Y-92503309D02*
X111212571Y-93074738D01*
X110717333Y-93074738D01*
X100728666Y-90382357D02*
X100995333Y-90382357D01*
X100995333Y-90801404D02*
X100995333Y-90001404D01*
X100614380Y-90001404D01*
X99928666Y-90001404D02*
X100309619Y-90001404D01*
X100347714Y-90382357D01*
X100309619Y-90344261D01*
X100233428Y-90306166D01*
X100042952Y-90306166D01*
X99966761Y-90344261D01*
X99928666Y-90382357D01*
X99890571Y-90458547D01*
X99890571Y-90649023D01*
X99928666Y-90725214D01*
X99966761Y-90763309D01*
X100042952Y-90801404D01*
X100233428Y-90801404D01*
X100309619Y-90763309D01*
X100347714Y-90725214D01*
X100785809Y-103082357D02*
X100671523Y-103120452D01*
X100633428Y-103158547D01*
X100595333Y-103234738D01*
X100595333Y-103349023D01*
X100633428Y-103425214D01*
X100671523Y-103463309D01*
X100747714Y-103501404D01*
X101052476Y-103501404D01*
X101052476Y-102701404D01*
X100785809Y-102701404D01*
X100709619Y-102739500D01*
X100671523Y-102777595D01*
X100633428Y-102853785D01*
X100633428Y-102929976D01*
X100671523Y-103006166D01*
X100709619Y-103044261D01*
X100785809Y-103082357D01*
X101052476Y-103082357D01*
X100290571Y-102777595D02*
X100252476Y-102739500D01*
X100176285Y-102701404D01*
X99985809Y-102701404D01*
X99909619Y-102739500D01*
X99871523Y-102777595D01*
X99833428Y-102853785D01*
X99833428Y-102929976D01*
X99871523Y-103044261D01*
X100328666Y-103501404D01*
X99833428Y-103501404D01*
X100728666Y-87842357D02*
X100995333Y-87842357D01*
X100995333Y-88261404D02*
X100995333Y-87461404D01*
X100614380Y-87461404D01*
X99966761Y-87728071D02*
X99966761Y-88261404D01*
X100157238Y-87423309D02*
X100347714Y-87994738D01*
X99852476Y-87994738D01*
X100723213Y-83113309D02*
X100608927Y-83151404D01*
X100418451Y-83151404D01*
X100342260Y-83113309D01*
X100304165Y-83075214D01*
X100266070Y-82999023D01*
X100266070Y-82922833D01*
X100304165Y-82846642D01*
X100342260Y-82808547D01*
X100418451Y-82770452D01*
X100570832Y-82732357D01*
X100647022Y-82694261D01*
X100685118Y-82656166D01*
X100723213Y-82579976D01*
X100723213Y-82503785D01*
X100685118Y-82427595D01*
X100647022Y-82389500D01*
X100570832Y-82351404D01*
X100380356Y-82351404D01*
X100266070Y-82389500D01*
X100037499Y-82351404D02*
X99580356Y-82351404D01*
X99808927Y-83151404D02*
X99808927Y-82351404D01*
D11*
X112525380Y-104373785D02*
X112453952Y-104397595D01*
X112430142Y-104421404D01*
X112406333Y-104469023D01*
X112406333Y-104540452D01*
X112430142Y-104588071D01*
X112453952Y-104611880D01*
X112501571Y-104635690D01*
X112692047Y-104635690D01*
X112692047Y-104135690D01*
X112525380Y-104135690D01*
X112477761Y-104159500D01*
X112453952Y-104183309D01*
X112430142Y-104230928D01*
X112430142Y-104278547D01*
X112453952Y-104326166D01*
X112477761Y-104349976D01*
X112525380Y-104373785D01*
X112692047Y-104373785D01*
X111953952Y-104135690D02*
X112192047Y-104135690D01*
X112215857Y-104373785D01*
X112192047Y-104349976D01*
X112144428Y-104326166D01*
X112025380Y-104326166D01*
X111977761Y-104349976D01*
X111953952Y-104373785D01*
X111930142Y-104421404D01*
X111930142Y-104540452D01*
X111953952Y-104588071D01*
X111977761Y-104611880D01*
X112025380Y-104635690D01*
X112144428Y-104635690D01*
X112192047Y-104611880D01*
X112215857Y-104588071D01*
D10*
X111993523Y-82419500D02*
X112069714Y-82381404D01*
X112184000Y-82381404D01*
X112298285Y-82419500D01*
X112374476Y-82495690D01*
X112412571Y-82571880D01*
X112450666Y-82724261D01*
X112450666Y-82838547D01*
X112412571Y-82990928D01*
X112374476Y-83067119D01*
X112298285Y-83143309D01*
X112184000Y-83181404D01*
X112107809Y-83181404D01*
X111993523Y-83143309D01*
X111955428Y-83105214D01*
X111955428Y-82838547D01*
X112107809Y-82838547D01*
X111612571Y-83181404D02*
X111612571Y-82381404D01*
X111155428Y-83181404D01*
X111155428Y-82381404D01*
X110774476Y-83181404D02*
X110774476Y-82381404D01*
X110584000Y-82381404D01*
X110469714Y-82419500D01*
X110393523Y-82495690D01*
X110355428Y-82571880D01*
X110317333Y-82724261D01*
X110317333Y-82838547D01*
X110355428Y-82990928D01*
X110393523Y-83067119D01*
X110469714Y-83143309D01*
X110584000Y-83181404D01*
X110774476Y-83181404D01*
X100728666Y-92922357D02*
X100995333Y-92922357D01*
X100995333Y-93341404D02*
X100995333Y-92541404D01*
X100614380Y-92541404D01*
X99966761Y-92541404D02*
X100119142Y-92541404D01*
X100195333Y-92579500D01*
X100233428Y-92617595D01*
X100309619Y-92731880D01*
X100347714Y-92884261D01*
X100347714Y-93189023D01*
X100309619Y-93265214D01*
X100271523Y-93303309D01*
X100195333Y-93341404D01*
X100042952Y-93341404D01*
X99966761Y-93303309D01*
X99928666Y-93265214D01*
X99890571Y-93189023D01*
X99890571Y-92998547D01*
X99928666Y-92922357D01*
X99966761Y-92884261D01*
X100042952Y-92846166D01*
X100195333Y-92846166D01*
X100271523Y-92884261D01*
X100309619Y-92922357D01*
X100347714Y-92998547D01*
X111707809Y-103082357D02*
X111593523Y-103120452D01*
X111555428Y-103158547D01*
X111517333Y-103234738D01*
X111517333Y-103349023D01*
X111555428Y-103425214D01*
X111593523Y-103463309D01*
X111669714Y-103501404D01*
X111974476Y-103501404D01*
X111974476Y-102701404D01*
X111707809Y-102701404D01*
X111631619Y-102739500D01*
X111593523Y-102777595D01*
X111555428Y-102853785D01*
X111555428Y-102929976D01*
X111593523Y-103006166D01*
X111631619Y-103044261D01*
X111707809Y-103082357D01*
X111974476Y-103082357D01*
X110831619Y-102968071D02*
X110831619Y-103501404D01*
X111022095Y-102663309D02*
X111212571Y-103234738D01*
X110717333Y-103234738D01*
X112113476Y-77301404D02*
X111656333Y-77301404D01*
X111884904Y-78101404D02*
X111884904Y-77301404D01*
X111465857Y-77301404D02*
X110932523Y-78101404D01*
X110932523Y-77301404D02*
X111465857Y-78101404D01*
X110475380Y-77301404D02*
X110399190Y-77301404D01*
X110323000Y-77339500D01*
X110284904Y-77377595D01*
X110246809Y-77453785D01*
X110208714Y-77606166D01*
X110208714Y-77796642D01*
X110246809Y-77949023D01*
X110284904Y-78025214D01*
X110323000Y-78063309D01*
X110399190Y-78101404D01*
X110475380Y-78101404D01*
X110551571Y-78063309D01*
X110589666Y-78025214D01*
X110627761Y-77949023D01*
X110665857Y-77796642D01*
X110665857Y-77606166D01*
X110627761Y-77453785D01*
X110589666Y-77377595D01*
X110551571Y-77339500D01*
X110475380Y-77301404D01*
X109294428Y-77263309D02*
X109980142Y-78291880D01*
X109027761Y-78101404D02*
X109027761Y-77301404D01*
X108837285Y-77301404D01*
X108723000Y-77339500D01*
X108646809Y-77415690D01*
X108608714Y-77491880D01*
X108570619Y-77644261D01*
X108570619Y-77758547D01*
X108608714Y-77910928D01*
X108646809Y-77987119D01*
X108723000Y-78063309D01*
X108837285Y-78101404D01*
X109027761Y-78101404D01*
X108303952Y-77301404D02*
X107808714Y-77301404D01*
X108075380Y-77606166D01*
X107961095Y-77606166D01*
X107884904Y-77644261D01*
X107846809Y-77682357D01*
X107808714Y-77758547D01*
X107808714Y-77949023D01*
X107846809Y-78025214D01*
X107884904Y-78063309D01*
X107961095Y-78101404D01*
X108189666Y-78101404D01*
X108265857Y-78063309D01*
X108303952Y-78025214D01*
X111974476Y-80641404D02*
X111974476Y-79841404D01*
X111784000Y-79841404D01*
X111669714Y-79879500D01*
X111593523Y-79955690D01*
X111555428Y-80031880D01*
X111517333Y-80184261D01*
X111517333Y-80298547D01*
X111555428Y-80450928D01*
X111593523Y-80527119D01*
X111669714Y-80603309D01*
X111784000Y-80641404D01*
X111974476Y-80641404D01*
X111212571Y-79917595D02*
X111174476Y-79879500D01*
X111098285Y-79841404D01*
X110907809Y-79841404D01*
X110831619Y-79879500D01*
X110793523Y-79917595D01*
X110755428Y-79993785D01*
X110755428Y-80069976D01*
X110793523Y-80184261D01*
X111250666Y-80641404D01*
X110755428Y-80641404D01*
X111517333Y-95805214D02*
X111555428Y-95843309D01*
X111669714Y-95881404D01*
X111745904Y-95881404D01*
X111860190Y-95843309D01*
X111936380Y-95767119D01*
X111974476Y-95690928D01*
X112012571Y-95538547D01*
X112012571Y-95424261D01*
X111974476Y-95271880D01*
X111936380Y-95195690D01*
X111860190Y-95119500D01*
X111745904Y-95081404D01*
X111669714Y-95081404D01*
X111555428Y-95119500D01*
X111517333Y-95157595D01*
X110831619Y-95081404D02*
X110984000Y-95081404D01*
X111060190Y-95119500D01*
X111098285Y-95157595D01*
X111174476Y-95271880D01*
X111212571Y-95424261D01*
X111212571Y-95729023D01*
X111174476Y-95805214D01*
X111136380Y-95843309D01*
X111060190Y-95881404D01*
X110907809Y-95881404D01*
X110831619Y-95843309D01*
X110793523Y-95805214D01*
X110755428Y-95729023D01*
X110755428Y-95538547D01*
X110793523Y-95462357D01*
X110831619Y-95424261D01*
X110907809Y-95386166D01*
X111060190Y-95386166D01*
X111136380Y-95424261D01*
X111174476Y-95462357D01*
X111212571Y-95538547D01*
X100728666Y-95462357D02*
X100995333Y-95462357D01*
X100995333Y-95881404D02*
X100995333Y-95081404D01*
X100614380Y-95081404D01*
X100385809Y-95081404D02*
X99852476Y-95081404D01*
X100195333Y-95881404D01*
X103635857Y-77672357D02*
X103521571Y-77710452D01*
X103483476Y-77748547D01*
X103445380Y-77824738D01*
X103445380Y-77939023D01*
X103483476Y-78015214D01*
X103521571Y-78053309D01*
X103597761Y-78091404D01*
X103902523Y-78091404D01*
X103902523Y-77291404D01*
X103635857Y-77291404D01*
X103559666Y-77329500D01*
X103521571Y-77367595D01*
X103483476Y-77443785D01*
X103483476Y-77519976D01*
X103521571Y-77596166D01*
X103559666Y-77634261D01*
X103635857Y-77672357D01*
X103902523Y-77672357D01*
X102950142Y-77291404D02*
X102873952Y-77291404D01*
X102797761Y-77329500D01*
X102759666Y-77367595D01*
X102721571Y-77443785D01*
X102683476Y-77596166D01*
X102683476Y-77786642D01*
X102721571Y-77939023D01*
X102759666Y-78015214D01*
X102797761Y-78053309D01*
X102873952Y-78091404D01*
X102950142Y-78091404D01*
X103026333Y-78053309D01*
X103064428Y-78015214D01*
X103102523Y-77939023D01*
X103140619Y-77786642D01*
X103140619Y-77596166D01*
X103102523Y-77443785D01*
X103064428Y-77367595D01*
X103026333Y-77329500D01*
X102950142Y-77291404D01*
X101769190Y-77253309D02*
X102454904Y-78281880D01*
X101045380Y-78091404D02*
X101312047Y-77710452D01*
X101502523Y-78091404D02*
X101502523Y-77291404D01*
X101197761Y-77291404D01*
X101121571Y-77329500D01*
X101083476Y-77367595D01*
X101045380Y-77443785D01*
X101045380Y-77558071D01*
X101083476Y-77634261D01*
X101121571Y-77672357D01*
X101197761Y-77710452D01*
X101502523Y-77710452D01*
X100740619Y-77862833D02*
X100359666Y-77862833D01*
X100816809Y-78091404D02*
X100550142Y-77291404D01*
X100283476Y-78091404D01*
X100093000Y-77291404D02*
X99902523Y-78091404D01*
X99750142Y-77519976D01*
X99597761Y-78091404D01*
X99407285Y-77291404D01*
X103649666Y-104052357D02*
X103916333Y-104052357D01*
X103916333Y-104471404D02*
X103916333Y-103671404D01*
X103535380Y-103671404D01*
X102811571Y-104471404D02*
X103268714Y-104471404D01*
X103040142Y-104471404D02*
X103040142Y-103671404D01*
X103116333Y-103785690D01*
X103192523Y-103861880D01*
X103268714Y-103899976D01*
D12*
X202650000Y-108970000D02*
X202585000Y-108970000D01*
X202650000Y-112210000D02*
X202585000Y-112210000D01*
X200475000Y-112210000D02*
X200410000Y-112210000D01*
X202650000Y-112210000D02*
X202650000Y-108970000D01*
X200410000Y-112210000D02*
X200410000Y-108970000D01*
X200475000Y-108970000D02*
X200410000Y-108970000D01*
X200410000Y-78260000D02*
X200410000Y-81500000D01*
X202650000Y-78260000D02*
X202650000Y-81500000D01*
X202585000Y-81500000D02*
X202650000Y-81500000D01*
X200410000Y-81500000D02*
X200475000Y-81500000D01*
X202585000Y-78260000D02*
X202650000Y-78260000D01*
X200410000Y-78260000D02*
X200475000Y-78260000D01*
X141613750Y-87415000D02*
X141613750Y-91655000D01*
X140493750Y-86765000D02*
X140493750Y-87415000D01*
X139373750Y-87415000D02*
X141613750Y-87415000D01*
X140493750Y-92305000D02*
X140493750Y-91655000D01*
X139373750Y-91655000D02*
X139373750Y-87415000D01*
X139373750Y-88135000D02*
X141613750Y-88135000D01*
X141613750Y-91655000D02*
X139373750Y-91655000D01*
X139373750Y-88015000D02*
X141613750Y-88015000D01*
X139373750Y-88255000D02*
X141613750Y-88255000D01*
X158423750Y-91655000D02*
X158423750Y-87415000D01*
X159543750Y-86765000D02*
X159543750Y-87415000D01*
X158423750Y-88255000D02*
X160663750Y-88255000D01*
X158423750Y-87415000D02*
X160663750Y-87415000D01*
X160663750Y-87415000D02*
X160663750Y-91655000D01*
X158423750Y-88135000D02*
X160663750Y-88135000D01*
X160663750Y-91655000D02*
X158423750Y-91655000D01*
X158423750Y-88015000D02*
X160663750Y-88015000D01*
X159543750Y-92305000D02*
X159543750Y-91655000D01*
X177473750Y-91655000D02*
X177473750Y-87415000D01*
X177473750Y-88135000D02*
X179713750Y-88135000D01*
X179713750Y-87415000D02*
X179713750Y-91655000D01*
X177473750Y-88015000D02*
X179713750Y-88015000D01*
X179713750Y-91655000D02*
X177473750Y-91655000D01*
X178593750Y-92305000D02*
X178593750Y-91655000D01*
X178593750Y-86765000D02*
X178593750Y-87415000D01*
X177473750Y-88255000D02*
X179713750Y-88255000D01*
X177473750Y-87415000D02*
X179713750Y-87415000D01*
X198763750Y-87415000D02*
X198763750Y-91655000D01*
X196523750Y-87415000D02*
X198763750Y-87415000D01*
X196523750Y-88015000D02*
X198763750Y-88015000D01*
X197643750Y-92305000D02*
X197643750Y-91655000D01*
X196523750Y-91655000D02*
X196523750Y-87415000D01*
X197643750Y-86765000D02*
X197643750Y-87415000D01*
X198763750Y-91655000D02*
X196523750Y-91655000D01*
X196523750Y-88135000D02*
X198763750Y-88135000D01*
X196523750Y-88255000D02*
X198763750Y-88255000D01*
X217760000Y-84605000D02*
X222000000Y-84605000D01*
X217110000Y-85725000D02*
X217760000Y-85725000D01*
X222650000Y-85725000D02*
X222000000Y-85725000D01*
X218600000Y-86845000D02*
X218600000Y-84605000D01*
X222000000Y-86845000D02*
X217760000Y-86845000D01*
X218480000Y-86845000D02*
X218480000Y-84605000D01*
X222000000Y-84605000D02*
X222000000Y-86845000D01*
X217760000Y-86845000D02*
X217760000Y-84605000D01*
X218360000Y-86845000D02*
X218360000Y-84605000D01*
X110798750Y-116590000D02*
X113038750Y-116590000D01*
X110798750Y-115990000D02*
X113038750Y-115990000D01*
X110798750Y-120230000D02*
X110798750Y-115990000D01*
X113038750Y-115990000D02*
X113038750Y-120230000D01*
X110798750Y-116710000D02*
X113038750Y-116710000D01*
X110798750Y-116830000D02*
X113038750Y-116830000D01*
X111918750Y-120880000D02*
X111918750Y-120230000D01*
X111918750Y-115340000D02*
X111918750Y-115990000D01*
X113038750Y-120230000D02*
X110798750Y-120230000D01*
X141613750Y-115990000D02*
X141613750Y-120230000D01*
X139373750Y-120230000D02*
X139373750Y-115990000D01*
X140493750Y-115340000D02*
X140493750Y-115990000D01*
X141613750Y-120230000D02*
X139373750Y-120230000D01*
X139373750Y-116830000D02*
X141613750Y-116830000D01*
X139373750Y-115990000D02*
X141613750Y-115990000D01*
X140493750Y-120880000D02*
X140493750Y-120230000D01*
X139373750Y-116590000D02*
X141613750Y-116590000D01*
X139373750Y-116710000D02*
X141613750Y-116710000D01*
X159543750Y-115340000D02*
X159543750Y-115990000D01*
X158423750Y-120230000D02*
X158423750Y-115990000D01*
X158423750Y-116710000D02*
X160663750Y-116710000D01*
X158423750Y-116830000D02*
X160663750Y-116830000D01*
X160663750Y-115990000D02*
X160663750Y-120230000D01*
X158423750Y-115990000D02*
X160663750Y-115990000D01*
X159543750Y-120880000D02*
X159543750Y-120230000D01*
X158423750Y-116590000D02*
X160663750Y-116590000D01*
X160663750Y-120230000D02*
X158423750Y-120230000D01*
X179713750Y-120230000D02*
X177473750Y-120230000D01*
X178593750Y-115340000D02*
X178593750Y-115990000D01*
X177473750Y-115990000D02*
X179713750Y-115990000D01*
X178593750Y-120880000D02*
X178593750Y-120230000D01*
X177473750Y-116710000D02*
X179713750Y-116710000D01*
X177473750Y-116830000D02*
X179713750Y-116830000D01*
X177473750Y-116590000D02*
X179713750Y-116590000D01*
X177473750Y-120230000D02*
X177473750Y-115990000D01*
X179713750Y-115990000D02*
X179713750Y-120230000D01*
X200025000Y-119820000D02*
X200025000Y-120470000D01*
X198905000Y-121310000D02*
X201145000Y-121310000D01*
X200025000Y-125360000D02*
X200025000Y-124710000D01*
X198905000Y-124710000D02*
X198905000Y-120470000D01*
X201145000Y-124710000D02*
X198905000Y-124710000D01*
X198905000Y-121190000D02*
X201145000Y-121190000D01*
X198905000Y-120470000D02*
X201145000Y-120470000D01*
X198905000Y-121070000D02*
X201145000Y-121070000D01*
X201145000Y-120470000D02*
X201145000Y-124710000D01*
X225098750Y-120230000D02*
X225098750Y-115990000D01*
X225098750Y-116590000D02*
X227338750Y-116590000D01*
X226218750Y-115340000D02*
X226218750Y-115990000D01*
X227338750Y-115990000D02*
X227338750Y-120230000D01*
X226218750Y-120880000D02*
X226218750Y-120230000D01*
X225098750Y-116710000D02*
X227338750Y-116710000D01*
X227338750Y-120230000D02*
X225098750Y-120230000D01*
X225098750Y-115990000D02*
X227338750Y-115990000D01*
X225098750Y-116830000D02*
X227338750Y-116830000D01*
X110798750Y-139280000D02*
X110798750Y-135040000D01*
X110798750Y-135040000D02*
X113038750Y-135040000D01*
X110798750Y-135760000D02*
X113038750Y-135760000D01*
X113038750Y-139280000D02*
X110798750Y-139280000D01*
X113038750Y-135040000D02*
X113038750Y-139280000D01*
X110798750Y-135640000D02*
X113038750Y-135640000D01*
X111918750Y-139930000D02*
X111918750Y-139280000D01*
X111918750Y-134390000D02*
X111918750Y-135040000D01*
X110798750Y-135880000D02*
X113038750Y-135880000D01*
X139373750Y-135880000D02*
X141613750Y-135880000D01*
X139373750Y-135040000D02*
X141613750Y-135040000D01*
X139373750Y-139280000D02*
X139373750Y-135040000D01*
X141613750Y-135040000D02*
X141613750Y-139280000D01*
X140493750Y-139930000D02*
X140493750Y-139280000D01*
X139373750Y-135760000D02*
X141613750Y-135760000D01*
X139373750Y-135640000D02*
X141613750Y-135640000D01*
X140493750Y-134390000D02*
X140493750Y-135040000D01*
X141613750Y-139280000D02*
X139373750Y-139280000D01*
X158423750Y-135640000D02*
X160663750Y-135640000D01*
X160663750Y-135040000D02*
X160663750Y-139280000D01*
X159543750Y-134390000D02*
X159543750Y-135040000D01*
X160663750Y-139280000D02*
X158423750Y-139280000D01*
X158423750Y-135760000D02*
X160663750Y-135760000D01*
X158423750Y-135880000D02*
X160663750Y-135880000D01*
X158423750Y-135040000D02*
X160663750Y-135040000D01*
X158423750Y-139280000D02*
X158423750Y-135040000D01*
X159543750Y-139930000D02*
X159543750Y-139280000D01*
X170560000Y-133350000D02*
X169910000Y-133350000D01*
X169910000Y-132230000D02*
X169910000Y-134470000D01*
X165670000Y-132230000D02*
X169910000Y-132230000D01*
X169910000Y-134470000D02*
X165670000Y-134470000D01*
X166270000Y-134470000D02*
X166270000Y-132230000D01*
X165670000Y-134470000D02*
X165670000Y-132230000D01*
X165020000Y-133350000D02*
X165670000Y-133350000D01*
X166510000Y-134470000D02*
X166510000Y-132230000D01*
X166390000Y-134470000D02*
X166390000Y-132230000D01*
X198905000Y-135880000D02*
X201145000Y-135880000D01*
X198905000Y-135040000D02*
X201145000Y-135040000D01*
X200025000Y-139930000D02*
X200025000Y-139280000D01*
X198905000Y-135760000D02*
X201145000Y-135760000D01*
X201145000Y-139280000D02*
X198905000Y-139280000D01*
X198905000Y-135640000D02*
X201145000Y-135640000D01*
X200025000Y-134390000D02*
X200025000Y-135040000D01*
X198905000Y-139280000D02*
X198905000Y-135040000D01*
X201145000Y-135040000D02*
X201145000Y-139280000D01*
X226218750Y-139930000D02*
X226218750Y-139280000D01*
X225098750Y-135880000D02*
X227338750Y-135880000D01*
X225098750Y-135640000D02*
X227338750Y-135640000D01*
X225098750Y-139280000D02*
X225098750Y-135040000D01*
X225098750Y-135760000D02*
X227338750Y-135760000D01*
X225098750Y-135040000D02*
X227338750Y-135040000D01*
X227338750Y-139280000D02*
X225098750Y-139280000D01*
X226218750Y-134390000D02*
X226218750Y-135040000D01*
X227338750Y-135040000D02*
X227338750Y-139280000D01*
X111918750Y-153440000D02*
X111918750Y-154090000D01*
X110798750Y-154690000D02*
X113038750Y-154690000D01*
X110798750Y-154810000D02*
X113038750Y-154810000D01*
X110798750Y-158330000D02*
X110798750Y-154090000D01*
X110798750Y-154090000D02*
X113038750Y-154090000D01*
X111918750Y-158980000D02*
X111918750Y-158330000D01*
X110798750Y-154930000D02*
X113038750Y-154930000D01*
X113038750Y-154090000D02*
X113038750Y-158330000D01*
X113038750Y-158330000D02*
X110798750Y-158330000D01*
X139373750Y-154930000D02*
X141613750Y-154930000D01*
X141613750Y-158330000D02*
X139373750Y-158330000D01*
X139373750Y-154090000D02*
X141613750Y-154090000D01*
X141613750Y-154090000D02*
X141613750Y-158330000D01*
X139373750Y-154690000D02*
X141613750Y-154690000D01*
X139373750Y-158330000D02*
X139373750Y-154090000D01*
X139373750Y-154810000D02*
X141613750Y-154810000D01*
X140493750Y-153440000D02*
X140493750Y-154090000D01*
X140493750Y-158980000D02*
X140493750Y-158330000D01*
X158423750Y-154090000D02*
X160663750Y-154090000D01*
X160663750Y-154090000D02*
X160663750Y-158330000D01*
X158423750Y-154810000D02*
X160663750Y-154810000D01*
X159543750Y-153440000D02*
X159543750Y-154090000D01*
X159543750Y-158980000D02*
X159543750Y-158330000D01*
X158423750Y-154930000D02*
X160663750Y-154930000D01*
X160663750Y-158330000D02*
X158423750Y-158330000D01*
X158423750Y-154690000D02*
X160663750Y-154690000D01*
X158423750Y-158330000D02*
X158423750Y-154090000D01*
X177473750Y-154810000D02*
X179713750Y-154810000D01*
X179713750Y-154090000D02*
X179713750Y-158330000D01*
X177473750Y-158330000D02*
X177473750Y-154090000D01*
X177473750Y-154930000D02*
X179713750Y-154930000D01*
X178593750Y-158980000D02*
X178593750Y-158330000D01*
X179713750Y-158330000D02*
X177473750Y-158330000D01*
X177473750Y-154690000D02*
X179713750Y-154690000D01*
X177473750Y-154090000D02*
X179713750Y-154090000D01*
X178593750Y-153440000D02*
X178593750Y-154090000D01*
X201145000Y-154090000D02*
X201145000Y-158330000D01*
X198905000Y-154090000D02*
X201145000Y-154090000D01*
X198905000Y-154930000D02*
X201145000Y-154930000D01*
X201145000Y-158330000D02*
X198905000Y-158330000D01*
X198905000Y-158330000D02*
X198905000Y-154090000D01*
X200025000Y-153440000D02*
X200025000Y-154090000D01*
X200025000Y-158980000D02*
X200025000Y-158330000D01*
X198905000Y-154690000D02*
X201145000Y-154690000D01*
X198905000Y-154810000D02*
X201145000Y-154810000D01*
X225098750Y-154930000D02*
X227338750Y-154930000D01*
X225098750Y-154090000D02*
X227338750Y-154090000D01*
X227338750Y-158330000D02*
X225098750Y-158330000D01*
X225098750Y-154690000D02*
X227338750Y-154690000D01*
X226218750Y-153440000D02*
X226218750Y-154090000D01*
X225098750Y-154810000D02*
X227338750Y-154810000D01*
X226218750Y-158980000D02*
X226218750Y-158330000D01*
X225098750Y-158330000D02*
X225098750Y-154090000D01*
X227338750Y-154090000D02*
X227338750Y-158330000D01*
X201145000Y-173140000D02*
X201145000Y-177380000D01*
X198905000Y-177380000D02*
X198905000Y-173140000D01*
X200025000Y-178030000D02*
X200025000Y-177380000D01*
X201145000Y-177380000D02*
X198905000Y-177380000D01*
X198905000Y-173140000D02*
X201145000Y-173140000D01*
X198905000Y-173980000D02*
X201145000Y-173980000D01*
X200025000Y-172490000D02*
X200025000Y-173140000D01*
X198905000Y-173740000D02*
X201145000Y-173740000D01*
X198905000Y-173860000D02*
X201145000Y-173860000D01*
X113038750Y-177380000D02*
X110798750Y-177380000D01*
X110798750Y-173860000D02*
X113038750Y-173860000D01*
X111918750Y-172490000D02*
X111918750Y-173140000D01*
X111918750Y-178030000D02*
X111918750Y-177380000D01*
X110798750Y-177380000D02*
X110798750Y-173140000D01*
X110798750Y-173140000D02*
X113038750Y-173140000D01*
X110798750Y-173980000D02*
X113038750Y-173980000D01*
X113038750Y-173140000D02*
X113038750Y-177380000D01*
X110798750Y-173740000D02*
X113038750Y-173740000D01*
X139373750Y-173740000D02*
X141613750Y-173740000D01*
X139373750Y-173980000D02*
X141613750Y-173980000D01*
X140493750Y-172490000D02*
X140493750Y-173140000D01*
X141613750Y-177380000D02*
X139373750Y-177380000D01*
X141613750Y-173140000D02*
X141613750Y-177380000D01*
X139373750Y-173140000D02*
X141613750Y-173140000D01*
X139373750Y-177380000D02*
X139373750Y-173140000D01*
X140493750Y-178030000D02*
X140493750Y-177380000D01*
X139373750Y-173860000D02*
X141613750Y-173860000D01*
X158423750Y-173980000D02*
X160663750Y-173980000D01*
X158423750Y-173740000D02*
X160663750Y-173740000D01*
X158423750Y-177380000D02*
X158423750Y-173140000D01*
X158423750Y-173140000D02*
X160663750Y-173140000D01*
X158423750Y-173860000D02*
X160663750Y-173860000D01*
X160663750Y-173140000D02*
X160663750Y-177380000D01*
X159543750Y-178030000D02*
X159543750Y-177380000D01*
X160663750Y-177380000D02*
X158423750Y-177380000D01*
X159543750Y-172490000D02*
X159543750Y-173140000D01*
X225098750Y-173740000D02*
X227338750Y-173740000D01*
X226218750Y-178030000D02*
X226218750Y-177380000D01*
X225098750Y-173980000D02*
X227338750Y-173980000D01*
X227338750Y-173140000D02*
X227338750Y-177380000D01*
X225098750Y-177380000D02*
X225098750Y-173140000D01*
X226218750Y-172490000D02*
X226218750Y-173140000D01*
X225098750Y-173140000D02*
X227338750Y-173140000D01*
X225098750Y-173860000D02*
X227338750Y-173860000D01*
X227338750Y-177380000D02*
X225098750Y-177380000D01*
X111918750Y-191540000D02*
X111918750Y-192190000D01*
X110798750Y-192790000D02*
X113038750Y-192790000D01*
X110798750Y-192910000D02*
X113038750Y-192910000D01*
X113038750Y-192190000D02*
X113038750Y-196430000D01*
X110798750Y-192190000D02*
X113038750Y-192190000D01*
X110798750Y-196430000D02*
X110798750Y-192190000D01*
X113038750Y-196430000D02*
X110798750Y-196430000D01*
X111918750Y-197080000D02*
X111918750Y-196430000D01*
X110798750Y-193030000D02*
X113038750Y-193030000D01*
X140500000Y-189165000D02*
X140500000Y-189815000D01*
X139380000Y-190415000D02*
X141620000Y-190415000D01*
X141620000Y-189815000D02*
X141620000Y-194055000D01*
X139380000Y-190655000D02*
X141620000Y-190655000D01*
X140500000Y-194705000D02*
X140500000Y-194055000D01*
X139380000Y-190535000D02*
X141620000Y-190535000D01*
X141620000Y-194055000D02*
X139380000Y-194055000D01*
X139380000Y-189815000D02*
X141620000Y-189815000D01*
X139380000Y-194055000D02*
X139380000Y-189815000D01*
X159543750Y-197080000D02*
X159543750Y-196430000D01*
X160663750Y-192190000D02*
X160663750Y-196430000D01*
X158423750Y-192790000D02*
X160663750Y-192790000D01*
X158423750Y-196430000D02*
X158423750Y-192190000D01*
X158423750Y-192910000D02*
X160663750Y-192910000D01*
X159543750Y-191540000D02*
X159543750Y-192190000D01*
X158423750Y-192190000D02*
X160663750Y-192190000D01*
X160663750Y-196430000D02*
X158423750Y-196430000D01*
X158423750Y-193030000D02*
X160663750Y-193030000D01*
X177473750Y-192910000D02*
X179713750Y-192910000D01*
X179713750Y-196430000D02*
X177473750Y-196430000D01*
X178593750Y-197080000D02*
X178593750Y-196430000D01*
X179713750Y-192190000D02*
X179713750Y-196430000D01*
X177473750Y-193030000D02*
X179713750Y-193030000D01*
X177473750Y-192790000D02*
X179713750Y-192790000D01*
X177473750Y-192190000D02*
X179713750Y-192190000D01*
X177473750Y-196430000D02*
X177473750Y-192190000D01*
X178593750Y-191540000D02*
X178593750Y-192190000D01*
X201145000Y-192190000D02*
X201145000Y-196430000D01*
X198905000Y-193030000D02*
X201145000Y-193030000D01*
X198905000Y-192790000D02*
X201145000Y-192790000D01*
X198905000Y-196430000D02*
X198905000Y-192190000D01*
X198905000Y-192190000D02*
X201145000Y-192190000D01*
X200025000Y-191540000D02*
X200025000Y-192190000D01*
X200025000Y-197080000D02*
X200025000Y-196430000D01*
X198905000Y-192910000D02*
X201145000Y-192910000D01*
X201145000Y-196430000D02*
X198905000Y-196430000D01*
X226218750Y-191540000D02*
X226218750Y-192190000D01*
X225098750Y-192190000D02*
X227338750Y-192190000D01*
X225098750Y-192910000D02*
X227338750Y-192910000D01*
X225098750Y-192790000D02*
X227338750Y-192790000D01*
X225098750Y-196430000D02*
X225098750Y-192190000D01*
X227338750Y-196430000D02*
X225098750Y-196430000D01*
X225098750Y-193030000D02*
X227338750Y-193030000D01*
X227338750Y-192190000D02*
X227338750Y-196430000D01*
X226218750Y-197080000D02*
X226218750Y-196430000D01*
X207820000Y-85660000D02*
X208150000Y-85660000D01*
X210230000Y-79120000D02*
X210560000Y-79120000D01*
X210560000Y-79120000D02*
X210560000Y-85660000D01*
X210560000Y-85660000D02*
X210230000Y-85660000D01*
X207820000Y-79120000D02*
X207820000Y-85660000D01*
X208150000Y-79120000D02*
X207820000Y-79120000D01*
X207800000Y-104840000D02*
X208130000Y-104840000D01*
X210540000Y-104840000D02*
X210210000Y-104840000D01*
X208130000Y-111380000D02*
X207800000Y-111380000D01*
X207800000Y-111380000D02*
X207800000Y-104840000D01*
X210540000Y-111380000D02*
X210540000Y-104840000D01*
X210210000Y-111380000D02*
X210540000Y-111380000D01*
X204490000Y-85670000D02*
X204160000Y-85670000D01*
X204160000Y-85670000D02*
X204160000Y-79130000D01*
X206900000Y-79130000D02*
X206570000Y-79130000D01*
X206570000Y-85670000D02*
X206900000Y-85670000D01*
X204160000Y-79130000D02*
X204490000Y-79130000D01*
X206900000Y-85670000D02*
X206900000Y-79130000D01*
X204490000Y-104840000D02*
X204160000Y-104840000D01*
X206900000Y-111380000D02*
X206570000Y-111380000D01*
X204160000Y-111380000D02*
X204490000Y-111380000D01*
X204160000Y-104840000D02*
X204160000Y-111380000D01*
X206900000Y-104840000D02*
X206900000Y-111380000D01*
X206570000Y-104840000D02*
X206900000Y-104840000D01*
X166270000Y-172570000D02*
X166270000Y-170330000D01*
X165670000Y-170330000D02*
X169910000Y-170330000D01*
X169910000Y-172570000D02*
X165670000Y-172570000D01*
X169910000Y-170330000D02*
X169910000Y-172570000D01*
X165670000Y-172570000D02*
X165670000Y-170330000D01*
X166390000Y-172570000D02*
X166390000Y-170330000D01*
X170560000Y-171450000D02*
X169910000Y-171450000D01*
X166510000Y-172570000D02*
X166510000Y-170330000D01*
X165020000Y-171450000D02*
X165670000Y-171450000D01*
D13*
X97033000Y-106949500D02*
X97033000Y-76469500D01*
X114813000Y-76469500D02*
X114813000Y-106949500D01*
X97033000Y-73929500D02*
X114813000Y-73929500D01*
X97033000Y-76469500D02*
X97033000Y-73929500D01*
X114813000Y-73929500D02*
X114813000Y-76469500D01*
X114813000Y-106949500D02*
X97033000Y-106949500D01*
D10*
X101391432Y-82348860D02*
X101391432Y-83148860D01*
X101391432Y-83148860D02*
X101491432Y-83148860D01*
X101491432Y-83148860D02*
X101491432Y-82348860D01*
X101491432Y-82348860D02*
X101391432Y-82348860D01*
G36*
X101491432Y-83148860D02*
G01*
X101391432Y-83148860D01*
X101391432Y-82348860D01*
X101491432Y-82348860D01*
X101491432Y-83148860D01*
G37*
X101491432Y-83148860D02*
X101391432Y-83148860D01*
X101391432Y-82348860D01*
X101491432Y-82348860D01*
X101491432Y-83148860D01*
X101191432Y-82748860D02*
X101191432Y-82848860D01*
X101191432Y-82848860D02*
X101291432Y-82848860D01*
X101291432Y-82848860D02*
X101291432Y-82748860D01*
X101291432Y-82748860D02*
X101191432Y-82748860D01*
G36*
X101291432Y-82848860D02*
G01*
X101191432Y-82848860D01*
X101191432Y-82748860D01*
X101291432Y-82748860D01*
X101291432Y-82848860D01*
G37*
X101291432Y-82848860D02*
X101191432Y-82848860D01*
X101191432Y-82748860D01*
X101291432Y-82748860D01*
X101291432Y-82848860D01*
X100991432Y-82348860D02*
X100991432Y-82648860D01*
X100991432Y-82648860D02*
X101091432Y-82648860D01*
X101091432Y-82648860D02*
X101091432Y-82348860D01*
X101091432Y-82348860D02*
X100991432Y-82348860D01*
G36*
X101091432Y-82648860D02*
G01*
X100991432Y-82648860D01*
X100991432Y-82348860D01*
X101091432Y-82348860D01*
X101091432Y-82648860D01*
G37*
X101091432Y-82648860D02*
X100991432Y-82648860D01*
X100991432Y-82348860D01*
X101091432Y-82348860D01*
X101091432Y-82648860D01*
X100991432Y-82348860D02*
X100991432Y-82448860D01*
X100991432Y-82448860D02*
X101491432Y-82448860D01*
X101491432Y-82448860D02*
X101491432Y-82348860D01*
X101491432Y-82348860D02*
X100991432Y-82348860D01*
G36*
X101491432Y-82448860D02*
G01*
X100991432Y-82448860D01*
X100991432Y-82348860D01*
X101491432Y-82348860D01*
X101491432Y-82448860D01*
G37*
X101491432Y-82448860D02*
X100991432Y-82448860D01*
X100991432Y-82348860D01*
X101491432Y-82348860D01*
X101491432Y-82448860D01*
X100991432Y-82948860D02*
X100991432Y-83148860D01*
X100991432Y-83148860D02*
X101091432Y-83148860D01*
X101091432Y-83148860D02*
X101091432Y-82948860D01*
X101091432Y-82948860D02*
X100991432Y-82948860D01*
G36*
X101091432Y-83148860D02*
G01*
X100991432Y-83148860D01*
X100991432Y-82948860D01*
X101091432Y-82948860D01*
X101091432Y-83148860D01*
G37*
X101091432Y-83148860D02*
X100991432Y-83148860D01*
X100991432Y-82948860D01*
X101091432Y-82948860D01*
X101091432Y-83148860D01*
M02*
